<svg width="152" height="43" viewBox="0 0 152 43" fill="none" xmlns="http://www.w3.org/2000/svg">
<g clip-path="url(#clip0_1166_1893)">
<path d="M48.5 17.2827V17.201C48.5 9.83562 54.2183 3.78711 62.1258 3.78711C70.0332 3.78711 75.671 9.7539 75.671 17.1193V17.201C75.671 24.5664 69.9527 30.6149 62.0452 30.6149C54.1378 30.6149 48.5 24.6481 48.5 17.2827ZM69.7916 17.2827V17.201C69.7916 12.7574 66.5872 9.05326 62.0452 9.05326C57.5033 9.05326 54.3807 12.6743 54.3807 17.1179V17.1997C54.3807 21.6433 57.5852 25.3474 62.1271 25.3474C66.669 25.3474 69.7916 21.7263 69.7916 17.2827Z" fill="white"/>
<path d="M80.6641 4.23877H86.3005V15.5548L96.6823 4.23877H103.456L93.0329 15.2252L103.902 30.1623H97.1285L89.2607 19.1343L86.3005 22.261V30.2025H80.6641V4.23877Z" fill="white"/>
<path d="M107.307 4.23877H117.729C123.812 4.23877 127.502 7.90136 127.502 13.209V13.2908C127.502 19.2991 122.919 22.3843 117.16 22.3843H112.902V30.1609H107.266V4.23877H107.307ZM117.404 17.3244C120.202 17.3244 121.866 15.6378 121.866 13.4154V13.3336C121.866 10.7829 120.122 9.42454 117.324 9.42454H112.984V17.366L117.404 17.3244Z" fill="white"/>
<path d="M143.156 24.565H130.666L129.773 20.5327L143.806 4.03223H148.551V19.9151H151.999V24.565H148.551V30.1607H143.199V24.565H143.158H143.156ZM143.156 19.9566V11.8919L136.383 19.9566H143.156Z" fill="white"/>
<path d="M58.2766 25.1412L49.1109 34.3995L45.1367 30.3671L75.0659 0L79.0401 4.03234L65.9411 17.323L58.2766 25.1412V25.1412Z" fill="white"/>
<path d="M15.1679 33.0008L0 17.406L15.3303 2.05762L18.8992 5.71887L16.8711 7.73638L15.3303 6.13148L4.01511 17.4461L15.1679 28.9269L16.6269 27.4868L18.6153 29.5445L15.1679 33.0008Z" fill="white"/>
<path d="M26.3208 23.4545L24.3324 21.3969L28.1046 17.611L24.2109 13.5787L26.198 11.5625L32.1197 17.6525L26.3208 23.4545Z" fill="#CECECE"/>
<path d="M26.0762 32.8361L10.9492 17.2814L22.4678 5.76048L26.2795 1.93311L41.4065 17.5279L26.0762 32.8347V32.8361ZM14.9643 17.323L26.1171 28.8037L37.3914 17.4877L26.2386 6.00831L14.9643 17.3243V17.323Z" fill="white"/>
<path d="M49.5168 42.7937C49.3135 42.6705 49.1524 42.5057 49.0296 42.2994C48.9068 42.0931 48.8672 41.8466 48.8672 41.6001V40.448C48.8672 40.2015 48.9081 39.9537 49.0296 39.7487C49.1511 39.5424 49.3135 39.379 49.5168 39.2544C49.7201 39.1311 49.9631 39.0896 50.2469 39.0896C50.5308 39.0896 50.7737 39.1311 50.9771 39.2544C51.1804 39.3776 51.3415 39.5424 51.4643 39.7487C51.5857 39.955 51.6267 40.2015 51.6267 40.448V41.6001C51.6267 41.8881 51.5857 42.0944 51.4643 42.2994C51.3428 42.5057 51.1804 42.6691 50.9771 42.7937C50.7737 42.917 50.5308 42.9585 50.2469 42.9585C49.9631 42.9585 49.7201 42.917 49.5168 42.7937ZM50.7328 42.136C50.8543 42.0127 50.8952 41.8479 50.8952 41.6416V40.448C50.8952 40.2417 50.8543 40.0783 50.7328 39.9537C50.6113 39.8304 50.4489 39.7474 50.2456 39.7474C50.0423 39.7474 49.8812 39.8291 49.7993 39.9537C49.7175 40.0783 49.6369 40.2417 49.6369 40.448V41.6416C49.6369 41.8479 49.6779 42.0114 49.7993 42.136C49.9208 42.2592 50.0832 42.3423 50.2456 42.3423C50.408 42.3423 50.61 42.2605 50.7328 42.136Z" fill="white"/>
<path d="M55.1951 39.2972C55.3575 39.3789 55.5199 39.5437 55.6004 39.7085C55.681 39.8733 55.7628 40.0782 55.7628 40.3261C55.7628 40.5739 55.7219 40.7373 55.6004 40.9021C55.479 41.0669 55.3575 41.1901 55.1951 41.3134C55.0327 41.4366 54.7898 41.4366 54.5864 41.4366H53.8154C53.8154 41.4366 53.7744 41.4366 53.7744 41.4782V42.8768L53.7335 42.9183H53.1248C53.1248 42.9183 53.0839 42.9183 53.0839 42.8768L53.043 42.8352V39.2142C53.043 39.2142 53.043 39.1726 53.0839 39.1726C53.1248 39.1726 53.1248 39.1311 53.1248 39.1311H54.6247C54.8281 39.1726 55.0301 39.2128 55.1925 39.2959L55.1951 39.2972ZM54.8703 40.6958C54.9508 40.6141 55.0327 40.4895 55.0327 40.3261C55.0327 40.1626 54.9918 40.038 54.8703 39.9563C54.7898 39.8746 54.6274 39.8331 54.465 39.8331H53.8167C53.8167 39.8331 53.7758 39.8331 53.7758 39.8746V40.8619C53.7758 40.8619 53.7758 40.9035 53.8167 40.9035H54.465C54.6274 40.8619 54.7488 40.8217 54.8703 40.6972V40.6958Z" fill="white"/>
<path d="M59.6173 39.7903H57.8336C57.8336 39.7903 57.7926 39.7903 57.7926 39.8318V40.6543C57.7926 40.6543 57.7926 40.6959 57.8336 40.6959H59.01V41.3134L58.969 41.355H57.8336C57.8336 41.355 57.7926 41.355 57.7926 41.3965V42.2606C57.7926 42.2606 57.7926 42.3021 57.8336 42.3021H59.5777C59.5777 42.3021 59.6187 42.3021 59.6187 42.3436C59.6187 42.3852 59.6596 42.3852 59.6596 42.3852V42.9197C59.6596 42.9197 59.6596 42.9612 59.6187 42.9612C59.5777 42.9612 59.5777 43.0027 59.5777 43.0027H57.1444C57.1444 43.0027 57.1034 43.0027 57.1034 42.9612L57.0625 42.9197V39.2986C57.0625 39.2986 57.0625 39.2571 57.1034 39.2571H59.6173L59.6583 39.2986V39.8331C59.6173 39.7514 59.6173 39.7916 59.6173 39.7916V39.7903Z" fill="white"/>
<path d="M63.1038 39.1727H63.793V42.8755L63.752 42.917H63.1434C63.1161 42.917 63.0892 42.9032 63.0628 42.8755L61.6844 40.5713H61.6435V42.8755C61.6435 42.8755 61.6435 42.917 61.6026 42.917C61.5616 42.917 61.5616 42.9586 61.5616 42.9586H60.953C60.953 42.9586 60.912 42.9586 60.912 42.917L60.8711 42.8755V39.2544C60.8711 39.2544 60.8711 39.2129 60.912 39.2129H61.5603C61.5876 39.2129 61.6144 39.2268 61.6408 39.2544L63.0193 41.5171H63.0602V39.2129C63.1011 39.2544 63.1011 39.2129 63.1011 39.1714L63.1038 39.1727Z" fill="white"/>
<path d="M67.2831 42.8769L67.2422 42.8354V39.2143C67.2422 39.2143 67.2422 39.1728 67.2831 39.1728H67.9723L68.0133 39.2143V40.6959H68.0542L69.2702 39.1741C69.2975 39.1464 69.3243 39.1326 69.3507 39.1326H70.04C70.0672 39.1326 70.0809 39.1464 70.0809 39.1741V39.2156L68.9045 40.7375V40.779L70.1614 42.7952V42.8367C70.1614 42.8644 70.1478 42.8782 70.1205 42.8782H69.3904C69.3631 42.8782 69.3362 42.8644 69.3098 42.8367L68.3777 41.3149H68.3367L68.0119 41.7261V42.8367C68.0119 42.8367 68.0119 42.8782 67.971 42.8782C67.9301 42.8782 67.9301 42.9198 67.9301 42.9198H67.3214C67.3214 42.9198 67.2805 42.9198 67.2805 42.8782L67.2831 42.8769Z" fill="white"/>
<path d="M73.5256 39.1727H74.2149V42.8755L74.1739 42.917H73.5653C73.538 42.917 73.5111 42.9032 73.4847 42.8755L72.1063 40.5713H72.0654V42.8755C72.0654 42.8755 72.0654 42.917 72.0244 42.917C71.9835 42.917 71.9835 42.9586 71.9835 42.9586H71.3748C71.3748 42.9586 71.3339 42.9586 71.3339 42.917L71.293 42.8755V39.2544C71.293 39.2544 71.293 39.2129 71.3339 39.2129H71.9822C72.0095 39.2129 72.0363 39.2268 72.0627 39.2544L73.4411 41.5171H73.4821V39.2129C73.523 39.2544 73.523 39.2129 73.523 39.1714L73.5256 39.1727Z" fill="white"/>
<path d="M76.3215 42.7937C76.1181 42.6705 75.9571 42.5057 75.8343 42.2994C75.7128 42.0931 75.6719 41.8466 75.6719 41.6001V40.448C75.6719 40.2015 75.7128 39.9537 75.8343 39.7487C75.9557 39.5437 76.1181 39.379 76.3215 39.2544C76.5248 39.1311 76.7677 39.0896 77.0516 39.0896C77.3355 39.0896 77.5784 39.1311 77.7818 39.2544C77.9851 39.3776 78.1462 39.5424 78.269 39.7487C78.3904 39.955 78.4314 40.2015 78.4314 40.448V41.6001C78.4314 41.8881 78.3904 42.0944 78.269 42.2994C78.1475 42.5057 77.9851 42.6691 77.7818 42.7937C77.5784 42.917 77.3355 42.9585 77.0516 42.9585C76.7677 42.9585 76.5248 42.917 76.3215 42.7937ZM77.5375 42.136C77.659 42.0127 77.6999 41.8479 77.6999 41.6416V40.448C77.6999 40.2417 77.659 40.0783 77.5375 39.9537C77.416 39.8304 77.2536 39.7474 77.0503 39.7474C76.847 39.7474 76.6859 39.8291 76.604 39.9537C76.5222 40.0783 76.4416 40.2417 76.4416 40.448V41.6416C76.4416 41.8479 76.4826 42.0114 76.604 42.136C76.7255 42.2592 76.8879 42.3423 77.0503 42.3423C77.2127 42.3423 77.4147 42.2605 77.5375 42.136Z" fill="white"/>
<path d="M80.5415 42.8767L79.6094 39.2557V39.2141C79.6094 39.1865 79.623 39.1726 79.6503 39.1726H80.2986C80.3259 39.1726 80.3527 39.1865 80.3791 39.2141L80.8663 41.3951L81.3535 39.2141C81.3535 39.1726 81.3945 39.1726 81.4341 39.1726H82.0823C82.1233 39.1726 82.1629 39.1726 82.1629 39.2141L82.6897 41.3951L83.1769 39.2141C83.1769 39.1726 83.2178 39.1726 83.2574 39.1726H83.8661C83.907 39.1726 83.9466 39.2141 83.907 39.2543L83.0554 42.8754C83.0554 42.9169 83.0145 42.9169 82.9749 42.9169H82.3266C82.2993 42.9169 82.2725 42.9031 82.2461 42.8754L81.7193 40.5712L81.2321 42.8754C81.2321 42.9169 81.1911 42.9169 81.1515 42.9169H80.5838L80.5428 42.8754L80.5415 42.8767Z" fill="white"/>
<path d="M85.2831 42.877L85.2422 42.8354V39.2144C85.2422 39.2144 85.2422 39.1729 85.2831 39.1729H85.9723L86.0133 39.2144V42.2179C86.0133 42.2179 86.0133 42.2594 86.0542 42.2594H87.7574C87.7574 42.2594 87.7983 42.2594 87.7983 42.3009V42.9185L87.7574 42.96H85.324C85.324 42.9185 85.2831 42.9185 85.2831 42.8783V42.877Z" fill="white"/>
<path d="M91.6525 39.7903H89.8687C89.8687 39.7903 89.8278 39.7903 89.8278 39.8318V40.6543C89.8278 40.6543 89.8278 40.6959 89.8687 40.6959H91.0451V41.3134L91.0042 41.355H89.8687C89.8687 41.355 89.8278 41.355 89.8278 41.3965V42.2606C89.8278 42.2606 89.8278 42.3021 89.8687 42.3021H91.6129C91.6129 42.3021 91.6538 42.3021 91.6538 42.3436C91.6538 42.3852 91.6947 42.3852 91.6947 42.3852V42.9197C91.6947 42.9197 91.6947 42.9612 91.6538 42.9612C91.6129 42.9612 91.6129 43.0027 91.6129 43.0027H89.1795C89.1795 43.0027 89.1386 43.0027 89.1386 42.9612L89.0977 42.9197V39.2986C89.0977 39.2986 89.0977 39.2571 89.1386 39.2571H91.6525L91.6934 39.2986V39.8331C91.6934 39.7514 91.6934 39.7916 91.6525 39.7916V39.7903Z" fill="white"/>
<path d="M93.0722 42.8767L93.0312 42.8352V39.2141C93.0312 39.2141 93.0312 39.1726 93.0722 39.1726H94.411C94.6539 39.1726 94.8982 39.2141 95.1002 39.2959C95.3035 39.3776 95.4646 39.5423 95.5465 39.7071C95.6283 39.8719 95.7089 40.0769 95.7089 40.2832V41.7648C95.7089 42.0113 95.6679 42.1761 95.5465 42.3409C95.425 42.5056 95.3035 42.6289 95.1002 42.7521C94.8969 42.8754 94.6539 42.8754 94.411 42.8754H93.1131C93.1131 42.9169 93.0722 42.9169 93.0722 42.8754V42.8767ZM93.8023 42.2592H94.4506C94.613 42.2592 94.7345 42.2176 94.8559 42.0944C94.9774 41.9711 95.0183 41.8479 95.0183 41.6416V40.4078C95.0183 40.243 94.9774 40.0782 94.8559 39.955C94.7345 39.8317 94.613 39.7902 94.4506 39.7902H93.8023C93.8023 39.7902 93.7614 39.7902 93.7614 39.8317L93.8023 42.2592C93.8023 42.2592 93.8023 42.2176 93.8023 42.2592Z" fill="white"/>
<path d="M97.7355 42.7937C97.5322 42.6705 97.3711 42.5472 97.2483 42.3409C97.1255 42.1346 97.0859 41.9296 97.0859 41.6416V40.448C97.0859 40.2015 97.1269 39.9536 97.2483 39.7487C97.3698 39.5437 97.5322 39.3789 97.7355 39.2959C97.9389 39.1726 98.1818 39.1311 98.4657 39.1311C98.7496 39.1311 98.9529 39.1726 99.1958 39.2959C99.4388 39.4191 99.5602 39.5424 99.683 39.7487C99.8045 39.955 99.8454 40.1184 99.8454 40.3663V40.448L99.8045 40.4895H99.1958C99.1958 40.4895 99.1549 40.4895 99.1549 40.448C99.1549 40.4064 99.114 40.4064 99.114 40.4064C99.114 40.2417 99.073 40.1184 98.9516 39.9952C98.8301 39.8719 98.7086 39.8304 98.5053 39.8304C98.302 39.8304 98.1805 39.9121 98.059 39.9952C97.9375 40.0769 97.8966 40.2832 97.8966 40.448V41.6818C97.8966 41.8881 97.9375 42.0113 98.0999 42.1346C98.2214 42.2578 98.3838 42.2994 98.5871 42.2994C98.7905 42.2994 98.9119 42.2578 99.0334 42.1346C99.1549 42.0113 99.1958 41.8881 99.1958 41.7233V41.4768C99.1958 41.4768 99.1958 41.4353 99.1549 41.4353H98.5462C98.5462 41.4353 98.5053 41.4353 98.5053 41.3938V40.8177H99.8837V41.5585C99.8837 41.8466 99.8428 42.0529 99.7213 42.2578C99.5998 42.4641 99.4374 42.6276 99.2341 42.7106C99.0308 42.8339 98.7878 42.8754 98.504 42.8754C98.2201 42.8754 97.9362 42.9169 97.7329 42.7937H97.7355Z" fill="white"/>
<path d="M103.78 39.7901H101.996C101.996 39.7901 101.955 39.7901 101.955 39.8317V40.6542C101.955 40.6542 101.955 40.6957 101.996 40.6957H103.172V41.3133L103.131 41.3549H101.996C101.996 41.3549 101.955 41.3549 101.955 41.3964V42.2605C101.955 42.2605 101.955 42.302 101.996 42.302H103.74C103.74 42.302 103.781 42.302 103.781 42.3435V42.9611L103.74 43.0026H101.307C101.307 43.0026 101.266 43.0026 101.266 42.9611V39.2583H103.78V39.8344C103.78 39.7526 103.78 39.7928 103.78 39.7928V39.7901Z" fill="white"/>
<path d="M109.213 39.2971C109.376 39.3788 109.538 39.5436 109.619 39.7084C109.699 39.8732 109.781 40.0781 109.781 40.326C109.781 40.5738 109.74 40.7372 109.619 40.902C109.497 41.0668 109.376 41.19 109.213 41.3133C109.051 41.4365 108.808 41.4365 108.605 41.4365H107.834C107.834 41.4365 107.793 41.4365 107.793 41.478V42.8766L107.752 42.9182H107.103C107.103 42.9182 107.062 42.9182 107.062 42.8766V39.1739L107.103 39.1323H108.603C108.807 39.1739 109.009 39.214 109.212 39.2971H109.213ZM108.849 40.6957C108.929 40.614 109.011 40.4894 109.011 40.326C109.011 40.1625 108.97 40.0379 108.849 39.9562C108.768 39.8745 108.606 39.833 108.444 39.833H107.795C107.795 39.833 107.754 39.833 107.754 39.8745V40.8618C107.754 40.8618 107.754 40.9033 107.795 40.9033H108.444C108.647 40.8618 108.768 40.8216 108.849 40.697V40.6957Z" fill="white"/>
<path d="M113.025 42.8767L112.377 41.3951C112.377 41.3951 112.377 41.3535 112.336 41.3535H111.849C111.849 41.3535 111.808 41.3535 111.808 41.3951V42.9169L111.767 42.9584H111.158C111.158 42.9584 111.117 42.9584 111.117 42.9169V39.2141H112.658C112.861 39.2141 113.063 39.2556 113.267 39.3374C113.429 39.4191 113.591 39.5839 113.672 39.7486C113.753 39.9134 113.793 40.1184 113.793 40.3247C113.793 40.5712 113.753 40.7775 113.631 40.9423C113.51 41.107 113.347 41.2303 113.144 41.312C113.144 41.312 113.103 41.3535 113.144 41.3535L113.874 42.8754V42.9169C113.874 42.9446 113.86 42.9584 113.833 42.9584H113.185C113.022 42.9169 113.022 42.8767 113.022 42.8767H113.025ZM111.809 39.8317V40.7373C111.809 40.7373 111.809 40.7788 111.85 40.7788H112.539C112.702 40.7788 112.823 40.7373 112.904 40.6556C112.984 40.5739 113.025 40.4493 113.025 40.326C113.025 40.2028 112.984 40.0795 112.904 39.9965C112.823 39.9147 112.7 39.8732 112.539 39.8732L111.809 39.8317Z" fill="white"/>
<path d="M115.743 42.7937C115.54 42.6705 115.379 42.5057 115.256 42.2994C115.133 42.0931 115.094 41.8466 115.094 41.6001V40.448C115.094 40.2015 115.135 39.9537 115.256 39.7487C115.378 39.5424 115.54 39.379 115.743 39.2544C115.947 39.1311 116.19 39.0896 116.473 39.0896C116.757 39.0896 117 39.1311 117.204 39.2544C117.407 39.3776 117.568 39.5424 117.691 39.7487C117.812 39.955 117.853 40.2015 117.853 40.448V41.6001C117.853 41.8881 117.812 42.0944 117.691 42.2994C117.569 42.5057 117.407 42.6691 117.204 42.7937C117 42.917 116.757 42.9585 116.473 42.9585C116.19 42.9585 115.947 42.917 115.743 42.7937ZM116.92 42.136C117.041 42.0127 117.082 41.8479 117.082 41.6416V40.448C117.082 40.2417 117.041 40.0783 116.92 39.9537C116.798 39.8291 116.636 39.7474 116.433 39.7474C116.229 39.7474 116.068 39.8291 115.986 39.9537C115.904 40.0783 115.824 40.2417 115.824 40.448V41.6416C115.824 41.8479 115.865 42.0114 115.986 42.136C116.108 42.2592 116.27 42.3423 116.433 42.3423C116.595 42.3423 116.797 42.2605 116.92 42.136Z" fill="white"/>
<path d="M121.828 39.1726V39.7902L121.787 39.8317H120.855C120.855 39.8317 120.814 39.8317 120.814 39.8732V42.9183L120.773 42.9598H120.164C120.164 42.9598 120.123 42.9598 120.123 42.9183V39.8732C120.123 39.8732 120.123 39.8317 120.082 39.8317H119.15C119.15 39.8317 119.109 39.8317 119.109 39.7902V39.1726H121.827H121.828Z" fill="white"/>
<path d="M123.611 42.7937C123.407 42.6705 123.246 42.5057 123.123 42.2994C123.002 42.0931 122.961 41.8466 122.961 41.6001V40.448C122.961 40.2015 123.002 39.9537 123.123 39.7487C123.245 39.5424 123.407 39.379 123.611 39.2544C123.814 39.1311 124.057 39.0896 124.341 39.0896C124.625 39.0896 124.867 39.1311 125.071 39.2544C125.274 39.3776 125.435 39.5424 125.558 39.7487C125.679 39.955 125.72 40.2015 125.72 40.448V41.6001C125.72 41.8881 125.679 42.0944 125.558 42.2994C125.437 42.5044 125.274 42.6691 125.071 42.7937C124.867 42.917 124.625 42.9585 124.341 42.9585C124.057 42.9585 123.814 42.917 123.611 42.7937ZM124.787 42.136C124.908 42.0127 124.949 41.8479 124.949 41.6416V40.448C124.949 40.2417 124.908 40.0783 124.787 39.9537C124.665 39.8291 124.503 39.7474 124.3 39.7474C124.096 39.7474 123.935 39.8291 123.853 39.9537C123.772 40.0783 123.691 40.2417 123.691 40.448V41.6416C123.691 41.8479 123.732 42.0114 123.853 42.136C123.975 42.2592 124.137 42.3423 124.3 42.3423C124.462 42.3423 124.664 42.2605 124.787 42.136Z" fill="white"/>
<path d="M127.704 42.7936C127.501 42.6704 127.34 42.5471 127.217 42.3408C127.094 42.1345 127.055 41.9295 127.055 41.6415V40.4077C127.055 40.1612 127.096 39.9134 127.217 39.7084C127.339 39.5034 127.501 39.3788 127.704 39.2556C127.908 39.1324 128.151 39.0908 128.434 39.0908C128.718 39.0908 128.922 39.1324 129.165 39.2556C129.408 39.3788 129.529 39.5021 129.652 39.7084C129.773 39.9147 129.814 40.1197 129.814 40.3662C129.814 40.3939 129.787 40.4077 129.734 40.4077L129.125 40.4492C129.084 40.4492 129.084 40.4077 129.084 40.4077C129.084 40.2014 129.043 40.0781 128.922 39.9549C128.8 39.8316 128.679 39.7901 128.475 39.7901C128.272 39.7901 128.151 39.8316 128.029 39.9549C127.908 40.0781 127.867 40.2429 127.867 40.4077V41.683C127.867 41.8478 127.908 42.0126 128.029 42.1358C128.151 42.2591 128.313 42.3006 128.475 42.3006C128.638 42.3006 128.8 42.2591 128.922 42.1358C129.043 42.0126 129.084 41.8893 129.084 41.683C129.084 41.6554 129.111 41.6415 129.165 41.6415L129.773 41.683H129.814V41.7246C129.814 41.9711 129.773 42.1774 129.652 42.3823C129.53 42.5873 129.368 42.7119 129.165 42.8351C128.961 42.9169 128.718 42.9999 128.434 42.9999C128.151 42.9999 127.908 42.9182 127.704 42.7936Z" fill="white"/>
<path d="M131.759 42.7937C131.556 42.6705 131.395 42.5057 131.272 42.2994C131.15 42.0931 131.109 41.8466 131.109 41.6001V40.448C131.109 40.2015 131.15 39.9537 131.272 39.7487C131.393 39.5424 131.556 39.379 131.759 39.2544C131.962 39.1311 132.205 39.0896 132.489 39.0896C132.773 39.0896 133.016 39.1311 133.219 39.2544C133.423 39.3776 133.584 39.5424 133.706 39.7487C133.828 39.955 133.869 40.2015 133.869 40.448V41.6001C133.869 41.8881 133.828 42.0944 133.706 42.2994C133.585 42.5044 133.423 42.6691 133.219 42.7937C133.016 42.917 132.773 42.9585 132.489 42.9585C132.205 42.9585 132.002 42.917 131.759 42.7937ZM132.975 42.136C133.096 42.0127 133.137 41.8479 133.137 41.6416V40.448C133.137 40.2417 133.096 40.0783 132.975 39.9537C132.854 39.8291 132.691 39.7474 132.488 39.7474C132.284 39.7474 132.123 39.8291 132.042 39.9537C131.96 40.0783 131.879 40.2417 131.879 40.448V41.6416C131.879 41.8479 131.92 42.0114 132.042 42.136C132.163 42.2592 132.325 42.3423 132.488 42.3423C132.65 42.3423 132.852 42.2605 132.975 42.136Z" fill="white"/>
<path d="M135.328 42.8769V39.1741H136.017V42.2191C136.017 42.2191 136.017 42.2606 136.058 42.2606H137.761C137.761 42.2606 137.802 42.2606 137.802 42.3021V42.9197L137.761 42.9613H135.328C135.369 42.9197 135.328 42.9197 135.328 42.8795V42.8769Z" fill="white"/>
<path d="M143.605 39.7903H141.86C141.86 39.7903 141.819 39.7903 141.819 39.8318V40.6544C141.819 40.6544 141.819 40.6959 141.86 40.6959H143.037V41.3135L142.996 41.355H141.86C141.86 41.355 141.819 41.355 141.819 41.3965V42.9184L141.779 42.9599H141.17C141.17 42.9599 141.129 42.9599 141.129 42.9184V39.2156H143.643V39.7916C143.643 39.7501 143.643 39.7916 143.602 39.7916L143.605 39.7903Z" fill="white"/>
<path d="M145.47 42.7937C145.267 42.6705 145.106 42.5057 144.983 42.2994C144.861 42.0931 144.82 41.8466 144.82 41.6001V40.448C144.82 40.2015 144.861 39.9537 144.983 39.7487C145.104 39.5424 145.267 39.379 145.47 39.2544C145.673 39.1311 145.916 39.0896 146.2 39.0896C146.484 39.0896 146.727 39.1311 146.93 39.2544C147.134 39.3776 147.295 39.5424 147.417 39.7487C147.539 39.955 147.58 40.2015 147.58 40.448V41.6001C147.58 41.8881 147.539 42.0944 147.417 42.2994C147.296 42.5044 147.134 42.6691 146.93 42.7937C146.727 42.917 146.484 42.9585 146.2 42.9585C145.916 42.9585 145.673 42.917 145.47 42.7937ZM146.646 42.136C146.768 42.0127 146.809 41.8479 146.809 41.6416V40.448C146.809 40.2417 146.768 40.0783 146.646 39.9537C146.525 39.8291 146.362 39.7474 146.159 39.7474C145.956 39.7474 145.795 39.8291 145.713 39.9537C145.632 40.0769 145.55 40.2417 145.55 40.448V41.6416C145.55 41.8479 145.591 42.0114 145.713 42.136C145.834 42.2592 145.997 42.3423 146.159 42.3423C146.322 42.3423 146.524 42.2605 146.646 42.136Z" fill="white"/>
<path d="M150.947 42.8767L150.299 41.3951C150.299 41.3951 150.299 41.3535 150.258 41.3535H149.771C149.771 41.3535 149.73 41.3535 149.73 41.3951V42.9169L149.689 42.9584H149.08C149.08 42.9584 149.039 42.9584 149.039 42.9169V39.2141H150.58C150.783 39.2141 150.985 39.2556 151.189 39.3374C151.351 39.4191 151.513 39.5839 151.594 39.7486C151.674 39.9134 151.715 40.1184 151.715 40.3247C151.715 40.5712 151.674 40.7775 151.553 40.9423C151.431 41.107 151.269 41.2303 151.066 41.312C151.066 41.312 151.025 41.3535 151.066 41.3535L151.796 42.8754V42.9169C151.796 42.9446 151.782 42.9584 151.755 42.9584H151.107C150.985 42.9169 150.944 42.8767 150.944 42.8767H150.947ZM149.731 39.8317V40.7373C149.731 40.7373 149.731 40.7788 149.772 40.7788H150.461C150.623 40.7788 150.745 40.7373 150.825 40.6556C150.906 40.5739 150.947 40.4493 150.947 40.326C150.947 40.2028 150.906 40.0795 150.825 39.9965C150.745 39.9147 150.622 39.8732 150.461 39.8732L149.731 39.8317C149.731 39.8317 149.772 39.8317 149.731 39.8317Z" fill="white"/>
</g>
<defs>
<clipPath id="clip0_1166_1893">
<rect width="152" height="43" fill="white"/>
</clipPath>
</defs>
</svg>
