<svg width="100" height="100" viewBox="0 0 100 100" fill="none" xmlns="http://www.w3.org/2000/svg">
<g id="noun-document-2906615 1">
<path id="Vector" d="M12.0967 30.274C12.9114 30.274 13.6799 30.2432 14.4451 30.28C16.4556 30.3766 18.4673 30.6271 20.4738 30.5862C23.0999 30.5326 25.7191 30.1941 28.3458 30.0983C30.5354 29.9413 32.7347 29.9724 34.9188 30.1912C36.9277 30.3228 38.9427 30.3359 40.9532 30.2306C44.1333 30.2987 47.3139 30.4041 50.4898 30.5735C51.8109 30.6439 52.1333 31.1947 51.9548 32.4857C51.8145 33.4995 51.7256 34.5205 51.6244 35.5393C50.9831 42.9899 50.7677 50.4701 50.9793 57.9446C51.0865 65.1184 51.0119 72.2949 51.122 79.4687C51.1753 82.9426 51.4631 86.4133 51.6557 89.8849C51.7491 91.5686 51.0342 92.3231 49.3074 92.3993C46.1325 92.5393 42.9592 92.7149 39.7842 92.8544C39.2378 92.8784 38.686 92.762 38.1378 92.7719C36.862 92.7947 35.5867 92.8498 34.3117 92.9032C33.8878 92.9604 33.4608 92.9927 33.033 93C30.1038 92.7718 27.1746 92.538 24.2513 92.2482C23.7807 92.1568 23.3415 91.9487 22.9755 91.6435C22.2746 91.1628 21.6226 90.6166 21.0287 90.0123C19.0396 88.0553 16.8818 86.2717 14.5796 84.6817C14.2904 84.4642 14.0585 84.1815 13.9033 83.8575C13.7482 83.5334 13.6743 83.1775 13.6881 82.8195C13.555 79.0246 13.1183 75.2268 13.2172 71.4408C13.3168 67.6268 12.9672 63.8569 12.7722 60.0689C12.7314 59.5875 12.7382 59.1033 12.7926 58.6232C13.4918 53.9273 12.9939 49.2401 12.7391 44.5483C12.6214 42.3823 12.6684 40.2076 12.5467 38.042C12.4221 35.8235 12.1769 33.6116 12 31.3957C12.0062 31.0201 12.0385 30.6453 12.0967 30.274ZM31.5802 31.2722C31.0355 31.0178 30.4213 30.945 29.8308 31.065C29.2404 31.1851 28.7057 31.4913 28.308 31.9373C27.6392 32.5844 26.8627 33.1238 26.1341 33.711L25.8681 33.4692L26.7673 31.6615C25.5715 31.2511 24.2847 31.1692 23.0451 31.4246C21.8056 31.6801 20.6602 32.2633 19.7321 33.1114C19.5565 33.2777 19.3532 33.413 19.131 33.5115C19.0006 33.5619 18.8135 33.4702 18.6181 33.4365L19.09 31.8108C18.543 31.8032 17.9966 31.8533 17.4604 31.9603C16.9587 32.1746 16.4788 32.4353 16.0271 32.7389L15.4056 31.813C13.425 32.8808 13.3452 33.0392 13.566 35.0328C13.6655 35.9309 13.7692 36.8333 13.784 37.7351C13.8225 40.0871 13.7061 42.4459 13.8448 44.7909C14.3003 49.5398 14.3001 54.3205 13.8443 59.0694C13.773 60.0328 13.7808 61.0003 13.8676 61.9625C13.9894 65.5178 14.1182 69.0728 14.2539 72.6276C14.3615 75.4609 14.4347 78.2965 14.6138 81.1255C14.7127 82.6862 14.9557 82.8494 16.501 82.9978C17.9656 83.1385 19.4362 83.2233 20.898 83.3866C22.3276 83.5463 23.7494 83.7742 25.0147 83.9499C24.9591 85.9401 24.8544 87.669 24.8797 89.396C24.9018 90.9052 25.1374 91.2366 26.639 91.4532C28.7513 91.7592 30.8783 91.9565 33.0114 92.0444C34.4683 92.1033 35.9515 91.7146 37.3966 91.8344C41.2448 92.0001 45.1004 91.8172 48.9146 91.2881C50.3879 91.1444 50.5824 90.7085 50.1703 88.9611L47.9369 89.6735C48.0185 89.4062 48.0165 89.2516 48.0922 89.191C48.5372 88.7773 49.0276 88.4136 49.5544 88.1068C49.8956 87.9695 50.178 87.7201 50.3535 87.4011C50.5291 87.082 50.5869 86.713 50.5171 86.3567C50.4779 85.9366 50.4783 85.5127 50.4663 85.0904C50.3569 81.2345 50.2621 77.3782 50.1343 73.523C50.0753 71.7446 49.9525 69.9682 49.8496 68.019L47.2694 68.844C47.8328 67.4128 48.8864 67.1461 49.8347 66.7316V60.9084L47.4237 61.8546L47.131 61.4599C48.087 60.6367 49.4526 59.9801 49.8871 58.9448C50.3478 57.8474 49.9238 56.3902 49.8842 55.0236L47.7987 55.4302L47.6214 55.0846C48.2417 54.6611 48.8356 54.1919 49.4894 53.8267C50.1671 53.4482 50.1496 53.0662 49.7028 52.5508L47.9413 52.9471C47.8654 51.5909 50.1375 51.8379 49.5897 50.1859L47.6754 50.717C47.5854 49.2339 50.0454 49.5784 49.6548 47.8147L47.4006 48.2975C47.7899 46.9856 48.9183 46.9411 49.739 46.4593L50.1566 41.6362L47.3789 42.9418C47.732 41.9799 48.4131 41.1682 49.3062 40.6454C49.8282 40.3794 50.2291 39.9296 50.429 39.3855C50.6289 38.8414 50.6129 38.2432 50.3844 37.7102L48.5035 38.2913L48.2677 37.9544C48.7724 37.4004 49.3149 36.8809 49.8914 36.3994C50.0458 36.327 50.1808 36.2199 50.2857 36.0869C50.3906 35.9538 50.4624 35.7985 50.4954 35.6333C50.5284 35.4681 50.5216 35.2975 50.4757 35.1353C50.4298 34.9731 50.3459 34.8237 50.2309 34.6991L48.0491 35.8317L47.8081 35.4884C48.2359 35.092 48.6588 34.6904 49.0927 34.3006C49.6248 33.8949 50.119 33.4431 50.5692 32.9507C50.7473 32.7192 50.5725 32.2246 50.558 31.8494C50.2503 31.9199 49.9539 32.0314 49.6769 32.1808C48.5952 32.9697 47.5417 33.796 46.478 34.6089L46.2356 34.3488L48.0089 31.9249C45.8006 30.8176 45.135 33.372 43.2729 33.673L44.5291 31.5898C43.3771 31.3587 43.375 31.3571 42.9071 31.9231C42.2407 32.7291 41.6026 33.5732 40.2513 33.5224L41.5644 31.6521C41.1472 31.4279 40.6633 31.3545 40.1968 31.4447C39.7304 31.5349 39.3107 31.783 39.0107 32.146C38.3407 33.0369 37.3808 33.6748 36.2909 33.9535L37.4175 31.8556C36.1235 31.432 36.1565 31.4731 35.3221 32.1232C34.2883 33.1234 33.0954 33.9508 31.7907 34.5726L33.9531 31.5054C32.2284 31.9217 31.2362 33.4247 29.4298 33.6297L31.5802 31.2722ZM23.6108 89.8489C23.6108 88.3444 23.671 87.0232 23.5717 85.7137C23.5239 85.4949 23.4245 85.2903 23.2814 85.1164C23.1384 84.9424 22.9557 84.8041 22.7483 84.7124C20.6572 84.0471 18.4841 84.2198 16.1285 84.0333C17.5771 85.7185 22.2409 89.3695 23.6108 89.8489Z" fill="#FF9500"/>
<path id="Vector_2" d="M21.2512 43.3591C20.7223 43.8705 20.1657 44.3405 19.5848 44.7663C19.2764 44.9616 18.7089 45.1007 18.5113 44.9069C18.3541 44.7302 18.2283 44.5182 18.1415 44.2835C18.0547 44.0488 18.0085 43.796 18.0056 43.54C17.989 43.3287 18.0093 43.1157 18.0653 42.914C18.1212 42.7123 18.2116 42.5262 18.3308 42.3672C18.4501 42.2082 18.5957 42.0796 18.7587 41.9894C18.9217 41.8992 19.0986 41.8492 19.2786 41.8426L19.3658 43.7858L21.6996 41.4385C22.1154 41.8502 22.5238 42.5776 22.9019 42.5565C23.5759 42.4362 24.2178 42.1369 24.7791 41.6812C25.4306 41.1646 26.0557 40.6033 26.6511 40L26.5564 42.1607C26.852 42.4476 26.852 42.4476 28.7277 40.9941C28.9078 41.1367 29.1314 41.304 29.3457 41.4864C29.5205 41.6352 29.6841 41.8021 29.8568 41.9649L31.3066 40.9486L32.2204 42.2655C32.4984 42.0195 32.8274 41.8662 33.1729 41.8217C33.5185 41.7771 33.8678 41.8429 34.1843 42.0122C34.9193 42.312 35.9127 41.7324 36.9204 41.5127L37.532 43.0913C38.134 42.7654 38.6365 42.4933 39.1385 42.2218C39.5943 42.668 40.1791 42.8888 40.7701 42.8379C41.3611 42.7871 41.9125 42.4685 42.3085 41.9491C42.7691 41.4974 43.226 41.0405 43.7691 40.5021C44.2678 41.63 43.8897 42.1346 43.2902 42.5001C42.5872 42.9286 41.8654 43.3149 41.1475 43.7089C40.3882 44.1039 39.5419 44.204 38.7312 43.9946C37.5873 43.8566 36.4524 43.6289 35.3343 43.3127C34.3377 42.9753 33.1386 43.5804 32.0365 43.5319C30.986 43.4857 29.9499 43.0891 28.8982 42.9346C28.4064 42.847 27.9041 42.896 27.4313 43.0776C26.6562 43.4212 25.9721 43.7592 25.1713 43.0814C24.9576 42.9006 24.4396 43.1748 24.0744 43.2951C23.101 43.616 22.1564 44.378 21.2512 43.3591Z" fill="#FF9500"/>
<path id="Vector_3" d="M41.2593 68.4425C41.8716 69.5908 42.7016 69.4709 43.6338 68.8154C44.1645 68.4423 44.1994 68.5234 45 69.1601C44.8435 69.379 44.7022 69.7536 44.5506 69.7606C43.2008 69.8229 41.9258 71.3139 40.499 70.1127C40.3497 69.987 40.0511 70.14 39.8234 70.1792C38.6179 70.3869 37.4129 70.6005 36.2075 70.8088C36.0923 70.8384 35.9743 70.8456 35.8575 70.8301C34.185 70.4537 32.5156 69.6061 30.8373 70.7997C29.7261 69.8537 28.5041 70.2795 27.3129 70.3393C26.9645 70.3568 26.6167 70.4047 26.2695 70.449C24.7199 70.6469 23.1726 70.9517 21.6203 71C20.9194 70.9411 20.2397 70.669 19.6376 70.2065C19.0323 69.8073 18.7175 69.1148 19.3363 68C20.0084 69.3412 20.983 69.2131 21.9575 69.2181C23.4916 69.2259 25.0403 69.8246 26.5428 68.8649C26.8096 68.6945 27.2094 68.8785 27.5476 68.8739C28.1031 68.8664 28.6583 68.8331 29.2138 68.821C29.651 68.8116 30.201 68.6032 30.5023 68.8616C30.7619 69.1042 31.0701 69.247 31.391 69.2733C31.7118 69.2995 32.0318 69.2082 32.3134 69.01C32.7136 68.6924 33.181 68.5414 33.6511 68.5777C34.1212 68.614 34.571 68.8358 34.9383 69.2127C35.3436 69.4953 35.8038 69.6237 36.2643 69.5826C36.9464 69.6507 37.6323 69.6187 38.3087 69.4871C39.2115 69.2684 40.0874 68.8682 41.2593 68.4425Z" fill="#FF9500"/>
<path id="Vector_4" d="M25.7856 61.4234C24.2988 61.5183 23.1936 61.5461 22.0982 61.6719C21.186 61.9393 20.227 61.9681 19.3022 61.7559C17.8707 61.2266 17.6734 60.9372 18.4464 59.4912C18.587 59.3079 18.7474 59.1431 18.9242 59L21.552 60.5157C22.9688 59.9399 24.8713 61.089 26.1952 59.1312L27.2751 61.1652L30.2522 59.7373L31.5834 60.8052C32.4267 60.3797 33.2724 59.6524 34.1692 60.6781C34.2374 60.7561 34.5075 60.6322 34.6839 60.6033C36.3844 60.3246 36.3844 60.3247 38 61.4449C37.9276 61.5823 37.8277 61.7011 37.7076 61.7927C37.5874 61.8844 37.4498 61.9467 37.3046 61.9753C37.1594 62.0038 37.0101 61.998 36.8672 61.9581C36.7243 61.9182 36.5914 61.8453 36.4779 61.7445C36.1749 61.5424 35.8253 61.4341 35.4681 61.4318C35.1109 61.4294 34.7601 61.5331 34.4548 61.7312C33.9622 61.8577 33.4529 61.8923 32.9493 61.8336C32.4261 61.8909 31.8987 61.8874 31.3762 61.8232C30.6909 61.5305 29.9777 61.3187 29.2493 61.1913C28.5845 61.2214 27.9531 61.9475 27.2817 62C26.7482 61.933 26.2363 61.7357 25.7856 61.4234Z" fill="#FF9500"/>
<path id="Vector_5" d="M21.7303 51.279L23.2686 50C23.6154 50.3676 23.9336 50.7047 24.2522 51.0411C24.3674 51.0191 24.5197 51.0587 24.5914 50.9679C25.9414 49.2605 27.4333 50.6343 28.8553 50.5597C29.4216 50.6129 29.9896 50.6203 30.5565 50.5819C31.9926 50.2661 32.1832 50.5495 31.8722 53C30.4326 51.428 28.7643 52.0532 27.193 51.9824C26.1491 51.8872 25.1023 52.0835 24.1108 52.5602C23.0939 52.7961 22.0562 52.7816 21.0427 52.5172C20.3575 52.4946 19.6709 52.4898 18.9862 52.5258C18.4437 52.5544 18.0052 52.3392 18.0001 51.4872C17.9945 50.5685 18.3512 50.106 19.0367 50.3307C19.3117 50.4209 19.698 50.6637 19.8559 50.4955C20.6972 49.5991 21.1225 50.6946 21.7303 51.279Z" fill="#FF9500"/>
<path id="Vector_6" d="M29 75.9086C28.8971 76.0516 28.847 76.2086 28.7644 76.2232C27.3236 76.4773 25.8887 76.8 24.432 76.93C23.0238 77.0555 21.5921 76.9685 20.1712 76.9946C19.3543 77.0095 18.8327 76.8255 19.0491 75.9103C21.1532 75.8526 23.2002 75.8055 25.2458 75.7304C25.5627 75.7323 25.872 75.6452 26.1287 75.4818C27.3374 74.5192 28.1537 75.1769 29 75.9086Z" fill="#FF9500"/>
<path id="Vector_7" d="M34 75.6562C35.0814 75.4626 36.2516 74.8333 37.0384 75.2099C38.2377 75.7839 39.3059 74.4149 40.3604 75.3174C41.165 76.0061 42.5614 75.473 43 77C41.8949 75.8906 40.4873 76.6285 39.2093 76.1046C38.1022 75.6509 36.6263 76.2404 35.3308 76.4847C34.6135 76.6199 34.1197 76.6353 34 75.6562Z" fill="#FF9500"/>
<path id="Vector_8" d="M44 55C42.6353 53.8707 41.0279 54.7172 40 52.5975C40.0244 52.4661 40.0442 52.205 40.0781 52.1999C40.4793 52.1394 41.0901 51.8243 41.2498 52.1346C41.9918 53.5766 43.8319 51.5034 44 55Z" fill="#FF9500"/>
<path id="Vector_9" d="M26.7379 87.9878C25.557 87.7952 26.1434 87.0888 26.1609 86.6706C26.1856 86.0804 26.9839 86.0131 27.6653 86C28.6365 87.0215 27.2367 87.3956 26.7174 88L26.7379 87.9878Z" fill="#FF9500"/>
<path id="Vector_10" d="M26.3389 88.0175L29 88.701L28.4543 89.9541L28.4768 89.9277C27.4339 90.2471 26.8144 89.436 26 88.9091C26.1388 88.5569 26.2486 88.2785 26.3584 88L26.3389 88.0175Z" fill="#FF9500"/>
<path id="Vector_11" d="M46 72C46.5171 71.2236 46.7382 70.077 48 70C47.8747 71.416 46.7282 71.4828 46 72Z" fill="#FF9500"/>
<path id="Vector_12" d="M46 67C46.9022 66.3249 47.0156 64.8306 49 65.0158C48.5216 66.3043 47.0318 66.4478 46 67Z" fill="#FF9500"/>
<path id="Vector_13" d="M34 52.587C34.974 52.2012 35.6142 51.8017 36.7659 52.1095C36.9128 52.2113 36.9931 52.3263 36.9996 52.4439C37.006 52.5614 36.9384 52.6777 36.8028 52.782C35.9028 53.2211 35.0891 52.9139 34 52.587Z" fill="#FF9500"/>
<path id="Vector_14" d="M49 63C48.67 64.3948 47.5337 64.5693 46 65C47.0265 64.0068 47.541 63.1427 49 63Z" fill="#FF9500"/>
<path id="Vector_15" d="M49 45.4179L46 47C46.2063 46.497 46.5622 46.0482 47.0329 45.6977C47.5036 45.3471 48.073 45.1067 48.6854 45L49 45.4179Z" fill="#FF9500"/>
<path id="Vector_16" d="M29 90.0276H31C29.7108 91.3348 29.6091 91.3225 29.0244 90L29 90.0276Z" fill="#FF9500"/>
<path id="Vector_17" d="M49 87.2878L48.0003 88C47.9874 87.3235 48.3931 87.1695 48.7859 87L49 87.2878Z" fill="#FF9500"/>
<path id="Vector_18" d="M47 82C47.5707 80.5242 47.952 79.7087 49 80.0959C48.8287 81.5783 48.2338 81.9124 47 82Z" fill="#FF9500"/>
<path id="Vector_19" d="M22 34L24 33C23.6219 33.72 23.6219 33.72 22 34Z" fill="#FF9500"/>
<path id="Vector_20" d="M48 76.542L47.2514 78L47 77.6472L47.6355 76L48 76.542Z" fill="#FF9500"/>
<path id="Vector_21" d="M56.6245 60C56.4779 59.914 56.35 59.7993 56.2488 59.6628C56.1475 59.5264 56.0748 59.3709 56.035 59.2057C55.9953 59.0406 55.9893 58.8691 56.0174 58.7016C56.0455 58.5341 56.1072 58.3739 56.1987 58.2307C57.0341 55.8925 57.8322 53.5386 58.7563 51.2353C59.1263 50.3479 59.2444 49.3759 59.0975 48.4259C58.3331 43.9623 59.0869 39.3717 61.2389 35.3856C62.734 32.9758 64.3504 30.6432 66.0819 28.3968C66.235 28.1325 66.471 27.9261 66.7535 27.8094C68.2239 27.4925 68.7373 26.1618 69.6705 25.2563C71.4596 23.5204 72.2725 21.2087 73.6122 19.2164C74.163 18.3972 74.5197 17.324 75.8798 17.4192C76.1227 17.4361 76.4694 16.8795 76.6646 16.5301C78.9777 12.59 82.2831 9.32292 86.2523 7.05346C86.3838 6.97292 86.5914 7.01629 86.7859 7C86.8671 7.18729 87.043 7.41348 86.9903 7.49847C86.203 8.77003 86.5524 10.2142 86.3182 11.5644C86.0507 13.1063 85.6214 14.6219 85.2232 16.1387C84.9932 17.0149 84.6859 17.8708 84.3872 18.8186L85.5534 19.8469C85.4631 21.4244 84.0689 22.0529 83.3536 23.0647C84.1111 24.7184 84.0929 24.696 82.7641 25.7724C81.9188 26.3648 81.1579 27.0691 80.5023 27.866C79.3061 29.5715 78.3039 31.4048 77.5142 33.3318C76.785 35.1042 75.7153 36.7169 74.3654 38.0788C73.7458 38.7261 72.6216 39.1843 73.4576 40.4451C73.5595 40.5987 73.2614 41.1207 73.0355 41.3694C72.0579 42.4453 71.0611 43.5062 70.0274 44.5282C68.9921 45.5519 67.9458 46.5728 66.8238 47.4976C66.1566 48.0083 65.4277 48.4331 64.6542 48.7619C63.2988 49.3915 62.2394 50.5794 60.6059 50.7392C60.2056 50.7783 59.7557 51.5723 59.5499 52.1046C58.8297 53.967 58.216 55.8703 57.5408 57.7506C57.2877 58.4557 56.977 59.1402 56.6245 60ZM81.5662 12.2398C78.6337 14.0483 77.438 17.2248 75.9358 20.357L74.7084 19.3352C73.7323 20.4522 72.9971 21.758 72.5489 23.1712C72.3254 23.6551 72.1843 24.2931 71.7973 24.5646C70.5095 25.5812 69.4321 26.8382 68.6249 28.2656C68.4128 28.5897 68.0262 28.9985 67.7031 29.0137C66.8264 29.055 66.4639 29.6715 65.9784 30.2032C64.8722 31.4182 64.0274 32.8469 63.4962 34.4009C63.2713 34.8772 62.9837 35.3214 62.6409 35.7216C62.0727 36.3197 61.5998 37.0012 61.2386 37.7425C60.6492 39.714 60.201 41.7248 59.8976 43.7598C59.8478 44.935 59.9221 46.1122 60.1193 47.2718C60.5153 47.1249 60.8467 46.8433 61.0554 46.4765C62.0212 44.8644 62.8563 43.1586 63.9586 41.6466C67.6697 36.5557 71.4514 31.5155 75.2527 26.491C77.4087 23.6411 79.8706 21.0136 81.3702 17.7039C81.8697 16.6016 82.4774 15.5464 83.0704 14.4892C83.2623 14.2257 83.4855 13.9864 83.735 13.7765C83.819 13.91 83.8697 14.0617 83.8829 14.2188C83.896 14.3759 83.8712 14.5338 83.8106 14.6794C83.3113 15.7823 82.8377 16.9022 82.2549 17.9611C81.4865 19.4676 80.6159 20.9199 79.6493 22.3079C77.0054 25.8569 74.2045 29.2891 71.5511 32.8311C68.3564 36.8021 65.4656 41.0075 62.9031 45.4118C62.2055 46.7113 61.6032 48.062 60.8488 49.6119C65.2548 47.8405 69.085 44.8879 71.9166 41.0802L68.9528 41.8694C68.888 40.0767 68.8896 40.0333 70.5174 40.093C71.2886 40.1213 71.5692 39.7813 71.7627 39.13L70.4307 38.9383C71.4328 37.8202 71.4342 37.8318 72.4448 37.7091C72.8507 37.6599 73.3637 37.6775 73.6313 37.4419C75.0075 36.2308 76.2769 34.9254 76.0383 32.8427L74.9352 32.6389C75.3056 31.6024 75.7985 30.6138 76.4036 29.694C77.2267 28.9041 78.1352 28.2081 79.1125 27.6189L78.4852 27.12C78.5149 26.5392 78.698 25.9766 79.016 25.4894C79.334 25.0021 79.7755 24.6076 80.2956 24.346C80.453 24.2692 80.5912 24.1585 80.7005 24.0218C80.8097 23.8852 80.8871 23.7259 80.9271 23.5557C80.946 22.7515 81.4097 22.5651 82.0586 22.3988C82.5847 22.2762 83.0597 21.9936 83.4181 21.59C83.7766 21.1865 84.0008 20.6818 84.0598 20.1456L82.1331 20.8173C83.1478 19.607 83.8594 18.173 84.2091 16.6338C84.4503 15.1289 85.4567 13.7338 85.0137 12.2399L81.5662 12.2398ZM82.0354 25.1673L81.8259 24.7418L80.5237 25.3544L80.7348 25.7862L82.0354 25.1673Z" fill="#FF9500"/>
<path id="Vector_22" d="M68 42.4179C67.5614 43.4477 66.8155 43.6178 66.1454 44L66 43.6191L67.8041 42L68 42.4179Z" fill="#FF9500"/>
<path id="Vector_23" d="M75 35.385L73 36C73.1853 35.2853 73.696 34.903 74.7437 35.0212L75 35.385Z" fill="#FF9500"/>
</g>
</svg>
