<svg width="60" height="60" viewBox="0 0 60 60" fill="none" xmlns="http://www.w3.org/2000/svg">
<path d="M28.444 41.2826C27.1356 41.2885 25.8422 41.0037 24.6573 40.4486L5.9043 31.7933V42.2968C5.90596 43.1698 6.16006 44.0237 6.63596 44.7555C7.11187 45.4874 7.78927 46.066 8.58652 46.4216L26.6183 54.4232C27.1899 54.6904 27.8131 54.8288 28.444 54.8288C29.0749 54.8288 29.6982 54.6904 30.2697 54.4232L48.3015 46.4216C49.0988 46.066 49.7762 45.4874 50.2521 44.7555C50.728 44.0237 50.9821 43.1698 50.9837 42.2968V31.7933L32.2307 40.4486C31.0431 40.9955 29.7515 41.28 28.444 41.2826Z" fill="white"/>
<path d="M57.5477 17.9043L30.3355 6.089C29.7434 5.81391 29.0984 5.67139 28.4455 5.67139C27.7926 5.67139 27.1476 5.81391 26.5556 6.089L2.82349 17.0388C2.09724 17.352 1.46179 17.8434 0.97598 18.4675C0.490173 19.0916 0.169732 19.8282 0.0443402 20.6091C-0.0913862 21.5668 0.0864154 22.5427 0.551177 23.3909C1.01594 24.2392 1.74271 24.9143 2.62288 25.3154L26.5465 36.3598C27.1387 36.6331 27.7832 36.7746 28.4354 36.7746C29.0876 36.7746 29.732 36.6331 30.3242 36.3598L55.4921 24.7451V34.746C55.4921 35.3438 55.7295 35.9171 56.1522 36.3398C56.5749 36.7625 57.1482 37 57.746 37C58.3438 37 58.9171 36.7625 59.3398 36.3398C59.7625 35.9171 60 35.3438 60 34.746V21.6414C60.0001 20.8472 59.768 20.0704 59.3323 19.4064C58.8966 18.7424 58.2763 18.2203 57.5477 17.9043Z" fill="white"/>
</svg>
