<svg width="100" height="100" viewBox="0 0 100 100" fill="none" xmlns="http://www.w3.org/2000/svg">
<g id="noun-floral-ornament-3002218 1">
<path id="Vector" d="M84.6776 15.6519C84.9841 15.954 85.3826 16.1451 85.8101 16.1949C86.4154 16.3573 86.9514 16.7124 87.3371 17.2063C88.7506 19.457 90.967 19.9755 93.3635 20.1583C94.3028 20.23 94.8158 20.6362 94.8566 21.3908C94.8892 21.9939 94.3934 22.5372 93.6056 22.7618C92.3514 23.1193 91.6231 22.7438 91.2873 21.5007C91.1888 21.1362 91.1294 20.7972 90.7545 20.6271C89.7856 20.1876 88.815 19.7516 87.7102 19.2533C87.616 20.7879 87.6192 22.3269 87.7196 23.8612C87.7361 24.4547 88.2519 24.781 88.6593 25.0175C90.4878 26.0788 91.2533 27.8865 92.0764 29.6634C92.6171 30.8305 92.8568 32.1177 93.5151 33.2426C93.7198 33.5924 93.8785 34.0415 93.4681 34.366C93.3116 34.4648 93.1266 34.5086 92.9425 34.4904C92.7583 34.4722 92.5854 34.3931 92.4513 34.2656C90.9993 33.1481 89.224 32.3917 88.3215 30.6441C88.2601 30.5251 88.1166 30.4486 87.836 30.1922C87.8115 30.9481 87.7742 31.5355 87.777 32.1226C87.785 33.7733 87.8179 35.4239 87.8251 37.0746C87.8317 38.5856 88.2574 39.29 89.6429 39.7553C90.4809 40.1498 91.3526 40.4685 92.2475 40.7074C92.5929 40.8125 92.9199 40.9709 93.2164 41.1769C93.5268 41.3133 93.7838 41.5479 93.9478 41.8446C94.1118 42.1414 94.1737 42.4838 94.1241 42.8191C94.0453 43.4339 93.4196 43.3168 93.0006 43.4276C92.2499 43.6261 91.4892 43.3732 91.3756 42.6493C91.0697 40.7008 89.4642 40.6218 88.1392 40.0777C87.8604 40.468 87.7359 40.9476 87.7896 41.4242C87.7544 43.0227 87.762 44.6222 87.753 46.2212C87.7215 46.5682 87.8107 46.9153 88.0054 47.2041C88.2002 47.493 88.4886 47.7058 88.822 47.8067C89.6694 48.2449 90.4001 48.8788 90.9534 49.656C91.5068 50.4331 91.8668 51.331 92.0037 52.2752C92.1876 53.1798 92.0103 54.1261 92.2511 55.0365C92.305 55.1859 92.298 55.3505 92.2317 55.4948C92.1653 55.6392 92.045 55.7517 91.8965 55.8081C91.6319 55.885 91.4943 55.5883 91.3732 55.3454C90.6255 53.8452 89.0587 53.2379 87.888 51.9903C87.6674 52.6712 87.5996 53.3924 87.6893 54.1025C87.6351 55.7508 87.6256 57.4009 87.5542 59.0483C87.5065 60.1493 87.6389 61.1062 88.8284 61.5823C89.1066 61.721 89.3569 61.9096 89.5668 62.1387C90.4904 63.0174 91.4606 63.5016 92.7485 62.826C93.2922 62.5407 93.7457 62.8481 93.969 63.4162C94.0866 63.7038 94.0913 64.0251 93.9822 64.316C93.8731 64.6069 93.6583 64.8459 93.3806 64.9852C92.9495 65.1589 92.4748 65.1936 92.023 65.0845C91.5711 64.9753 91.1646 64.7279 90.8602 64.3765C89.8879 63.4256 88.7959 62.6054 87.6116 61.9367L87.7431 68.4329C88.359 68.4104 88.9751 68.4687 89.5758 68.6065C91.5067 69.3298 92.0791 70.91 92.3361 72.7086C92.3379 73.2741 92.4763 73.8309 92.7395 74.3315C92.9153 74.5872 93.076 74.915 92.7261 75.1407C92.357 75.3787 91.7099 75.4403 91.6249 75.0757C91.3674 73.9712 90.4658 73.9608 89.7123 73.8285C88.8489 73.7183 88.0563 73.2942 87.4854 72.6372C87.4781 74.8128 87.4912 76.6407 87.4524 78.4675C87.4424 78.9356 87.7526 79.7915 87.1461 79.7888C86.4184 79.7854 86.6903 78.8762 86.7118 78.396C86.7901 76.6446 86.862 74.8949 86.8032 73.1423C86.7919 72.8043 86.9286 72.4246 86.5762 72.102C86.1028 72.2816 85.7078 72.6223 85.4606 73.0643C85.2134 73.5062 85.1299 74.0211 85.2246 74.5185C85.3375 75.6948 84.8824 76.2143 84.0239 76.3724C83.5607 76.4246 83.0937 76.3143 82.7029 76.0601C82.312 75.806 82.0217 75.424 81.8815 74.9793C81.6725 74.2913 81.6585 73.673 82.491 73.3146C83.1274 73.0405 83.7355 72.7041 84.3754 72.4363C84.9649 72.2566 85.4973 71.9263 85.9201 71.478C86.3429 71.0297 86.6415 70.4789 86.7864 69.8799C86.8816 69.3205 86.9309 68.7542 86.9337 68.1868C86.9358 66.9627 86.8924 65.7385 86.8679 64.5285C86.3828 64.4335 86.2472 64.7922 86.1149 65.0181C85.3092 66.3939 83.7028 66.7412 82.6336 67.7725C82.5369 67.8333 82.4227 67.86 82.3091 67.8483C82.1956 67.8367 82.0891 67.7874 82.0069 67.7082C81.9246 67.6291 81.8711 67.5246 81.8551 67.4116C81.839 67.2986 81.8613 67.1834 81.9182 67.0845C82.4253 66.3065 82.6895 65.3952 82.677 64.4666C82.9578 62.5269 84.3262 61.5881 86.0431 61.0701C86.5646 60.9127 86.853 60.7207 86.8672 60.1546C86.9525 56.7642 87.0508 53.374 87.1424 50.0649C86.7278 49.809 86.4965 49.9473 86.3369 50.1497C85.4048 51.1069 84.6945 52.2573 84.2562 53.5194C84.1231 53.9409 83.8307 54.2938 83.4413 54.5029C83.052 54.7121 82.5963 54.761 82.1714 54.6392C81.7843 54.583 81.4323 54.3838 81.1849 54.0808C80.9374 53.7778 80.8125 53.3931 80.8348 53.0025C80.8281 52.7925 80.8686 52.5836 80.9536 52.3914C81.0385 52.1991 81.1656 52.0285 81.3255 51.8921C81.4853 51.7556 81.6738 51.6569 81.877 51.6033C82.0802 51.5496 82.2929 51.5423 82.4993 51.582C84.0253 51.8233 84.5726 50.7529 85.5137 50.0108C87.2364 48.6526 87.2448 46.8916 87.195 45.0364C87.2484 44.3662 87.1958 43.6917 87.039 43.0379C86.5274 42.9939 86.5262 43.4577 86.3424 43.7197C85.8707 44.3932 85.2503 44.949 84.5292 45.3442C83.8081 45.7393 83.0057 45.9631 82.1842 45.9983C81.8758 46.0251 81.5494 46.083 81.3953 45.7176C81.3413 45.5984 81.3261 45.4653 81.3517 45.3369C81.3774 45.2086 81.4427 45.0916 81.5384 45.0024C82.2058 44.2782 82.5634 43.3217 82.5346 42.3373C82.69 41.4233 83.1069 40.5739 83.7351 39.8921C84.3633 39.2102 85.1756 38.7251 86.0738 38.4955C87.2251 38.2462 87.2486 38.2458 87.2309 37.1561C87.18 34.0191 87.1084 30.8823 87.0397 27.4891C86.5377 27.7784 86.1025 28.1705 85.7626 28.6398C85.4228 29.1091 85.1859 29.6449 85.0676 30.2121C84.9355 30.7035 84.7772 31.1875 84.5936 31.6621C84.4279 32.0401 84.1546 32.361 83.8077 32.5846C83.4608 32.8082 83.0557 32.9247 82.643 32.9196C82.3581 32.9016 82.0825 32.8108 81.8427 32.6559C81.6028 32.5011 81.4066 32.2873 81.2729 32.035C81.1205 31.7611 81.0555 31.4471 81.0868 31.1351C81.118 30.8232 81.244 30.5283 81.4477 30.29C81.6927 29.9223 82.0406 29.6348 82.4479 29.4635C82.8552 29.2922 83.304 29.2447 83.7382 29.3269C83.9473 29.4104 84.1809 29.4078 84.3882 29.3197C84.5954 29.2316 84.7593 29.0651 84.8443 28.8565C85.3241 27.9416 85.9699 27.1238 86.7486 26.4448C86.8516 26.3645 86.9342 26.261 86.9895 26.1427C87.0449 26.0244 87.0714 25.8947 87.067 25.7642C87.137 24.4946 87.0646 23.2212 86.8512 21.9677C86.0469 23.4249 84.8034 24.5913 83.2978 25.3008C83.2522 25.3235 83.2164 25.3655 83.1712 25.3894C82.7912 25.591 82.8314 26.4231 82.1941 26.1651C81.5126 25.8892 81.7274 25.1798 81.7484 24.6537C81.7868 23.4414 82.1401 22.26 82.7736 21.2257C83.4071 20.1914 84.299 19.3398 85.3615 18.7547C85.4921 18.6738 85.6451 18.6292 85.7766 18.5494C86.1081 18.3484 86.6536 18.294 86.5279 17.7282C86.4867 17.4692 86.354 17.2336 86.154 17.064C85.9539 16.8944 85.6997 16.8022 85.4374 16.804C83.6587 16.752 81.8711 16.1281 80.1006 16.8839C79.9132 16.9681 79.7027 16.9853 79.5042 16.9326C77.5554 16.2203 75.5181 16.7477 73.538 16.4914C73.1439 16.4404 72.6966 16.3606 72.3765 16.8796C72.8262 17.2893 73.1809 17.7924 73.4157 18.3536C73.6505 18.9148 73.7597 19.5206 73.7356 20.1285C73.8502 20.7336 74.017 21.3277 74.2341 21.904C74.3434 22.4051 73.9765 22.7076 73.5038 22.4904C72.2283 21.9389 70.9813 21.3237 69.7674 20.6471C69.3552 20.3717 69.0339 19.9802 68.8442 19.5222C68.6544 19.0641 68.6047 18.5601 68.7014 18.0739C68.8246 16.4905 68.8139 16.4975 67.2044 16.4897C65.7607 16.4828 64.3172 16.4422 62.8736 16.4435C61.9846 16.4443 61.7919 16.7453 62.3605 17.4427C62.9984 18.2252 63.2149 19.4601 64.6262 19.5149C65.1917 19.5369 65.4414 20.5435 65.1765 21.2369C65.1346 21.3733 65.0642 21.4993 64.97 21.6066C64.8758 21.7139 64.76 21.8001 64.6301 21.8594C64.5003 21.9187 64.3593 21.9498 64.2166 21.9507C64.0738 21.9516 63.9325 21.9222 63.8019 21.8646C62.6383 21.5697 62.3309 21.1037 62.486 19.7769C62.5099 19.678 62.5257 19.5773 62.5332 19.4758C62.4886 18.6489 60.5672 16.4902 59.6953 16.4766C57.6047 16.3833 55.5104 16.4091 53.4227 16.554C53.4042 17.1563 53.8509 17.3263 54.1121 17.6091C54.6623 18.0869 55.0133 18.7538 55.0956 19.4779C55.1648 20.0451 55.4368 20.5682 55.8614 20.9506C56.2152 21.3502 56.7027 21.681 56.8029 22.2403C56.6899 22.3292 56.6299 22.3976 56.6116 22.3878C55.2423 21.6543 53.6464 21.6261 52.2535 21.0442C51.4348 20.785 50.7041 20.3039 50.1423 19.6545C49.5806 19.005 49.2098 18.2126 49.0713 17.3652C49.0107 16.9132 48.8782 16.5597 48.3395 16.5554C45.8989 16.391 43.4488 16.4369 41.0161 16.6927C41.8402 17.716 42.8646 18.5604 44.0264 19.1741C44.2972 19.3227 44.5849 19.4406 44.8651 19.572C45.477 19.8589 46.159 20.108 46.0287 20.9829C45.9273 21.6639 45.1964 22.0074 44.1542 21.9451C43.6401 21.8905 43.1443 21.7238 42.7016 21.4566C41.9856 21.0764 41.5568 20.5144 41.8753 19.6933C41.9754 19.4563 41.9873 19.1912 41.9088 18.9461C41.8303 18.701 41.6666 18.4921 41.4473 18.3574C40.8881 17.7516 40.204 17.2744 39.4423 16.9588C38.6806 16.6432 37.8595 16.4967 37.0356 16.5295C35.2918 16.6674 33.5298 16.5664 31.7762 16.5946C31.373 16.5482 30.9647 16.6041 30.5887 16.757C30.694 17.3443 31.1731 17.526 31.4795 17.8308C31.9868 18.2747 32.375 18.8386 32.6085 19.471C32.8276 20.3731 33.2052 21.229 33.7238 21.999C33.8457 22.137 33.9136 22.3143 33.915 22.4984C33.9165 22.6825 33.8514 22.861 33.7317 23.0009C33.4784 23.3069 33.1886 23.1233 32.892 23.0357C31.9575 22.7597 30.9998 22.5558 30.0783 22.2438C29.0819 21.9473 28.1988 21.3559 27.5452 20.5475C26.8916 19.7391 26.4983 18.7516 26.4171 17.7153C26.3202 16.9408 26.1076 16.5905 25.2861 16.6756C23.715 16.8384 22.1405 16.6329 20.5481 16.75C19.0758 16.8582 17.5021 16.5818 15.966 16.5585C15.678 16.5541 15.3321 16.4047 15.3666 16.0022C15.3983 15.6334 15.7248 15.7091 15.9614 15.7048C16.8898 15.6881 17.8187 15.6948 18.7471 15.6757C19.0818 15.7074 19.4158 15.6073 19.6781 15.3969C19.9403 15.1864 20.1103 14.882 20.1519 14.5483C20.3421 13.7447 20.7063 12.9925 21.2188 12.3448C21.7313 11.6971 22.3796 11.1697 23.118 10.7997C24.2466 10.1838 25.3891 9.61133 26.5515 9.07032C26.9295 8.89432 27.3297 8.68156 27.674 9.0926C27.9436 9.41449 27.7887 9.74475 27.6389 10.0978C26.9013 12.0824 25.6982 13.8609 24.1307 15.2841C24.07 15.3352 24.0771 15.4667 23.9972 15.7736C25.1968 15.7756 26.3513 15.7836 27.5055 15.7714C27.5817 15.7698 27.6569 15.7532 27.7267 15.7225C27.7965 15.6917 27.8595 15.6475 27.9121 15.5924C28.6144 14.9119 29.3773 14.297 30.1914 13.7551C30.8555 13.149 31.6777 12.7072 31.3106 11.505C31.1282 10.9077 31.8726 10.174 32.4569 10.0766C32.8643 10.0137 33.2811 10.0903 33.6396 10.294C33.9981 10.4977 34.2772 10.8165 34.4318 11.1987C34.5309 11.5482 34.5056 11.9213 34.3602 12.2541C34.2148 12.587 33.9583 12.8591 33.6346 13.0239C33.5075 13.1134 33.3603 13.1701 33.206 13.1889C31.4035 13.0666 30.5863 14.5796 29.3815 15.376C29.4472 15.8063 29.7058 15.8244 29.9671 15.8251C32.5393 15.8316 35.1116 15.8365 37.6838 15.8397C38.0448 15.8401 38.4084 15.7927 38.7664 15.8219C39.5486 15.8857 39.898 15.4706 40.0204 14.7675C40.1352 13.682 40.6172 12.6682 41.3865 11.8938C42.1558 11.1195 43.1665 10.6309 44.2512 10.509C44.9727 10.3796 45.8197 10.3581 46.2729 9.57314C46.4088 9.33791 46.6008 9.12578 46.8833 9.29731C46.9948 9.36788 47.0762 9.47718 47.1119 9.60417C47.1477 9.73117 47.1352 9.86689 47.0769 9.98523C46.6791 10.9314 46.2165 11.8491 45.6924 12.7316C45.1999 13.6616 44.5903 14.5247 43.8784 15.2997C43.9972 15.8333 44.3675 15.7392 44.6455 15.7441C46.0889 15.7696 47.533 15.7568 48.9762 15.7863C49.2079 15.7967 49.4385 15.7497 49.6478 15.6497C49.857 15.5496 50.0383 15.3995 50.1756 15.2127C50.9157 14.2828 51.7942 13.4722 52.7805 12.8091C52.8863 12.7644 52.9806 12.6962 53.0562 12.6098C53.1319 12.5234 53.187 12.421 53.2174 12.3102C53.2478 12.1995 53.2527 12.0832 53.2317 11.9703C53.2107 11.8574 53.1645 11.7507 53.0963 11.6582C52.9977 11.4193 52.9615 11.1592 52.9911 10.9025C53.0243 10.2593 53.4321 9.93695 54.0188 10.1343C54.7144 10.3507 55.3212 10.7866 55.7483 11.3768C55.9068 11.585 56.0006 11.8352 56.0183 12.0962C56.0359 12.3573 55.9766 12.6178 55.8476 12.8455C55.7231 13.077 55.5203 13.2566 55.2755 13.3522C55.0306 13.4478 54.7598 13.4532 54.5113 13.3674C54.3279 13.2753 54.1229 13.2349 53.9183 13.2506C53.7137 13.2662 53.5172 13.3373 53.3499 13.4562C52.5984 13.9053 51.9243 14.4726 51.3534 15.1364C51.1269 15.4958 51.4145 15.7145 51.7838 15.704C52.97 15.6701 54.1519 15.7083 55.3378 15.7613C56.7786 15.8257 58.2257 15.7776 59.6691 15.7413C61.1024 15.7053 61.2649 15.5455 61.7129 14.1844C62.0352 13.2572 62.5102 12.3904 63.1183 11.6198C63.7941 10.9704 64.6892 10.5986 65.6263 10.5779C66.5507 10.3969 67.625 10.639 68.1634 9.51286C68.264 9.30254 68.5539 9.36903 68.7082 9.50642C68.8128 9.58496 68.8882 9.69614 68.9225 9.82236C68.9568 9.94857 68.948 10.0826 68.8975 10.2033C68.1625 11.8559 67.4149 13.4973 65.805 14.5312C65.2801 14.7458 64.8279 15.1068 64.5023 15.5711C66.0079 15.7468 67.5233 15.8253 69.039 15.806C69.6987 15.6907 70.3123 15.391 70.8087 14.9414C71.3547 14.4702 71.8661 13.9603 72.3388 13.4155C72.7283 12.9995 72.9447 12.4508 72.944 11.881C72.9373 11.6893 72.9692 11.4982 73.038 11.3191C73.1067 11.1401 73.2109 10.9767 73.3442 10.8388C73.4775 10.7008 73.6372 10.5912 73.8138 10.5164C73.9904 10.4415 74.1803 10.4031 74.3721 10.4032C74.7351 10.3993 75.0896 10.5137 75.3818 10.7291C75.6741 10.9445 75.8883 11.2492 75.9921 11.5971C76.0881 11.9503 76.0494 12.3266 75.8835 12.6529C75.7175 12.9792 75.4362 13.2321 75.0942 13.3625C74.7335 13.5667 74.3194 13.6568 73.9065 13.621C73.6017 13.6031 73.2333 13.4984 73.0208 13.7529C72.5676 14.296 71.7376 14.8415 71.8803 15.4773C72.0279 16.1347 72.9542 15.7547 73.5261 15.7688C75.3301 15.8132 77.136 15.7735 78.9412 15.7807C79.2194 15.8218 79.5032 15.7639 79.7432 15.6172C79.9832 15.4705 80.164 15.2443 80.2543 14.9779C80.6222 13.9521 81.2837 13.0571 82.1564 12.4043C83.0291 11.7515 84.0744 11.3698 85.1624 11.3066C85.9874 11.3289 86.8089 11.1929 87.5826 10.9058C87.6506 10.8663 87.7266 10.8424 87.8051 10.836C87.8835 10.8295 87.9624 10.8407 88.036 10.8685C88.1095 10.8964 88.176 10.9404 88.2304 10.9972C88.2849 11.054 88.326 11.1222 88.3508 11.1969C88.5088 11.5952 88.2462 11.7854 87.9218 11.8455C87.5936 11.9236 87.2931 12.0906 87.0535 12.3281C86.8138 12.5657 86.6441 12.8646 86.563 13.1922C86.1288 14.1442 85.4841 14.9852 84.6776 15.6519ZM32.3103 21.8941C32.1017 21.0737 31.8089 20.2769 31.4367 19.5166C31.1405 18.9452 30.7137 18.4518 30.1908 18.0766C29.668 17.7013 29.064 17.4547 28.4279 17.357C27.4109 17.2524 27.0659 17.7362 27.5017 18.6291C27.9109 19.5734 28.5803 20.3818 29.4318 20.96C30.2832 21.5381 31.2816 21.8621 32.3103 21.8941ZM21.4997 15.2773C21.5506 15.2714 21.6015 15.2664 21.6522 15.2593C23.1217 15.054 26.1307 12.285 26.4371 10.8093C26.5623 10.2061 26.0875 10.2596 25.7544 10.3766C24.4864 10.7908 23.329 11.4878 22.3699 12.415C21.7116 12.9944 21.23 13.7477 20.9802 14.5883C20.8837 14.9981 20.9838 15.3065 21.4997 15.2773ZM82.8736 44.8942C83.3719 44.8407 83.8539 44.6857 84.29 44.4386C84.7261 44.1916 85.1068 43.8578 85.4089 43.4579C85.9858 42.431 86.4915 41.3657 86.9223 40.2695C87.1673 39.6892 86.8021 39.2821 86.1511 39.3366C85.5372 39.428 84.9762 39.7357 84.5692 40.2042C83.2721 41.4484 83.2787 43.135 82.8736 44.8942ZM88.3966 26.0299C88.0104 29.6453 89.0811 31.148 92.2939 32.7822C91.4922 30.1936 90.8095 27.7781 88.3966 26.0299ZM41.2671 15.4829C41.5047 15.418 41.7365 15.3337 41.9602 15.231C43.1051 14.7388 44.0388 13.8571 44.5957 12.7422C44.7985 12.2507 45.5318 11.7806 45.1015 11.2711C44.6705 10.7608 44.0498 11.3784 43.5435 11.5192C42.82 11.7262 42.1753 12.1459 41.693 12.7237C41.2108 13.3016 40.9133 14.0109 40.839 14.7599C40.8103 14.8354 40.799 14.9163 40.8059 14.9968C40.8128 15.0772 40.8377 15.1551 40.8789 15.2246C40.92 15.2941 40.9763 15.3534 41.0435 15.3981C41.1108 15.4428 41.1872 15.4718 41.2671 15.4829ZM81.1278 15.5049C83.6679 15.7977 85.1182 14.7792 85.7088 12.2877C83.2204 12.1803 81.7537 13.2103 81.1278 15.5049ZM91.3302 73.0619C91.4069 72.3033 91.2317 71.5406 90.8316 70.8915C90.4316 70.2424 89.829 69.7431 89.1169 69.4706C88.9246 69.3933 88.7144 69.3723 88.5107 69.4098C88.307 69.4473 88.1181 69.542 87.966 69.6827C87.4996 70.0015 87.9207 70.3288 87.9716 70.6411C87.9862 70.9891 88.0719 71.3305 88.2234 71.6441C88.3749 71.9578 88.589 72.2371 88.8525 72.4649C89.116 72.6928 89.4234 72.8642 89.7556 72.9688C90.0879 73.0734 90.438 73.1088 90.7845 73.073C90.9355 73.0701 91.0863 73.0668 91.3302 73.0619ZM54.1422 20.5005C54.1274 19.6256 53.7973 18.7854 53.2128 18.1342C52.6282 17.483 51.8284 17.0646 50.9601 16.9558C50.8331 16.9369 50.7035 16.9505 50.5832 16.9952C50.4629 17.04 50.3559 17.1145 50.2722 17.2118C50.1544 17.3519 50.0919 17.5303 50.0966 17.7133C50.1013 17.8963 50.1729 18.0713 50.2977 18.2052C51.2443 19.4312 52.2842 20.5262 54.1422 20.5005ZM62.5743 14.6405C62.6641 14.7334 62.7808 14.7957 62.908 14.8187C63.0352 14.8416 63.1664 14.8239 63.2829 14.7682C64.7183 14.1965 65.9909 13.2802 66.9883 12.1002C67.1591 11.9039 67.3416 11.6856 67.1713 11.4219C67.009 11.1703 66.7202 11.2548 66.4725 11.2552C64.3615 11.2588 63.3604 12.1286 62.5743 14.6405ZM82.8002 24.5605C84.7186 23.2417 86.488 22.0629 86.3123 19.4821C84.2517 19.925 82.8124 22.3702 82.8002 24.5605ZM72.5684 21.0231C72.9428 18.9033 72.6602 18.1787 71.217 17.5806C70.8147 17.4139 70.3584 17.0509 69.939 17.434C69.7699 17.6285 69.6536 17.8632 69.6014 18.1156C69.5491 18.3679 69.5626 18.6295 69.6405 18.8751C69.664 19.1059 69.7427 19.3276 69.8698 19.5217C69.9969 19.7157 70.1688 19.8763 70.3709 19.99C71.0651 20.4106 71.8017 20.7569 72.5684 21.0231ZM91.1663 53.1781C91.139 52.2942 90.8855 51.432 90.43 50.674C89.9744 49.916 89.3321 49.2875 88.5644 48.8485C87.954 51.0318 88.7108 52.1284 91.1663 53.1781ZM85.8078 62.2335C85.7587 62.2409 85.7093 62.2469 85.6605 62.2558C85.0278 62.4625 84.4809 62.872 84.1045 63.4209C83.728 63.9699 83.543 64.6276 83.5781 65.2922C83.644 65.7275 83.918 65.8024 84.2188 65.6038C84.7233 65.2999 85.157 64.8916 85.4908 64.4064C85.8247 63.9212 86.051 63.3702 86.1545 62.7904C86.2046 62.497 86.12 62.2967 85.8078 62.2335ZM82.9271 30.4014C82.8075 30.3932 82.6875 30.4101 82.5749 30.4512C82.4623 30.4923 82.3596 30.5565 82.2734 30.6398C82.1872 30.7231 82.1194 30.8235 82.0745 30.9346C82.0295 31.0458 82.0084 31.1651 82.0125 31.2849C81.9965 31.3863 82.0046 31.4901 82.0361 31.5879C82.0676 31.6857 82.1216 31.7746 82.1938 31.8477C82.2661 31.9207 82.3544 31.9758 82.4518 32.0084C82.5492 32.041 82.6529 32.0502 82.7546 32.0353C83.2874 32.0092 83.7585 31.7612 83.7821 31.1454C83.8053 30.5413 83.3372 30.4371 82.9271 30.4014ZM45.0057 21.0556C44.5125 20.0779 43.7032 20.0466 42.6999 20.1486C43.2336 21.3377 44.1988 20.9869 45.0057 21.0556ZM74.3651 11.1507C74.0028 11.1352 73.7859 11.3448 73.8812 11.5947C74.025 11.972 73.8699 12.6154 74.5159 12.6335C74.6045 12.644 74.6943 12.6356 74.7795 12.6091C74.8647 12.5825 74.9433 12.5383 75.0102 12.4793C75.0771 12.4203 75.1309 12.3479 75.168 12.2667C75.2051 12.1856 75.2247 12.0976 75.2255 12.0084C75.196 11.4936 74.7871 11.2609 74.3651 11.1507ZM82.7093 52.5349C82.4069 52.7795 81.6884 52.4525 81.7289 53.2008C81.7539 53.6621 82.1247 53.7849 82.4966 53.7549C82.9266 53.7201 83.3041 53.5255 83.309 53.0119C83.3125 52.6485 83.1246 52.444 82.7093 52.5349ZM33.7117 11.4647C33.6409 11.2491 33.4951 11.0659 33.3007 10.9486C33.1064 10.8313 32.8765 10.7875 32.6526 10.8252C32.5884 10.8265 32.5253 10.8431 32.4687 10.8735C32.4121 10.904 32.3636 10.9474 32.3271 11.0003C32.2906 11.0532 32.2672 11.114 32.2588 11.1778C32.2504 11.2415 32.2573 11.3063 32.2789 11.3668C32.3555 11.5766 32.4973 11.7564 32.6836 11.8796C32.8699 12.0028 33.0908 12.063 33.3139 12.0513C33.5788 12.0218 33.6914 11.7483 33.7117 11.4647ZM53.9052 10.9818L53.6886 11.2687L55.2128 12.5528C55.2307 12.1748 55.1064 11.8039 54.8643 11.5131C54.6223 11.2224 54.2801 11.0328 53.9052 10.9818ZM93.056 20.99C92.9103 21.0326 92.7822 21.121 92.6908 21.2422C92.5994 21.3634 92.5495 21.5108 92.5486 21.6626C92.553 21.7269 92.5723 21.7892 92.6048 21.8448C92.6373 21.9004 92.6822 21.9477 92.736 21.9831C92.7898 22.0185 92.8511 22.041 92.915 22.0489C92.9789 22.0567 93.0437 22.0497 93.1045 22.0284C93.4427 21.9505 93.8694 21.878 93.81 21.3987C93.7783 21.1427 93.5126 21.0049 93.056 20.99ZM93.228 42.4152C93.2633 42.0686 92.9924 42.0195 92.759 41.9399C92.5433 41.8664 92.3336 41.906 92.2957 42.1474C92.2483 42.4491 92.4569 42.5977 92.7369 42.6316C92.9362 42.6558 93.1338 42.6461 93.228 42.4152ZM84.5222 74.9572C84.5651 74.8387 84.5288 74.7271 84.412 74.7259C84.1242 74.7227 83.9866 74.9599 83.8466 75.1582C83.8331 75.1808 83.8259 75.2066 83.8257 75.233C83.8255 75.2594 83.8324 75.2853 83.8456 75.3081C83.8589 75.3309 83.878 75.3498 83.901 75.3627C83.924 75.3756 83.9501 75.3821 83.9764 75.3815C84.2763 75.403 84.4107 75.19 84.5222 74.9572Z" fill="#FF9500"/>
<path id="Vector_2" d="M15.322 84.348C15.0156 84.0459 14.617 83.8548 14.1896 83.805C13.5843 83.6426 13.0483 83.2876 12.6626 82.7936C11.249 80.5429 9.03263 80.0244 6.63611 79.8416C5.69684 79.7699 5.18382 79.3637 5.14311 78.6091C5.11054 78.006 5.60634 77.4627 6.39411 77.2381C7.6483 76.8806 8.37661 77.2561 8.71241 78.4991C8.81087 78.8636 8.87029 79.2026 9.2452 79.3727C10.2141 79.8123 11.1847 80.2483 12.2895 80.7466C12.3837 79.2119 12.3805 77.6729 12.2801 76.1387C12.2637 75.5452 11.7478 75.2189 11.3404 74.9824C9.51193 73.9211 8.74641 72.1134 7.92327 70.3365C7.38257 69.1694 7.14294 67.8822 6.48458 66.7572C6.2799 66.4075 6.12118 65.9583 6.53158 65.6338C6.68809 65.5351 6.87307 65.4913 7.05724 65.5095C7.24141 65.5277 7.41426 65.6068 7.54842 65.7342C9.00042 66.8518 10.7757 67.6082 11.6782 69.3558C11.7396 69.4747 11.8831 69.5512 12.1637 69.8076C12.1882 69.0517 12.2255 68.4644 12.2227 67.8772C12.2147 66.2265 12.1818 64.5759 12.1746 62.9252C12.1681 61.4142 11.7423 60.7099 10.3568 60.2446C9.51881 59.85 8.64712 59.5314 7.75221 59.2925C7.40674 59.1873 7.07981 59.0289 6.78321 58.8229C6.47284 58.6865 6.21588 58.4519 6.05189 58.1552C5.88789 57.8585 5.82595 57.5161 5.87558 57.1807C5.95437 56.5659 6.58008 56.683 6.9991 56.5722C7.74977 56.3738 8.51043 56.6267 8.6241 57.3506C8.92994 59.2991 10.5355 59.378 11.8605 59.9221C12.1393 59.5319 12.2638 59.0522 12.2101 58.5756C12.2452 56.9771 12.2377 55.3776 12.2467 53.7786C12.2781 53.4317 12.189 53.0846 11.9943 52.7958C11.7996 52.507 11.5112 52.2941 11.1778 52.1932C10.3304 51.755 9.59974 51.121 9.04639 50.3439C8.49304 49.5668 8.133 48.6689 7.99614 47.7247C7.81224 46.8201 7.98955 45.8738 7.74876 44.9634C7.69488 44.814 7.70184 44.6494 7.76816 44.5051C7.83448 44.3607 7.95485 44.2482 8.10332 44.1918C8.36797 44.1149 8.50552 44.4116 8.6266 44.6545C9.37435 46.1547 10.9412 46.762 12.1118 48.0096C12.3324 47.3287 12.4002 46.6075 12.3105 45.8974C12.3647 44.2491 12.3742 42.599 12.4456 40.9516C12.4933 39.8506 12.3609 38.8937 11.1714 38.4176C10.8933 38.2789 10.643 38.0903 10.433 37.8612C9.50937 36.9825 8.53918 36.4983 7.25137 37.1739C6.70764 37.4592 6.25412 37.1518 6.03081 36.5837C5.91324 36.2961 5.90853 35.9748 6.01761 35.6839C6.12669 35.393 6.34153 35.154 6.61918 35.0147C7.05037 34.841 7.52502 34.8063 7.97688 34.9154C8.42873 35.0245 8.83523 35.272 9.13963 35.6234C10.1119 36.5743 11.204 37.3945 12.3883 38.0631L12.2567 31.5671C11.6408 31.5896 11.0246 31.5313 10.4239 31.3935C8.49302 30.6702 7.92067 29.09 7.66367 27.2914C7.6618 26.7258 7.5234 26.1691 7.26024 25.6685C7.08445 25.4128 6.92375 25.0849 7.27364 24.8593C7.64276 24.6213 8.2898 24.5596 8.37483 24.9243C8.63235 26.0288 9.53395 26.0391 10.2874 26.1714C11.1508 26.2817 11.9435 26.7057 12.5143 27.3628C12.5217 25.1872 12.5085 23.3593 12.5473 21.5325C12.5573 21.0644 12.2472 20.2085 12.8537 20.2112C13.5813 20.2145 13.3094 21.1238 13.2879 21.6039C13.2097 23.3554 13.1377 25.105 13.1965 26.8576C13.2079 27.1957 13.0711 27.5754 13.4235 27.898C13.897 27.7184 14.292 27.3777 14.5391 26.9357C14.7863 26.4938 14.8699 25.9789 14.7751 25.4814C14.6623 24.3051 15.1174 23.7857 15.9758 23.6276C16.439 23.5753 16.906 23.6857 17.2969 23.9398C17.6877 24.194 17.9781 24.576 18.1183 25.0206C18.3273 25.7086 18.3413 26.3269 17.5088 26.6854C16.8723 26.9595 16.2642 27.2959 15.6243 27.5637C15.0348 27.7433 14.5024 28.0736 14.0796 28.5219C13.6568 28.9702 13.3582 29.5211 13.2134 30.1201C13.1181 30.6795 13.0688 31.2457 13.066 31.8132C13.064 33.0373 13.1073 34.2615 13.1318 35.4715C13.617 35.5664 13.7525 35.2078 13.8848 34.9819C14.6905 33.6061 16.2969 33.2587 17.3662 32.2275C17.4628 32.1667 17.577 32.14 17.6906 32.1517C17.8041 32.1633 17.9105 32.2126 17.9928 32.2918C18.0751 32.3709 18.1285 32.4753 18.1446 32.5883C18.1607 32.7014 18.1385 32.8165 18.0815 32.9155C17.5744 33.6934 17.3103 34.6047 17.3227 35.5333C17.0419 37.473 15.6735 38.4118 13.9566 38.9298C13.4351 39.0872 13.1467 39.2792 13.1325 39.8453C13.0472 43.2357 12.949 46.6259 12.8573 49.935C13.2719 50.1909 13.5032 50.0526 13.6628 49.8503C14.5949 48.893 15.3052 47.7426 15.7435 46.4805C15.8766 46.059 16.169 45.7062 16.5584 45.497C16.9478 45.2879 17.4034 45.239 17.8283 45.3607C18.2154 45.4169 18.5674 45.6161 18.8149 45.9191C19.0623 46.2221 19.1872 46.6068 19.1649 46.9974C19.1717 47.2074 19.1311 47.4163 19.0462 47.6085C18.9612 47.8008 18.8341 47.9714 18.6743 48.1079C18.5144 48.2443 18.3259 48.343 18.1227 48.3967C17.9195 48.4503 17.7068 48.4576 17.5005 48.4179C15.9745 48.1766 15.4272 49.2471 14.486 49.9891C12.7634 51.3473 12.7549 53.1083 12.8047 54.9635C12.7513 55.6338 12.8039 56.3082 12.9607 56.962C13.4724 57.006 13.4735 56.5422 13.6573 56.2802C14.129 55.6067 14.7495 55.0509 15.4706 54.6558C16.1917 54.2606 16.9941 54.0368 17.8156 54.0016C18.124 53.9748 18.4504 53.9169 18.6045 54.2823C18.6584 54.4015 18.6737 54.5346 18.648 54.663C18.6223 54.7913 18.557 54.9083 18.4613 54.9976C17.7939 55.7217 17.4363 56.6783 17.4651 57.6626C17.3098 58.5766 16.8928 59.426 16.2646 60.1079C15.6365 60.7897 14.8241 61.2748 13.9259 61.5044C12.7746 61.7537 12.7511 61.7541 12.7688 62.8438C12.8197 65.9808 12.8913 69.1176 12.96 72.5108C13.462 72.2215 13.8972 71.8294 14.2371 71.3601C14.577 70.8909 14.8138 70.3551 14.9321 69.7879C15.0643 69.2965 15.2225 68.8125 15.4061 68.3379C15.5718 67.9599 15.8451 67.639 16.192 67.4154C16.5389 67.1917 16.944 67.0752 17.3567 67.0804C17.6416 67.0984 17.9172 67.1892 18.1571 67.344C18.3969 67.4989 18.5931 67.7127 18.7268 67.9649C18.8792 68.2389 18.9442 68.5529 18.9129 68.8648C18.8817 69.1768 18.7557 69.4717 18.552 69.7099C18.307 70.0777 17.9592 70.3652 17.5518 70.5364C17.1445 70.7077 16.6957 70.7552 16.2616 70.6731C16.0525 70.5895 15.8188 70.5921 15.6116 70.6802C15.4043 70.7684 15.2404 70.9349 15.1555 71.1434C14.6756 72.0584 14.0298 72.8762 13.2511 73.5552C13.1481 73.6354 13.0655 73.739 13.0102 73.8572C12.9548 73.9755 12.9283 74.1053 12.9327 74.2358C12.8627 75.5054 12.9351 76.7788 13.1485 78.0323C13.9528 76.5751 15.1963 75.4087 16.7019 74.6992C16.7475 74.6764 16.7834 74.6345 16.8285 74.6105C17.2085 74.4089 17.1684 73.5768 17.8057 73.8349C18.4871 74.1108 18.2724 74.8202 18.2513 75.3462C18.2129 76.5585 17.8596 77.74 17.2261 78.7743C16.5926 79.8086 15.7008 80.6602 14.6383 81.2452C14.5077 81.3261 14.3547 81.3708 14.2232 81.4505C13.8917 81.6515 13.3462 81.7059 13.4719 82.2717C13.5131 82.5307 13.6457 82.7664 13.8458 82.936C14.0459 83.1055 14.3001 83.1978 14.5623 83.196C16.3411 83.248 18.1287 83.8719 19.8992 83.1161C20.0865 83.0319 20.2971 83.0147 20.4956 83.0674C22.4444 83.7796 24.4817 83.2522 26.4618 83.5086C26.8559 83.5596 27.3031 83.6394 27.6233 83.1203C27.1736 82.7107 26.8189 82.2076 26.5841 81.6464C26.3493 81.0852 26.2401 80.4794 26.2642 79.8715C26.1496 79.2664 25.9828 78.6723 25.7657 78.0959C25.6564 77.5948 26.0233 77.2923 26.496 77.5096C27.7715 78.0611 29.0185 78.6763 30.2324 79.3529C30.6446 79.6283 30.9659 80.0198 31.1556 80.4778C31.3454 80.9358 31.3951 81.4398 31.2984 81.9261C31.1752 83.5094 31.1859 83.5025 32.7954 83.5102C34.2391 83.5172 35.6826 83.5578 37.1262 83.5565C38.0152 83.5557 38.2079 83.2547 37.6393 82.5572C37.0014 81.7748 36.7849 80.5399 35.3736 80.4851C34.8081 80.4631 34.5584 79.4564 34.8233 78.7631C34.8653 78.6266 34.9356 78.5006 35.0298 78.3933C35.124 78.286 35.2398 78.1999 35.3697 78.1406C35.4995 78.0813 35.6405 78.0502 35.7832 78.0493C35.926 78.0484 36.0673 78.0777 36.1979 78.1354C37.3615 78.4303 37.6689 78.8963 37.5138 80.2231C37.4899 80.322 37.4741 80.4227 37.4666 80.5242C37.5112 81.3511 39.4326 83.5097 40.3045 83.5234C42.3951 83.6167 44.4894 83.5909 46.5771 83.446C46.5956 82.8436 46.1489 82.6737 45.8877 82.3909C45.3375 81.9131 44.9865 81.2462 44.9042 80.5221C44.835 79.9548 44.563 79.4318 44.1384 79.0493C43.7846 78.6498 43.2971 78.3189 43.1969 77.7597C43.3099 77.6708 43.3699 77.6024 43.3882 77.6121C44.7575 78.3456 46.3534 78.3739 47.7463 78.9558C48.565 79.215 49.2958 79.696 49.8575 80.3455C50.4193 80.9949 50.79 81.7874 50.9285 82.6349C50.9891 83.0869 51.1216 83.4403 51.6603 83.4446C54.1009 83.609 56.551 83.5631 58.9837 83.3074C58.1595 82.284 57.1352 81.4396 55.9734 80.8259C55.7025 80.6774 55.4148 80.5595 55.1346 80.4281C54.5227 80.1412 53.8407 79.8921 53.971 79.0172C54.0724 78.3362 54.8033 77.9927 55.8455 78.055C56.3596 78.1096 56.8555 78.2763 57.2981 78.5434C58.0141 78.9237 58.443 79.4857 58.1245 80.3068C58.0243 80.5438 58.0124 80.8089 58.0909 81.054C58.1694 81.2991 58.3331 81.5079 58.5524 81.6427C59.1116 82.2485 59.7957 82.7257 60.5574 83.0413C61.3191 83.3569 62.1403 83.5034 62.9641 83.4706C64.7079 83.3327 66.4699 83.4337 68.2235 83.4055C68.6267 83.4519 69.0351 83.396 69.411 83.243C69.3057 82.6558 68.8266 82.474 68.5202 82.1693C68.0128 81.7253 67.6247 81.1614 67.3911 80.5289C67.1721 79.6269 66.7945 78.7709 66.2759 78.0009C66.154 77.863 66.0861 77.6856 66.0846 77.5015C66.0832 77.3174 66.1483 77.139 66.2679 76.999C66.5212 76.693 66.8111 76.8766 67.1077 76.9642C68.0422 77.2402 68.9998 77.4441 69.9213 77.7562C70.9177 78.0526 71.8009 78.644 72.4545 79.4524C73.108 80.2608 73.5014 81.2483 73.5826 82.2846C73.6794 83.0591 73.8921 83.4094 74.7136 83.3243C76.2846 83.1615 77.8591 83.367 79.4516 83.2499C80.9239 83.1417 82.4976 83.4181 84.0337 83.4414C84.3216 83.4458 84.6675 83.5952 84.633 83.9977C84.6014 84.3665 84.2749 84.2909 84.0383 84.2951C83.1098 84.3118 82.181 84.3051 81.2526 84.3242C80.9178 84.2925 80.5839 84.3926 80.3216 84.603C80.0593 84.8135 79.8894 85.1179 79.8478 85.4516C79.6575 86.2553 79.2933 87.0075 78.7808 87.6551C78.2684 88.3028 77.6201 88.8302 76.8817 89.2002C75.753 89.8161 74.6106 90.3886 73.4482 90.9296C73.0701 91.1056 72.67 91.3184 72.3257 90.9073C72.056 90.5854 72.2109 90.2552 72.3607 89.9021C73.0984 87.9176 74.3015 86.139 75.8689 84.7158C75.9296 84.6647 75.9225 84.5332 76.0025 84.2263C74.8028 84.2243 73.6484 84.2163 72.4942 84.2285C72.4179 84.2301 72.3428 84.2467 72.273 84.2775C72.2032 84.3082 72.1402 84.3524 72.0875 84.4075C71.3852 85.088 70.6223 85.7029 69.8083 86.2448C69.1442 86.8509 68.322 87.2927 68.6891 88.495C68.8714 89.0922 68.1271 89.826 67.5428 89.9233C67.1353 89.9862 66.7185 89.9096 66.3601 89.7059C66.0016 89.5023 65.7224 89.1834 65.5679 88.8012C65.4688 88.4517 65.4941 88.0787 65.6395 87.7458C65.7849 87.4129 66.0413 87.1408 66.365 86.976C66.4921 86.8865 66.6394 86.8298 66.7936 86.811C68.5961 86.9333 69.4134 85.4203 70.6182 84.6239C70.5525 84.1936 70.2938 84.1755 70.0326 84.1748C67.4603 84.1683 64.8881 84.1634 62.3158 84.1602C61.9548 84.1598 61.5912 84.2072 61.2333 84.178C60.451 84.1142 60.1017 84.5293 59.9793 85.2324C59.8644 86.3179 59.3825 87.3317 58.6131 88.1061C57.8438 88.8804 56.8332 89.369 55.7485 89.4909C55.027 89.6204 54.18 89.6418 53.7267 90.4268C53.5909 90.662 53.3989 90.8741 53.1163 90.7026C53.0049 90.632 52.9234 90.5227 52.8877 90.3957C52.852 90.2687 52.8645 90.133 52.9228 90.0147C53.3206 89.0685 53.7832 88.1508 54.3073 87.2683C54.7998 86.3383 55.4094 85.4752 56.1213 84.7002C56.0024 84.1666 55.6322 84.2607 55.3541 84.2558C53.9108 84.2303 52.4667 84.2431 51.0234 84.2136C50.7918 84.2032 50.5611 84.2502 50.3519 84.3503C50.1427 84.4503 49.9614 84.6004 49.824 84.7872C49.084 85.7171 48.2054 86.5278 47.2191 87.1908C47.1134 87.2355 47.0191 87.3037 46.9434 87.3901C46.8678 87.4765 46.8127 87.5789 46.7823 87.6897C46.7519 87.8005 46.747 87.9167 46.768 88.0296C46.7889 88.1425 46.8352 88.2492 46.9033 88.3417C47.0019 88.5806 47.0381 88.8407 47.0085 89.0974C46.9753 89.7406 46.5675 90.063 45.9809 89.8656C45.2853 89.6492 44.6785 89.2133 44.2513 88.6231C44.0929 88.4149 43.999 88.1647 43.9814 87.9037C43.9637 87.6426 44.0231 87.3821 44.152 87.1544C44.2766 86.9229 44.4794 86.7433 44.7242 86.6477C44.969 86.5521 45.2399 86.5467 45.4883 86.6325C45.6717 86.7246 45.8767 86.765 46.0814 86.7493C46.286 86.7337 46.4825 86.6626 46.6498 86.5437C47.4012 86.0946 48.0754 85.5273 48.6463 84.8635C48.8728 84.5041 48.5852 84.2854 48.2159 84.296C47.0297 84.3299 45.8478 84.2916 44.6618 84.2386C43.2211 84.1742 41.774 84.2223 40.3306 84.2586C38.8973 84.2946 38.7348 84.4544 38.2868 85.8155C37.9645 86.7427 37.4895 87.6095 36.8814 88.3801C36.2055 89.0295 35.3104 89.4013 34.3734 89.422C33.4489 89.603 32.3747 89.3609 31.8363 90.4871C31.7357 90.6974 31.4457 90.6309 31.2914 90.4935C31.1869 90.415 31.1115 90.3038 31.0772 90.1776C31.0429 90.0513 31.0517 89.9173 31.1021 89.7966C31.8371 88.144 32.5847 86.5026 34.1947 85.4687C34.7196 85.2541 35.1718 84.8932 35.4974 84.4289C33.9918 84.2531 32.4764 84.1746 30.9607 84.1939C30.301 84.3092 29.6874 84.6089 29.191 85.0585C28.645 85.5297 28.1336 86.0397 27.6608 86.5844C27.2714 87.0004 27.055 87.5491 27.0557 88.1189C27.0624 88.3106 27.0304 88.5017 26.9617 88.6808C26.8929 88.8598 26.7888 89.0232 26.6555 89.1611C26.5222 89.2991 26.3625 89.4087 26.1859 89.4835C26.0093 89.5584 25.8194 89.5969 25.6276 89.5967C25.2645 89.6006 24.9101 89.4862 24.6178 89.2708C24.3256 89.0554 24.1114 88.7507 24.0076 88.4028C23.9116 88.0496 23.9503 87.6733 24.1162 87.347C24.2821 87.0208 24.5634 86.7678 24.9054 86.6374C25.2661 86.4332 25.6802 86.3431 26.0931 86.3789C26.3979 86.3968 26.7664 86.5015 26.9788 86.247C27.4321 85.7039 28.262 85.1584 28.1193 84.5226C27.9718 83.8652 27.0454 84.2452 26.4736 84.2311C24.6696 84.1867 22.8636 84.2264 21.0585 84.2192C20.7803 84.1781 20.4964 84.236 20.2565 84.3827C20.0165 84.5294 19.8356 84.7556 19.7453 85.022C19.3774 86.0478 18.716 86.9428 17.8433 87.5956C16.9706 88.2484 15.9252 88.6301 14.8372 88.6933C14.0123 88.671 13.1908 88.807 12.4171 89.0941C12.349 89.1336 12.273 89.1575 12.1946 89.1639C12.1162 89.1704 12.0373 89.1593 11.9637 89.1314C11.8901 89.1035 11.8237 89.0595 11.7692 89.0027C11.7147 88.9459 11.6736 88.8777 11.6489 88.803C11.4909 88.4047 11.7535 88.2145 12.0778 88.1545C12.4061 88.0763 12.7065 87.9093 12.9462 87.6718C13.1859 87.4342 13.3555 87.1353 13.4366 86.8077C13.8709 85.8558 14.5156 85.0147 15.322 84.348ZM67.6894 78.1058C67.898 78.9263 68.1907 79.723 68.563 80.4834C68.8591 81.0547 69.286 81.5481 69.8088 81.9234C70.3317 82.2986 70.9357 82.5452 71.5718 82.6429C72.5888 82.7476 72.9338 82.2637 72.498 81.3708C72.0887 80.4265 71.4193 79.6181 70.5679 79.0399C69.7164 78.4618 68.7181 78.1378 67.6894 78.1058ZM78.5 84.7226C78.4491 84.7285 78.3981 84.7335 78.3474 84.7406C76.878 84.9459 73.8689 87.7149 73.5626 89.1906C73.4373 89.7938 73.9122 89.7404 74.2453 89.6233C75.5133 89.2091 76.6706 88.5121 77.6298 87.5849C78.288 87.0055 78.7697 86.2523 79.0195 85.4116C79.116 85.0018 79.0159 84.6935 78.5 84.7226ZM17.1261 55.1057C16.6278 55.1592 16.1457 55.3142 15.7097 55.5613C15.2736 55.8083 14.8928 56.1421 14.5908 56.542C14.0138 57.5689 13.5082 58.6342 13.0774 59.7304C12.8324 60.3107 13.1976 60.7178 13.8486 60.6633C14.4624 60.5719 15.0234 60.2642 15.4304 59.7957C16.7276 58.5515 16.721 56.8649 17.1261 55.1057ZM11.6031 73.97C11.9893 70.3546 10.9186 68.8519 7.70573 67.2177C8.50742 69.8063 9.19013 72.2218 11.6031 73.97ZM58.7325 84.517C58.495 84.5819 58.2632 84.6662 58.0394 84.7689C56.8945 85.2611 55.9609 86.1428 55.4039 87.2577C55.2012 87.7492 54.4678 88.2193 54.8981 88.7288C55.3291 89.2391 55.9499 88.6215 56.4561 88.4807C57.1797 88.2737 57.8244 87.854 58.3067 87.2762C58.7889 86.6984 59.0864 85.989 59.1607 85.24C59.1894 85.1646 59.2007 85.0836 59.1938 85.0031C59.1869 84.9227 59.162 84.8448 59.1208 84.7753C59.0797 84.7058 59.0234 84.6465 58.9561 84.6018C58.8889 84.5571 58.8125 84.5281 58.7325 84.517ZM18.8719 84.495C16.3317 84.2023 14.8815 85.2207 14.2909 87.7122C16.7792 87.8197 18.2459 86.7896 18.8719 84.495ZM8.66938 26.938C8.59736 27.4814 8.67193 28.0342 8.88538 28.539C9.03353 29.007 9.29247 29.4324 9.6402 29.7789C9.98794 30.1254 10.4142 30.3828 10.8827 30.5293C11.0749 30.6065 11.2851 30.6276 11.4889 30.5901C11.6926 30.5525 11.8815 30.4579 12.0336 30.3172C12.4999 29.9984 12.0789 29.6711 12.028 29.3588C12.0133 29.0108 11.9277 28.6694 11.7762 28.3558C11.6247 28.0421 11.4106 27.7628 11.1471 27.535C10.8836 27.3072 10.5762 27.1357 10.244 27.0311C9.91172 26.9266 9.56157 26.8911 9.21509 26.927C9.0642 26.9298 8.91327 26.9331 8.66938 26.938ZM45.8574 79.4994C45.8722 80.3744 46.2023 81.2146 46.7868 81.8657C47.3714 82.5169 48.1713 82.9353 49.0395 83.0441C49.1665 83.063 49.2961 83.0495 49.4164 83.0047C49.5367 82.9599 49.6437 82.8854 49.7274 82.7881C49.8452 82.648 49.9077 82.4696 49.903 82.2866C49.8983 82.1036 49.8268 81.9286 49.7019 81.7948C48.7553 80.5687 47.7154 79.4737 45.8574 79.4994ZM37.4253 85.3595C37.3355 85.2665 37.2188 85.2042 37.0916 85.1813C36.9644 85.1583 36.8333 85.176 36.7167 85.2317C35.2813 85.8034 34.0087 86.7197 33.0113 87.8997C32.8405 88.0961 32.658 88.3143 32.8283 88.5781C32.9907 88.8296 33.2794 88.7451 33.5271 88.7447C35.6382 88.7412 36.6392 87.8714 37.4253 85.3595ZM17.1994 75.4395C15.281 76.7583 13.5116 77.937 13.6873 80.5178C15.748 80.0749 17.1872 77.6298 17.1994 75.4395ZM27.4312 78.9768C27.0569 81.0966 27.3395 81.8213 28.7827 82.4193C29.185 82.586 29.6412 82.949 30.0607 82.5659C30.2298 82.3714 30.346 82.1367 30.3983 81.8843C30.4506 81.632 30.4371 81.3704 30.3591 81.1248C30.3356 80.894 30.257 80.6723 30.1299 80.4783C30.0028 80.2842 29.8309 80.1236 29.6287 80.0099C28.9345 79.5893 28.198 79.243 27.4312 78.9768ZM8.83334 46.8218C8.86063 47.7057 9.11416 48.5679 9.56969 49.3259C10.0252 50.0839 10.6675 50.7124 11.4352 51.1514C12.0456 48.9681 11.2889 47.8715 8.83334 46.8218ZM14.1919 37.7664C14.241 37.759 14.2903 37.753 14.3391 37.744C14.9718 37.5373 15.5187 37.1279 15.8952 36.5789C16.2716 36.03 16.4566 35.3723 16.4216 34.7077C16.3557 34.2724 16.0816 34.1975 15.7809 34.3961C15.2764 34.7 14.8427 35.1083 14.5088 35.5935C14.175 36.0787 13.9487 36.6297 13.8452 37.2095C13.795 37.5029 13.8796 37.7032 14.1919 37.7664ZM17.0726 69.5985C17.1922 69.6067 17.3121 69.5898 17.4248 69.5487C17.5374 69.5076 17.6401 69.4434 17.7263 69.3601C17.8125 69.2768 17.8803 69.1764 17.9252 69.0653C17.9701 68.9541 17.9912 68.8348 17.9871 68.715C18.0031 68.6136 17.9951 68.5098 17.9636 68.412C17.9321 68.3142 17.878 68.2253 17.8058 68.1522C17.7336 68.0792 17.6452 68.0241 17.5478 67.9915C17.4504 67.9589 17.3467 67.9497 17.2451 67.9645C16.7123 67.9907 16.2412 68.2386 16.2175 68.8545C16.1943 69.4587 16.6624 69.5628 17.0726 69.5985ZM54.994 78.9443C55.4872 79.922 56.2965 79.9533 57.2997 79.8513C56.7661 78.6622 55.8009 79.013 54.994 78.9443ZM25.6346 88.8492C25.9969 88.8647 26.2137 88.6551 26.1185 88.4052C25.9747 88.0279 26.1298 87.3845 25.4837 87.3664C25.3951 87.3559 25.3053 87.3643 25.2202 87.3909C25.135 87.4174 25.0564 87.4617 24.9895 87.5206C24.9225 87.5796 24.8688 87.652 24.8317 87.7332C24.7946 87.8143 24.775 87.9023 24.7742 87.9915C24.8037 88.5063 25.2126 88.739 25.6346 88.8492ZM17.2904 47.4651C17.5928 47.2204 18.3113 47.5474 18.2707 46.7992C18.2457 46.3379 17.8749 46.215 17.5031 46.245C17.073 46.2798 16.6956 46.4744 16.6906 46.988C16.6871 47.3515 16.875 47.5559 17.2904 47.4651ZM66.288 88.5352C66.3588 88.7508 66.5046 88.934 66.6989 89.0513C66.8932 89.1687 67.1232 89.2124 67.3471 89.1747C67.4113 89.1734 67.4743 89.1568 67.5309 89.1264C67.5875 89.0959 67.6361 89.0525 67.6726 88.9996C67.7091 88.9467 67.7325 88.8859 67.7409 88.8221C67.7492 88.7584 67.7423 88.6936 67.7207 88.6331C67.6442 88.4233 67.5024 88.2435 67.3161 88.1203C67.1298 87.9971 66.9088 87.9369 66.6858 87.9486C66.4208 87.9781 66.3083 88.2516 66.288 88.5352ZM46.0945 89.0181L46.3111 88.7312L44.7868 87.4471C44.769 87.8251 44.8933 88.196 45.1354 88.4868C45.3774 88.7776 45.7196 88.9671 46.0945 89.0181ZM6.94367 79.0099C7.08937 78.9674 7.21745 78.8789 7.30886 78.7577C7.40028 78.6365 7.45016 78.4891 7.45109 78.3373C7.4466 78.273 7.42735 78.2107 7.39484 78.1551C7.36233 78.0995 7.31742 78.0522 7.26363 78.0168C7.20984 77.9814 7.1486 77.9589 7.08469 77.9511C7.02078 77.9432 6.95592 77.9502 6.89515 77.9715C6.55699 78.0494 6.13022 78.1219 6.18968 78.6012C6.2214 78.8572 6.48701 78.995 6.94367 79.0099ZM6.77167 57.5847C6.73633 57.9314 7.00725 57.9805 7.24067 58.06C7.45641 58.1335 7.66602 58.0939 7.70392 57.8526C7.75131 57.5508 7.54279 57.4022 7.26272 57.3683C7.06346 57.3441 6.86582 57.3538 6.77167 57.5847ZM15.4775 25.0428C15.4345 25.1612 15.4709 25.2728 15.5877 25.2741C15.8755 25.2773 16.0131 25.0401 16.153 24.8418C16.1666 24.8192 16.1738 24.7933 16.174 24.767C16.1742 24.7406 16.1673 24.7146 16.154 24.6918C16.1408 24.669 16.1216 24.6502 16.0986 24.6373C16.0756 24.6244 16.0496 24.6179 16.0232 24.6184C15.7234 24.5969 15.5889 24.8099 15.4775 25.0428Z" fill="#FF9500"/>
<g id="Group 1877">
<path id="Vector_3" d="M44.1679 65.0677L29 49.4728L44.3303 34.1245L47.8992 37.7858L45.8711 39.8033L44.3303 38.1984L33.0151 49.513L44.1679 60.9938L45.6269 59.5537L47.6153 61.6114L44.1679 65.0677Z" fill="#FF9500"/>
<path id="Vector_4" opacity="0.4" d="M55.3208 55.5214L53.3324 53.4637L57.1046 49.6779L53.2109 45.6456L55.198 43.6294L61.1197 49.7194L55.3208 55.5214Z" fill="#FF9500"/>
<path id="Vector_5" d="M55.0762 64.903L39.9492 49.3483L51.4678 37.8274L55.2795 34L70.4065 49.5948L55.0762 64.9016V64.903ZM43.9643 49.3899L55.1171 60.8706L66.3914 49.5546L55.2386 38.0752L43.9643 49.3912V49.3899Z" fill="#FF9500"/>
</g>
</g>
</svg>
