<svg width="60" height="60" viewBox="0 0 60 60" fill="none" xmlns="http://www.w3.org/2000/svg">
<path d="M21.467 16.5H12.0998L7.5 31.8577C14.9507 40.3547 24.785 47.8821 28.6781 50.7185C29.2531 51.1427 30.0316 51.0821 30.5347 50.573C30.8103 50.2942 30.954 49.9306 30.954 49.5427C30.954 49.1427 30.8103 48.779 30.5347 48.5003L28.0193 45.9547L25.1444 43.0457C24.6773 42.5729 24.6773 41.8093 25.1444 41.3365C25.6116 40.8639 26.3662 40.8639 26.8334 41.3365L33.5294 48.1124C34.2601 48.8396 35.446 48.8396 36.1647 48.1124C36.8834 47.3851 36.8954 46.1972 36.1886 45.4578L30.2712 39.2638C29.816 38.779 29.828 38.0153 30.3072 37.5426C30.7743 37.082 31.541 37.0941 31.9961 37.579L32.9424 38.5608L37.9136 43.7729L39.2432 45.1548C39.9738 45.9184 41.1598 45.9669 41.9503 45.2518C42.3576 44.8881 42.5971 44.379 42.6091 43.8215C42.6091 43.2639 42.4055 42.7426 42.0102 42.3548L37.5781 38.0032L34.6553 35.1426C34.1763 34.682 34.1643 33.9183 34.6314 33.4335C35.0866 32.9486 35.8413 32.9365 36.3204 33.4092L44.8971 41.8093C45.6277 42.5123 46.7417 42.5123 47.4485 41.7971C47.8198 41.4457 48.0115 40.9608 47.9995 40.4517C47.9875 39.9426 47.7839 39.4699 47.4005 39.1184L31.1576 24.0758C28.4625 24.597 26.1027 27.1547 26.0787 27.1789C26.0189 27.2516 25.935 27.3243 25.8511 27.3728C21.3952 30.294 18.7719 27.9304 18.664 27.8335C16.3043 25.6637 17.4303 22.2455 18.4604 20.5607C19.4307 18.9485 20.4488 17.6152 21.467 16.5Z" fill="white"/>
<path d="M33.456 13.7628C32.184 13.2573 30.804 13.2211 29.58 13.6786C27.216 14.5332 23.784 16.6156 20.736 21.599C20.712 21.6351 19.032 24.4277 20.52 25.7758C20.556 25.812 21.936 26.8953 24.684 25.1499C25.296 24.5119 28.224 21.6833 31.704 21.3582C32.04 21.3222 32.376 21.4425 32.628 21.6712L49.308 36.9944C49.32 36.9944 49.32 36.9944 49.32 37.0064C50.676 36.6694 51.636 35.5139 52.068 34.8759L46.188 18.8425L33.456 13.7628ZM58.68 13.6425C56.424 13.799 51.792 14.2804 48.876 15.5082C48.228 15.7851 47.904 16.5675 48.156 17.2416L55.26 36.5972C55.464 37.1268 55.98 37.5 56.556 37.5H58.764C59.448 37.5 60 36.9463 60 36.2601V14.8702C60 14.148 59.4 13.5822 58.68 13.6425ZM1.23604 34.4184H3.32402C3.93604 34.4184 4.46404 34.0333 4.64399 33.4434L10.464 14.136C10.668 13.474 10.356 12.7637 9.73198 12.4749C6.41997 10.9943 3.3 10.585 1.28401 10.5008C0.575977 10.4767 0 11.0304 0 11.7406V33.1787C0 33.8648 0.552026 34.4184 1.23604 34.4184Z" fill="white"/>
</svg>
