<svg width="100" height="100" viewBox="0 0 100 100" fill="none" xmlns="http://www.w3.org/2000/svg">
<g id="noun-hourglass-4416631 1">
<path id="Vector" d="M31.9091 89.6007C30.5352 89.5889 28.9706 89.5908 27.4064 89.5557C26.571 89.5369 25.7942 89.1723 24.9375 89.1353C24.1855 89.1029 23.8563 88.5373 23.7793 87.7114C23.7012 86.6879 23.9103 85.6629 24.3836 84.7491C24.4977 84.5614 24.6482 84.3979 24.8265 84.2679C25.0048 84.1378 25.2074 84.0439 25.4225 83.9915C25.8305 83.8409 26.1152 83.6371 26.1349 83.1603C26.1365 82.9595 26.2005 82.7642 26.3184 82.6006C26.6774 82.1047 26.9258 81.5392 27.0472 80.9415C27.1687 80.3438 27.1605 79.7274 27.0232 79.133C26.799 76.7555 27.1387 74.379 27.1242 71.9983C27.292 71.0246 27.3839 70.0396 27.3991 69.0519C27.2575 67.4764 27.2432 65.8923 27.3562 64.3146C27.3616 62.7393 27.4713 61.152 27.4695 59.5665C27.4894 59.0094 27.4387 58.452 27.3186 57.9073C27.2581 57.6765 27.2261 57.4393 27.2232 57.2008C27.2083 53.8837 27.199 50.5665 27.1953 47.2493C27.1955 45.9778 27.4185 44.722 27.4262 43.4452C27.4341 42.1335 27.3502 40.8238 27.355 39.5186C27.2282 36.552 27.3562 33.5801 27.7374 30.6348C27.8068 30.2033 27.8229 29.7651 27.7853 29.3298C27.651 27.3227 27.6713 25.3084 27.8461 23.3043C27.7966 22.0369 27.6672 20.7738 27.4585 19.5223C27.4097 19.2482 27.3929 18.9694 27.4085 18.6916C27.5931 17.7797 27.4309 17.1596 26.3371 17.0061C25.8566 16.9387 25.7178 16.4231 25.5412 16.0191C25.3033 15.4749 25.1377 14.878 24.4159 14.7288C24.1126 14.6661 23.9757 14.3746 23.8583 14.1294C23.5258 13.2393 23.2439 12.3316 23.014 11.4105C22.9726 11.136 23.0238 10.8557 23.1596 10.6129C23.2954 10.37 23.5082 10.1779 23.7654 10.0663C24.8035 9.53965 25.9595 9.28079 27.1261 9.31382C28.8755 9.23051 30.6303 9.18966 32.3781 9.07039C33.5376 8.94865 34.7086 8.98496 35.8581 9.1783C37.1703 9.35279 38.5016 9.33329 39.808 9.12044C41.3048 8.98548 42.7713 9.19931 44.2491 9.15366C45.8486 9.10422 47.4485 9.48328 49.0509 9.1485C49.684 9.01623 50.2914 9.44684 50.9557 9.33883C52.5433 9.15179 54.1442 9.09988 55.7407 9.18367C57.8237 9.20093 59.9077 9.226 61.9892 9.31193C63.0727 9.35669 64.1444 9.1638 65.232 9.29965C66.8562 9.50249 68.5154 9.36633 70.1194 9.56692C71.5908 9.61148 73.0535 9.80725 74.4838 10.1511C74.8818 10.2615 75.2333 10.4953 75.4867 10.818C75.7401 11.1407 75.8818 11.5352 75.8911 11.9435C75.9284 12.6117 75.814 13.2797 75.5563 13.8986C75.2986 14.5176 74.9042 15.0718 74.4018 15.5208C74.0628 15.7889 73.8324 16.1683 73.7525 16.5899C73.7133 16.9483 73.5617 17.2855 73.3187 17.5545C73.1591 17.6988 73.0363 17.8784 72.9604 18.0786C72.8845 18.2788 72.8576 18.4939 72.8819 18.7063C72.9091 20.1232 72.7701 21.5356 72.7719 22.9544C72.9438 24.8062 72.9302 26.6701 72.7313 28.5192C72.5494 29.938 72.5164 31.3715 72.6328 32.7969C72.652 33.8706 72.7038 34.9427 72.6227 36.0148C72.5911 36.2115 72.5852 36.4113 72.6051 36.6095C73.0127 38.7311 72.4833 40.8715 72.846 43.0102C72.9632 44.2367 72.9618 45.4715 72.8418 46.6978C72.7879 48.635 72.7865 50.574 72.7436 52.5111C72.6708 55.7981 72.8311 59.0918 72.8759 62.3828C72.9389 65.0039 72.8628 67.6265 72.6477 70.2398C72.5215 71.7432 72.485 73.2526 72.5384 74.7602C72.5563 75.3478 72.5299 75.936 72.4596 76.5198C72.3732 77.3833 72.4145 78.2547 72.582 79.1066C72.6971 79.8175 72.7069 80.4823 73.4793 80.9157C73.9621 81.1867 73.899 81.8309 73.9813 82.3365C74.0531 82.7774 74.0447 83.1845 74.7493 83.0788C75.303 82.9957 75.7953 83.4363 76.338 83.5834C76.6836 83.677 76.7952 84.0179 76.8535 84.3388C77.1059 85.5478 77.0312 86.8012 76.6368 87.9726C76.4353 88.5556 76.0321 89.0498 75.4982 89.3681C74.9643 89.6864 74.3339 89.8085 73.7178 89.713C71.4329 89.6498 69.1727 90.0017 66.8896 89.9984C65.5312 90.0124 64.1734 89.9348 62.8257 89.7662C61.432 89.6762 60.0345 89.6618 58.6392 89.723C56.517 89.6652 54.4159 90.0873 52.2889 89.8781C51.8495 89.834 51.406 89.8484 50.9704 89.9208C50.0141 89.9988 49.0533 90.007 48.0958 89.9454C46.6628 89.9763 45.2344 89.5482 43.8076 89.8887C43.7299 89.9072 43.6407 89.9548 43.5748 89.9335C42.2668 89.5098 40.8859 90.038 39.6452 89.7672C37.0951 89.2105 34.6092 90.0177 31.9091 89.6007ZM49.4928 55.599C49.5905 56.0189 48.8023 56.3065 49.3206 56.8324C49.4749 56.6739 49.573 56.4704 49.6002 56.2522C49.6273 56.034 49.5821 55.813 49.4713 55.6224L49.2824 54.1367C48.8911 55.0892 48.8911 55.0892 49.4928 55.599ZM74.055 14.2096C74.3396 14.2326 74.6531 14.2853 74.7116 13.8911C74.8308 13.3073 74.8496 12.7078 74.7671 12.1179C74.598 11.6816 74.2891 11.3118 73.8876 11.0648C73.486 10.8179 73.0138 10.7073 72.5428 10.7499C72.2665 10.8157 72.3396 11.0076 72.3133 11.2019C72.1837 12.1591 72.0243 13.1122 71.8754 14.0667C71.7127 13.6091 71.6877 13.1146 71.8033 12.6432C71.8688 12.132 71.89 11.6161 71.8668 11.1013C71.8832 10.8289 71.7655 10.6091 71.4792 10.5972C70.6068 10.5611 69.769 10.0814 68.9206 10.361L68.4371 13.8893C68.2205 13.0388 68.169 12.1555 68.2855 11.286C68.2656 10.4059 68.2816 10.3534 67.3679 10.2527C66.0501 10.1074 64.7254 10.0258 63.4025 9.93673C63.2735 9.90177 63.1365 9.90942 63.0123 9.95851C62.8881 10.0076 62.7835 10.0955 62.7146 10.2087C62.7905 10.3622 63.0152 10.5656 62.9173 10.7959C62.409 11.9913 62.7473 13.2264 62.766 14.4439C62.7732 14.9151 63.2889 15.2007 63.9214 15.1446C64.4146 15.1009 64.4578 14.7744 64.4111 14.3737C64.3278 13.4233 64.3231 12.4678 64.3972 11.5167C64.3716 11.2392 64.426 10.9602 64.5539 10.7118C64.6434 10.5814 64.751 10.4347 64.931 10.4874C64.9698 10.4981 65.0057 10.5174 65.0358 10.5437C65.066 10.5701 65.0898 10.6028 65.1053 10.6395C65.1208 10.6762 65.1277 10.716 65.1255 10.7557C65.1232 10.7954 65.1119 10.8341 65.0924 10.8689C64.5029 11.9836 64.7963 13.207 64.6611 14.3766C64.6338 14.6131 64.5618 14.9172 64.8321 15.0086C65.295 15.1295 65.7845 15.1058 66.2333 14.9409C66.5277 14.8543 66.4158 14.4575 66.4273 14.19C66.3787 13.2378 66.413 12.2833 66.5298 11.337C66.5708 11.1497 66.479 10.8092 66.9679 10.8924C66.9433 11.7794 66.7985 12.6684 66.8204 13.5667C66.8574 15.0814 66.83 15.0765 68.323 15.0414C68.56 15.0358 68.7987 15.1215 69.0378 15.1325C69.7094 15.1634 69.8711 15.0165 69.9088 14.3379C69.944 13.7039 69.9728 13.0691 69.9824 12.4341C69.9963 11.938 70.1334 11.4529 70.3816 11.0215C70.6864 11.2284 70.5678 11.42 70.5409 11.604C70.4265 12.3874 70.2856 13.1684 70.2128 13.9562C70.1185 14.9772 70.1648 15.0618 71.1935 15.1185C72.2499 15.1767 73.4199 15.4356 74.0622 14.2021L74.055 14.2096ZM29.028 72.9984L29.0272 73.0026C29.0489 71.9718 29.0415 70.9428 29.1044 69.9098C29.2868 68.2177 29.2762 66.5108 29.0729 64.821C28.9374 64.2787 28.9595 63.7098 29.1364 63.1793C29.3699 62.8214 29.4821 62.3995 29.4569 61.9746C29.4317 61.5496 29.2704 61.1435 28.9962 60.815C28.9092 60.6811 28.874 60.5208 28.8971 60.3633C29.0398 58.3845 28.4336 56.4217 28.729 54.4376C28.822 53.8131 28.4116 53.1918 28.6397 52.5516C28.9811 51.2817 29.0534 49.9557 28.852 48.6569C28.7786 47.5674 28.4136 46.4508 29.1048 45.415C29.175 45.2281 29.2011 45.0279 29.1812 44.8296C29.2713 43.4824 29.2568 42.1304 29.138 40.7854C28.9441 39.6151 28.9265 38.4229 29.0855 37.2475C29.4525 36.3325 29.6015 35.3465 29.5209 34.3655C29.4826 34.2118 29.607 33.8366 29.3147 33.9569C28.7647 34.1834 28.8967 33.7761 28.8932 33.5716C28.8101 31.6687 28.8567 29.7625 29.0327 27.8657C29.1435 26.8094 28.9861 25.7425 28.5749 24.7613C28.418 26.1778 28.4316 27.6077 28.6154 29.021C28.6528 29.2171 28.6509 29.4185 28.6097 29.6139C28.3588 30.8177 28.3582 32.0532 28.2118 33.2689C27.9899 35.7936 27.9674 38.3316 28.1444 40.8598C28.2111 41.9283 28.2059 43 28.1289 44.0678C27.989 45.57 27.9465 47.0795 28.0018 48.587C28.1481 50.676 28.1744 52.7715 28.0807 54.8635C27.9935 55.4546 28.0237 56.0569 28.1697 56.6366C28.4587 57.7174 28.5201 58.8453 28.3502 59.9505C28.0682 62.6761 28.1118 65.4146 28.0233 68.1473C27.9734 69.6892 28.1121 71.2538 28.0145 72.7751C28.017 74.6765 27.9216 76.5768 27.7289 78.4687C27.6308 79.1413 27.7204 79.8275 27.988 80.4535C28.0349 80.5646 28.118 80.6571 28.2242 80.7162C28.3304 80.7753 28.4535 80.7977 28.5741 80.7798C28.8977 80.7765 28.97 80.5592 28.9805 80.3069C29.0136 79.9901 29.012 79.6707 28.9758 79.3543C28.8696 78.7709 29.5799 79.0948 29.6436 78.7261C29.6758 78.6121 29.6968 78.4953 29.7064 78.3773C29.663 76.8743 29.7595 75.3702 29.5832 73.8671C29.5549 73.6927 29.4911 73.5259 29.3957 73.3766C29.3002 73.2273 29.1752 73.0986 29.028 72.9984ZM71.9188 51.3024C72.1457 50.7057 72.2378 50.0672 72.1885 49.4317C72.2048 48.4394 72.1518 47.4456 72.1472 46.4525C72.1338 43.5152 72.1254 40.5779 72.1222 37.6406C72.1207 37.0291 72.122 36.4176 72.122 35.8061C71.9675 36.9163 71.8522 38.0156 71.7078 39.113C71.5049 39.6924 71.3901 40.2982 71.3669 40.9108C71.4867 41.9371 71.5249 42.9709 71.4812 44.003C71.4674 44.6023 71.8494 45.1975 71.5352 45.845C71.3061 45.56 71.1445 45.228 71.0622 44.8734C70.98 44.5187 70.9791 44.1503 71.0597 43.7953C71.2522 42.8944 71.1595 41.9569 70.7942 41.1098C70.6304 40.7424 70.5859 40.334 70.6668 39.9406C70.8867 38.5297 71.0908 37.1155 71.3581 35.7137C71.4608 35.3314 71.48 34.9318 71.4145 34.5416C70.8639 32.3457 71.3925 30.19 71.5775 28.0154L71.9753 29.4349C72.3603 27.331 71.9817 25.243 72.1006 23.1625C72.1041 23.079 72.0764 22.9972 72.0228 22.9326C71.9692 22.868 71.8933 22.8251 71.8098 22.8122C71.7185 22.9876 71.6673 23.1806 71.6597 23.3776C71.6521 23.5747 71.6883 23.771 71.7658 23.9527C71.8913 24.3679 71.9856 24.7457 71.5758 24.9864C70.7841 23.3308 71.3456 21.6978 71.4487 20.064C71.4557 19.9535 71.4669 19.7846 71.5358 19.7463C72.4026 19.2642 71.8423 18.5366 71.9674 17.9143C71.5793 17.911 71.2992 17.9192 71.0202 17.9037C70.616 17.8812 70.4437 18.052 70.443 18.4569C70.4399 20.4024 70.1438 22.3306 70.0901 24.2694C70.021 26.7616 69.991 29.2645 70.1424 31.7527C70.299 34.3268 69.9962 36.9165 70.5015 39.4776C70.5583 39.8719 70.561 40.272 70.5095 40.6669C70.4055 41.9261 70.4315 43.1967 70.4404 44.4503C70.4562 46.6635 70.0471 48.8843 70.5288 51.0969C70.5581 51.3734 70.5521 51.6524 70.5109 51.9274C70.3792 53.7725 70.3574 55.6236 70.4456 57.4712C70.5466 58.7286 70.5538 59.9918 70.4673 61.2503C70.2844 63.6152 70.2365 65.993 70.1822 68.3669C70.1035 71.8158 70.1836 75.2661 70.3012 78.7149C70.2668 79.2145 70.4186 79.7094 70.728 80.1062C70.8431 79.5764 70.891 79.0345 70.8704 78.493C70.8771 77.5745 70.879 77.5746 71.3735 76.9482C71.4127 77.5695 71.4362 78.164 71.4917 78.7558C71.5396 79.2664 71.0975 79.851 71.6214 80.3554C71.7068 80.3043 71.7746 80.229 71.816 80.1392C71.8573 80.0494 71.8703 79.9494 71.8532 79.8522C71.9639 78.0765 71.8033 76.2982 71.809 74.5209C71.8188 71.4621 72.2239 68.4293 72.1446 65.3685C72.0841 63.0326 72.2817 60.6952 72.1392 58.3558C72.0581 57.7257 72.0101 57.0919 71.9952 56.4569C72.079 54.7273 72.0637 52.9945 71.9493 51.2667L71.9188 51.3024ZM36.2319 80.0829C36.3176 79.2872 36.8218 79.1735 37.6022 79.4627C37.4039 79.1191 37.2843 78.9209 37.1734 78.718C36.9055 78.2278 36.4839 78.3888 36.1309 78.5198C35.6402 78.7019 35.96 79.0045 36.0816 79.2789C36.2045 79.5283 36.2569 79.8058 36.2333 80.0822C36.6103 80.4224 37.0847 80.6388 37.5913 80.7018C38.3109 80.7182 39.0218 80.862 39.6901 81.1263C38.9735 81.8507 38.1707 81.1834 37.4612 81.3757C37.8438 82.1788 37.8495 82.1082 38.6078 82.1751C39.4595 82.2502 40.2993 82.4699 41.2121 82.6392C40.7368 83.3952 39.9528 82.7761 39.4527 83.2493C40.5231 83.4873 41.6202 83.5869 42.7165 83.5454C44.3176 83.5745 45.9135 83.4868 47.5214 83.5627C49.2416 83.7408 50.9755 83.747 52.6969 83.5813C53.3235 83.4536 53.9625 83.3943 54.6022 83.4047C56.1244 83.5009 57.6521 83.3809 59.1743 83.5638C59.5136 83.6046 59.9073 83.6505 60.1634 83.2923C60.6454 82.6183 61.1697 81.9712 61.6119 81.2728C62.005 80.6519 61.8718 80.4463 61.1233 80.3834C60.4072 80.3234 59.6893 80.2865 58.9179 80.2357C59.006 80.0559 59.0181 80.0008 59.0359 79.9991C59.4655 79.9029 59.9072 79.8698 60.3465 79.901C62.0896 80.2725 62.9393 79.353 63.4837 77.9247C63.5542 77.7397 63.6518 77.5636 63.7072 77.3746C63.7373 77.272 63.7518 77.1067 63.6928 77.0458C63.3789 76.722 62.9488 76.8219 62.5612 76.7926C62.3465 76.7764 62.048 76.726 62.1029 77.1233C62.1468 77.4412 61.9229 77.5241 61.6691 77.5623C61.4917 77.5891 61.266 77.4882 61.3113 77.3549C61.5429 76.6734 60.6612 76.8076 60.5299 76.3295C60.7956 76.3164 60.9938 76.3013 61.1922 76.2979C62.0362 76.2837 62.8803 76.2601 63.7244 76.2651C64.3543 76.2689 64.3493 75.7556 64.5039 75.3755C64.5257 75.3298 64.5358 75.2795 64.5332 75.229C64.5307 75.1786 64.5157 75.1295 64.4895 75.0861C64.4633 75.0428 64.4267 75.0064 64.3829 74.9803C64.3392 74.9541 64.2896 74.939 64.2385 74.9363C63.0263 74.8273 61.7746 74.1041 60.6203 75.1097C60.5018 75.213 60.3183 75.1533 60.1905 74.9998C60.2826 74.7182 60.4783 74.481 60.7389 74.3352C60.9996 74.1893 61.3061 74.1453 61.598 74.212C62.4353 74.2838 63.2722 74.3632 64.1103 74.4226C64.3851 74.442 64.6684 74.4557 64.8351 74.1411C65.1121 73.6186 64.9543 73.2519 64.3485 73.1278C63.4203 72.9377 62.4883 72.7664 61.3593 72.5488C62.0925 72.2703 62.8997 72.2463 63.6486 72.4806C65.1703 72.7155 65.3739 72.5582 65.4867 71.0727C65.5021 70.915 65.5289 70.7586 65.5668 70.6047C65.6046 70.4708 65.5954 70.3282 65.5406 70.2001C65.4858 70.0721 65.3886 69.9662 65.265 69.8998C64.3239 69.2906 63.2728 68.8664 62.1692 68.6503C61.8145 68.5684 61.4624 68.5323 61.2603 68.9805C61.1452 69.2357 60.8298 69.2956 60.7196 68.9975C60.5968 68.6656 60.4561 68.6598 60.1991 68.7819C59.9767 68.8875 59.7547 68.813 59.7216 68.6007C59.6767 68.3129 59.9312 68.2007 60.1852 68.175C60.6767 68.1255 61.2012 68.3838 61.6618 68.0845C61.6864 67.7135 61.4345 67.6515 61.2164 67.561C60.2721 67.2337 59.3522 66.8415 58.4634 66.3874C57.7284 65.8959 56.8644 65.6268 55.977 65.6131C55.3942 65.6449 54.813 65.5285 54.2888 65.2751C53.7646 65.0216 53.315 64.6395 52.9831 64.1653C52.5311 63.7044 51.928 63.4171 51.2815 63.3548C49.5567 62.9234 49.2746 62.2995 49.2666 60.7652C49.2625 59.9994 49.3313 59.9992 49.0063 59.3825C48.9461 59.5817 48.9067 59.7864 48.8885 59.9935C48.924 60.6545 48.8147 61.3153 48.5682 61.9309C48.3216 62.5464 47.9436 63.1022 47.4599 63.5604C46.8281 64.3052 45.9919 64.8539 45.0518 65.1405C44.1496 65.3247 43.3288 65.7845 42.7057 66.455C42.5547 66.6346 42.3615 66.7749 42.1429 66.8637C41.9243 66.9524 41.687 66.987 41.4517 66.9642C40.6168 66.9988 39.7939 67.1738 39.0186 67.4818C37.5804 67.9215 36.5419 69.057 35.0463 69.4025C35.4706 69.9208 36.1566 69.4234 36.6908 69.9909C36.0368 70.1532 35.3591 70.2014 34.6884 70.1332C34.0196 70.1341 34.0347 70.5986 34.0025 71.0261C33.9617 71.569 34.3748 71.5392 34.742 71.5548C34.9997 71.6026 35.266 71.5685 35.5029 71.4573C35.7397 71.3462 35.9347 71.1637 36.06 70.9362C36.1321 70.7996 36.3482 70.8004 36.4881 70.9088C36.5285 70.9384 36.5622 70.9759 36.5872 71.0189C36.6123 71.062 36.6281 71.1096 36.6337 71.1589C36.6394 71.2082 36.6347 71.2582 36.62 71.3056C36.6052 71.3531 36.5808 71.3971 36.5482 71.4348C36.4231 71.5916 36.2445 71.698 36.0457 71.7343C35.5931 71.9008 35.1127 71.9813 34.6299 71.9716C34.218 71.9449 34.06 72.1572 34.0755 72.5548C34.0901 72.9278 34.0595 73.2527 34.6192 73.271C35.2268 73.3257 35.8306 73.4153 36.4276 73.5395C36.2742 73.6717 36.0939 73.77 35.8988 73.8278C35.7038 73.8856 35.4985 73.9015 35.2967 73.8745C34.9334 73.9057 34.434 73.7209 34.4018 74.3577C34.3688 75.0086 34.8601 74.8553 35.2349 74.9099C35.5962 74.9625 36.0478 74.7972 36.2838 75.2626C35.7261 75.6314 35.0771 75.2037 34.4881 75.5006C34.6166 76.2569 34.8716 76.9868 35.2427 77.6605C35.357 77.8494 35.4617 78.1463 35.7792 77.9858C36.5395 77.6013 37.2551 78.1466 38.0422 78.0064L37.8813 79.3158C38.1936 79.6807 38.8045 79.3521 39.0422 79.9117C38.5712 80.1388 38.0344 80.1956 37.5254 80.0723C37.1008 79.9632 36.6546 79.9669 36.2319 80.0829ZM63.1304 19.4128C62.6116 18.0271 61.7896 16.7716 60.7232 15.7358C60.6641 15.6577 60.5857 15.5961 60.4954 15.5567C60.4051 15.5174 60.3061 15.5018 60.2079 15.5113C58.2153 15.5854 56.2201 15.5561 54.2306 15.4234C52.2246 15.3494 50.2165 15.3503 48.2095 15.3074C47.4099 15.238 46.607 15.2111 45.8045 15.2266C43.651 15.4348 41.4878 15.5306 39.3241 15.5133C38.7649 15.5396 38.211 15.6338 37.6751 15.794C37.3574 15.8681 36.6327 16.8255 36.7253 17.0791C36.9424 17.6733 37.4601 17.335 37.8571 17.3742C37.9981 17.3881 38.1922 17.3384 38.1919 17.6678C37.9698 17.8216 37.7147 17.9225 37.4466 17.9627C37.1784 18.0029 36.9045 17.9811 36.6462 17.8993C36.3213 17.8058 35.9741 17.7979 35.8155 18.1639C35.3774 18.9199 35.084 19.749 34.95 20.6099C34.919 21.2928 35.1545 21.5678 35.8418 21.6074C36.0765 21.621 36.3172 21.5107 36.5521 21.5236C36.8664 21.5408 37.3053 21.0077 37.4501 21.5421C37.5518 21.9172 36.9476 21.9382 36.6451 22.0754C36.3007 22.1959 35.9249 22.1958 35.5807 22.0751C34.7612 21.8731 34.7449 21.8817 34.6439 22.6944C34.6124 22.9484 34.4874 23.2246 34.5843 23.3604C35.6662 23.976 36.5402 22.9894 37.5201 23.2896C37.1746 23.5798 36.7704 23.7938 36.3344 23.9171C35.8984 24.0404 35.4408 24.0703 34.9922 24.0048C34.3515 23.8442 34.1927 24.0369 34.1607 24.5563C34.101 24.8527 34.1557 25.1605 34.3141 25.4191C34.723 25.247 35.1506 25.444 35.5903 25.4531C35.9972 25.4615 36.4412 25.0418 36.9601 25.5843C36.1077 25.9545 35.1528 26.0258 34.2538 25.7866C33.9857 26.6118 33.9425 27.4922 34.1284 28.3391C34.3246 29.408 34.4426 29.5473 35.5424 29.5447C35.9434 29.5197 36.3396 29.4446 36.7215 29.3212C36.9363 29.2665 37.1668 29.0944 37.4404 29.4305C36.4872 30.1676 35.3022 29.8775 34.2659 30.126C34.3746 31.0954 34.4337 31.1946 35.1754 31.1783C35.6569 31.2257 36.1432 31.1798 36.6069 31.0431C36.7969 30.9631 37.0258 30.9484 37.1036 31.1905C37.1876 31.4518 36.9638 31.5031 36.7668 31.5637C36.1062 31.7008 35.4322 31.7639 34.7573 31.7518C34.6696 32.3184 34.8624 32.6203 35.4143 32.7268C35.9938 32.8983 36.6087 32.917 37.1978 32.781C37.4375 32.7038 37.6969 32.6125 37.7552 32.9578C37.8092 33.2781 37.5248 33.3402 37.2838 33.3538C36.6759 33.3881 36.0664 33.3985 35.3286 33.4227C36.1866 34.8864 37.6027 34.1199 38.6936 34.5569C37.8813 35.042 37.8813 35.042 36.2413 34.9711C36.4071 35.2691 36.6338 35.5299 36.907 35.737C37.1802 35.944 37.4939 36.0928 37.8283 36.1738C38.1627 36.2549 38.5104 36.2665 38.8496 36.208C39.1888 36.1494 39.5119 36.0219 39.7986 35.8336C40.6216 35.238 41.6651 35.163 42.4887 34.5865C42.7529 34.4839 43.047 34.4857 43.3099 34.5915C44.0964 34.8537 44.9227 34.9799 45.7527 34.9645C46.9604 34.9276 48.1841 35.8546 49.3971 34.9203C49.4814 34.8553 49.7085 34.9368 49.8547 34.9899C50.2806 35.1087 50.6909 35.2766 51.0769 35.4903C51.5096 35.79 52.0399 35.9193 52.564 35.8531C53.3139 35.8893 54.0655 35.845 54.8057 35.7211C54.978 35.6585 55.162 35.634 55.3449 35.6491C55.5277 35.6643 55.705 35.7187 55.8643 35.8087C56.1858 35.9625 56.5476 36.0142 56.9001 35.9569C58.3102 35.9604 59.7039 35.7745 61.1054 35.7142C61.382 35.7201 61.6553 35.6547 61.8984 35.5244C62.1415 35.3942 62.346 35.2035 62.4918 34.9713C62.9203 34.2957 63.2444 33.5607 63.4534 32.7907C62.3709 32.5296 61.2755 33.0218 60.2434 32.5176C60.4537 32.2357 60.6606 32.3401 60.8479 32.3209C61.73 32.3327 62.6085 32.209 63.4521 31.9542C63.7284 31.8366 63.9566 31.727 64.0265 31.4191C64.2493 30.6195 64.4134 29.8051 64.5176 28.9821C64.5621 28.4165 64.3443 28.1902 63.7503 28.2296C62.8282 28.2908 61.9013 28.2917 60.9763 28.3159C60.8493 28.3417 60.7183 28.3418 60.5913 28.3162C60.4643 28.2905 60.3438 28.2397 60.2372 28.1667C60.5352 27.863 60.8352 27.9583 61.1021 27.9299C62.0988 27.8239 63.1001 27.7541 64.0938 27.6281C64.7064 27.5505 64.8148 27.2589 64.7571 26.4754C64.7157 25.9122 64.3817 26.031 64.0109 26.0121C62.8895 26.0375 61.7719 26.1494 60.6682 26.3469C60.4219 26.372 60.1713 26.422 60.1356 25.9475C61.6252 25.6687 63.1293 25.4713 64.641 25.3563C64.641 24.9059 64.6611 24.4714 64.6374 24.039C64.6665 23.7267 64.6257 23.4119 64.5181 23.1169C64.4104 22.8219 64.2385 22.5539 64.0144 22.3317C63.7904 22.1096 63.5196 21.9388 63.2213 21.8314C62.9231 21.724 62.6046 21.6826 62.2883 21.7102C61.8874 21.6874 61.4835 21.7291 61.0815 21.7164C60.8234 21.7083 60.5127 21.8655 60.275 21.4348C61.45 21.1726 62.6638 21.1261 63.8559 21.2975C63.4279 20.4794 63.287 20.3426 62.5222 20.1624C61.3384 19.9217 60.121 19.889 58.9257 20.0657C58.7375 20.0871 58.5458 20.2079 58.3697 19.8528C59.9464 19.6133 61.5361 19.4664 63.1304 19.4128ZM62.2532 83.3699C62.7667 83.3425 63.1201 83.3018 63.473 83.3094C64.2666 83.1919 65.0744 83.2038 65.8642 83.3445C66.6444 83.6291 67.3727 83.3317 68.1219 83.4075C68.1823 83.4186 68.2446 83.4134 68.3022 83.3923C68.3598 83.3712 68.4105 83.3352 68.449 83.2879C68.4875 83.2406 68.5123 83.184 68.5208 83.1239C68.5293 83.0638 68.5211 83.0026 68.4972 82.9467C68.4156 82.5254 68.4452 82.0904 68.5829 81.6836C68.7207 81.2768 68.9622 80.9119 69.284 80.6239C69.445 80.4588 69.5665 80.2601 69.6396 80.0425C69.7127 79.8249 69.7356 79.5939 69.7065 79.3664C69.4528 77.0423 69.3735 74.7027 69.4691 72.367C69.4639 69.8321 69.4526 67.2916 69.6094 64.765C69.7347 62.7443 69.8157 60.7179 69.7591 58.7054C69.6563 55.052 69.8189 51.4031 69.6755 47.7476C69.5516 44.5886 69.6712 41.4209 69.6268 38.2547C69.5873 35.4389 69.3965 32.6251 69.4438 29.8061C69.4848 27.3612 69.2851 24.906 69.5437 22.4707C69.679 21.1708 69.6676 19.86 69.5098 18.5625C69.4783 18.2959 69.5408 17.9936 69.1437 17.9127C68.8093 17.8264 68.5081 17.6444 68.2781 17.3894C68.0482 17.1345 67.8997 16.818 67.8514 16.4799C67.8327 16.289 67.7392 16.1128 67.5909 15.989C67.4425 15.8653 67.2511 15.8036 67.0574 15.8173C65.8696 15.6881 64.6721 15.6712 63.4811 15.7667C62.5201 15.8534 62.2905 16.1181 62.7595 16.9844C63.6153 18.427 64.2892 19.9676 64.7663 21.5719C65.1082 22.7886 65.3756 24.0246 65.567 25.2732C65.6724 26.5373 65.6053 27.8097 65.3675 29.0561C65.117 31.0053 64.5451 32.9009 63.6743 34.6675C62.6335 36.7572 61.162 38.609 59.3541 40.1039C57.3936 41.6404 56.0084 43.7795 55.4183 46.1818C55.0842 47.8072 54.8994 49.459 54.8662 51.1172C54.8502 52.271 55.0649 53.4166 55.4979 54.4883C55.931 55.56 56.5738 56.5368 57.3898 57.3626C57.6285 57.6853 57.9211 57.9654 58.255 58.191C59.6165 59.0336 60.9301 59.9494 62.1898 60.9345C63.5427 61.9618 64.5492 63.3695 65.0771 64.9724C65.5729 66.3165 65.9668 67.6952 66.2556 69.0969C66.3306 69.4809 66.5889 69.7865 66.5512 70.2284C66.3095 72.5492 65.8859 74.848 65.2842 77.1041C65.1839 77.3624 65.0565 77.6096 64.9041 77.8418C64.0144 79.6364 63.3715 81.5424 62.2532 83.3699ZM36.1448 15.9596C35.1697 15.5123 34.1408 15.9243 33.2523 15.6318C32.6998 15.4052 32.0798 15.4001 31.5235 15.6175C30.9673 15.8349 30.5187 16.2577 30.2728 16.7964C30.1152 16.9911 30.0026 17.2175 29.9427 17.4597C29.8828 17.7019 29.8772 17.9541 29.9261 18.1987C30.163 19.483 30.3521 20.7785 30.4878 22.0762C30.6168 23.8168 30.576 25.5655 30.366 27.2984C30.2704 27.9659 30.2223 28.6393 30.2222 29.3135C30.3747 31.007 30.3358 32.712 30.1063 34.397C29.9023 36.0096 29.8535 37.6377 29.9606 39.2594C30.0081 41.1552 29.8314 43.0527 30.0574 44.9468C30.0928 45.1838 30.0896 45.4248 30.0479 45.6608C29.8442 47.3522 29.7864 49.0576 29.8748 50.7588C29.8708 51.0364 29.9053 51.3133 29.9774 51.5817C30.3977 53.3024 29.9658 55.0668 30.3031 56.7911C30.3098 56.8708 30.2976 56.9509 30.2674 57.0251C30.0369 58.0331 30.0081 59.0758 30.1824 60.0947C30.2231 60.3272 30.2373 60.5634 30.225 60.799C30.0663 62.0533 30.0125 63.3185 30.0641 64.5815C30.1078 66.8846 30.131 69.1879 30.1338 71.4913C30.1347 73.3957 30.509 75.289 30.3393 77.197C30.2695 77.9819 30.1957 78.7665 30.1351 79.5522C30.0998 79.7885 30.141 80.0298 30.2528 80.2416C30.3646 80.4534 30.5413 80.6249 30.7576 80.7316C31.1449 80.9034 31.4866 81.1613 31.756 81.4853C32.0254 81.8094 32.2152 82.1906 32.3105 82.5992C32.3954 83.0797 32.8162 83.2378 33.3294 83.2416C34.6892 83.1715 36.0519 83.1819 37.4104 83.2727C37.5248 83.2871 37.6267 83.1933 37.6341 83.0244C36.6169 81.8113 35.7256 80.5004 34.9735 79.1115C34.0237 77.14 33.427 75.0208 33.21 72.8479C32.9138 70.437 33.2681 67.9917 34.2368 65.7596C35.3328 63.039 37.1605 60.6659 39.5225 58.8967C40.3837 58.1981 41.1857 57.4312 41.9205 56.6036C42.1632 56.291 42.4318 55.9989 42.7235 55.7302C44.0556 54.6956 44.9589 53.2158 45.2635 51.5692C45.3634 50.9845 45.4326 50.395 45.4707 49.8031C45.7731 47.9042 45.3769 45.9611 44.3539 44.3258C44.213 44.0387 44.0174 43.7811 43.778 43.567C43.0914 43.0119 42.4502 42.4041 41.8605 41.7494C41.3584 41.2316 40.8099 40.7599 40.2216 40.3398C38.7716 39.3922 37.4995 38.2027 36.462 36.8245C34.0249 33.652 32.8875 29.689 33.2765 25.7252C33.3932 24.0257 33.8296 22.3876 34.0324 20.7049C34.083 19.3913 34.5376 18.1242 35.3357 17.0723C35.6108 16.7562 36.0222 16.5165 36.1448 15.9596ZM64.39 86.8635C64.4027 86.0572 64.3022 85.253 64.0912 84.474C64.0061 83.9555 63.7879 83.6733 63.2136 83.802C61.6833 84.0887 60.1218 84.1783 58.5681 84.0686C55.8452 83.9755 53.1265 84.1041 50.414 84.265C48.4046 84.3842 46.419 84.07 44.4206 84.0811C43.4195 84.0866 42.4163 84.1812 41.4189 84.1289C40.2573 84.068 39.0931 84.0146 37.9347 83.927C36.259 83.8002 34.5839 83.8387 32.9094 83.7738C31.6238 83.7242 30.3363 83.7597 29.0555 83.8801C27.9838 83.9779 26.9374 84.2584 25.9627 84.7092C25.6362 84.8614 25.2825 84.9906 25.1642 85.3746C24.8723 86.1129 24.7282 86.9001 24.7397 87.6926C24.7688 88.0317 24.8516 88.4167 25.2171 88.4228C25.9205 88.4346 26.5286 88.8273 27.2098 88.8481C29.8479 89.0714 32.4993 89.0946 35.141 88.9175C37.6373 88.6135 40.0971 89.2783 42.5735 89.0117C42.7256 88.9954 42.8877 89.0878 43.046 89.0926C44.4413 89.1355 45.8375 89.2055 47.2317 89.1878C47.7134 89.1816 48.1842 89.2155 48.6606 89.2312C50.6945 89.3811 52.7364 89.3917 54.7718 89.2631C56.1629 89.117 57.5495 89.1652 58.934 89.0448C61.4389 88.827 63.9481 89.238 66.3944 89.2324C66.3944 88.0701 66.4329 86.9343 66.3777 85.8021C66.3513 85.2591 66.7055 84.6374 66.3164 84.1977C65.9369 83.7686 65.2446 84.0397 64.7253 83.832C64.633 83.7951 64.5647 83.8259 64.5128 83.9396C64.7078 84.91 64.6657 85.9124 64.39 86.8635ZM53.9403 10.2092C53.5599 10.0052 53.1341 9.89801 52.7012 9.89733C51.6081 9.73589 50.5654 10.2012 49.4893 10.1022C47.5332 9.92224 45.5752 10.0506 43.6172 9.98275C39.9281 9.85486 36.2332 9.96982 32.5409 9.92567C30.4079 9.90015 28.3015 10.1659 26.1821 10.2843C25.8242 10.3196 25.4734 10.4062 25.1407 10.5413C24.9473 10.6011 24.7754 10.7149 24.646 10.8689C24.5166 11.023 24.435 11.2108 24.4112 11.4096C24.2827 12.2849 24.4977 13.1756 25.0122 13.8993C25.2275 14.1338 25.4889 14.3224 25.7805 14.4536C26.0721 14.5848 26.3877 14.6558 26.7081 14.6624C27.1886 14.721 27.6759 14.6917 28.1456 14.5758C28.4496 14.4623 28.782 14.4461 29.0958 14.5296C30.0279 14.7637 30.9885 14.8687 31.9499 14.8414C34.3888 15.0231 36.8375 15.0376 39.2784 14.8848C42.4727 14.6211 45.6792 14.5293 48.8836 14.6098C49.5085 14.6364 49.7504 14.4109 49.744 13.7949C49.8316 13.0524 49.8558 12.304 49.8162 11.5575C49.7506 11.1935 49.7869 10.8402 50.1754 10.8277C50.6674 10.8119 50.5236 11.2311 50.4819 11.5269C50.3769 12.2729 50.2372 13.015 50.1646 13.7642C50.0942 14.491 50.1994 14.5787 50.9547 14.5956C52.358 14.559 53.7622 14.5972 55.1613 14.7099C56.9139 14.938 58.685 14.6212 60.424 15.0437C60.864 15.0927 61.3082 15.0916 61.748 15.0404C62.1894 15.0414 62.4293 14.8728 62.3762 14.3982C62.2878 13.6086 62.2725 12.806 62.1119 12.0311C62.0037 11.7329 61.9826 11.4107 62.0512 11.1013C62.1197 10.7919 62.275 10.5078 62.4994 10.2815C62.3824 10.1717 62.2421 10.0891 62.0887 10.0396C61.9353 9.99012 61.7726 9.97504 61.6126 9.99546C61.0391 9.96439 60.8081 10.1568 60.7514 10.7998C60.5611 11.7701 60.4279 12.7506 60.3524 13.7362C60.3566 13.8902 60.3413 14.1606 59.8693 14.0536C60.1705 12.7764 59.8625 11.4538 60.1825 10.1086C59.5508 9.90285 58.8633 9.94307 58.2605 10.2211C58.3862 10.4222 58.6046 10.613 58.5753 10.7501C58.3399 11.8528 57.9217 12.9073 57.7527 14.038C57.6133 13.7835 57.5706 13.4882 57.632 13.2053C57.7535 12.3082 57.779 11.4009 57.7081 10.4984C57.6673 10.1373 57.4662 10.156 57.2748 10.0685C57.025 9.95442 56.925 10.1277 56.817 10.3062C56.5282 10.8286 56.3384 11.3986 56.2569 11.9883C56.1921 12.3425 56.2619 12.7588 55.7661 13.1312C55.7661 12.1167 55.7668 11.249 55.7659 10.3813C55.7653 9.8532 55.3541 9.85556 55.0023 9.84185C54.6621 9.8286 54.4407 9.92026 54.3952 10.3706C54.2989 11.3244 54.0917 12.2663 53.9299 13.2131C53.8848 12.2149 53.2156 11.2126 53.9403 10.2092ZM51.4644 54.5947L51.4774 54.3146C52.2261 54.3211 52.9749 54.3221 53.7235 54.3374C53.9332 54.3418 54.1453 54.342 54.2554 54.1513C54.3374 53.9909 54.3765 53.8125 54.3689 53.633C54.3614 53.4535 54.3074 53.2789 54.2121 53.1258C54.1169 52.9728 53.9836 52.8464 53.8248 52.7586C53.6661 52.6709 53.4873 52.6248 53.3054 52.6247C52.9041 52.6153 52.5019 52.608 52.1018 52.5763C51.7625 52.5495 51.3878 52.776 50.997 52.4698C51.7742 52.193 52.5971 52.0628 53.423 52.0862C54.0692 52.0276 54.2166 51.7302 54.1196 50.9008C54.0427 50.2437 53.6195 50.4216 53.233 50.4844C52.6627 50.6755 52.0515 50.715 51.4609 50.5988C52.1598 50.2413 52.8947 49.9571 53.6535 49.7509C53.7317 49.7381 53.8066 49.7102 53.8738 49.6687C53.941 49.6272 53.9993 49.573 54.0452 49.5092C54.0911 49.4454 54.1238 49.3732 54.1413 49.2968C54.1588 49.2205 54.1609 49.1414 54.1473 49.0643C54.1347 48.6943 53.836 48.6544 53.5351 48.6537C52.8827 48.6996 52.2286 48.5938 51.6253 48.3447C52.1696 48.1046 52.7749 48.0333 53.3611 48.1404C54.0971 48.1988 54.3867 47.8688 54.4739 47.2271C54.49 47.1092 54.5257 46.9938 54.5372 46.8757C54.5859 46.377 54.9711 45.8384 54.6242 45.3958C54.344 45.0385 53.7975 45.2201 53.3625 45.2127C53.2824 45.221 53.2014 45.2109 53.1258 45.1833C53.0502 45.1556 52.9821 45.1112 52.9267 45.0533C52.5782 44.6294 52.2818 44.9698 52.1822 45.2024C51.6139 46.1047 51.1449 47.0645 50.7832 48.0652C50.4136 50.2079 50.2033 52.3743 50.1541 54.5473C50.1461 54.7467 50.1769 54.9457 50.2447 55.1336C50.3888 55.5892 50.3882 56.0775 50.243 56.5328C49.933 58.0097 49.941 59.5345 50.2664 61.0082C50.2886 61.3646 50.4303 61.7035 50.669 61.9715C50.9078 62.2396 51.2301 62.4216 51.5851 62.4887C52.5377 62.6804 53.3938 63.1918 54.008 63.9361C54.218 64.2285 54.5017 64.4616 54.831 64.6122C55.1603 64.7629 55.5237 64.8259 55.8853 64.795C56.8495 64.7075 57.8148 64.9511 58.6184 65.4846C59.1562 65.8976 59.7966 66.1599 60.4725 66.2439C61.8544 66.2864 63.2374 66.2768 64.6428 66.2889C64.3675 64.9452 64.3674 64.9468 63.3109 64.8713C62.4332 64.8086 61.5546 64.7543 60.6793 64.6654C60.5035 64.6475 60.1784 64.8775 60.1329 64.3925C61.2909 64.0749 62.4944 64.4791 63.6672 64.3093C63.4909 63.4705 63.0618 62.7041 62.4363 62.1107C61.9668 61.6724 61.4575 61.2776 60.9149 60.9313C60.4187 60.6494 60.2966 61.4188 59.8428 61.2269C59.646 61.1872 59.4444 61.1757 59.2442 61.1929C58.4446 61.1222 57.6448 61.0514 56.8464 60.9677C56.5867 60.9405 56.2609 61.0029 56.1826 60.6277C57.437 60.2739 58.76 60.9191 60.1077 60.5024C59.5558 59.904 58.8918 59.4168 58.1524 59.0677C57.4902 58.7865 56.7891 58.6044 56.0725 58.5275C55.3454 58.3296 54.5742 58.606 53.8632 58.2296C54.7682 57.9984 55.7028 57.9003 56.6368 57.9383C56.3376 57.452 56.2034 57.0943 55.6054 57.1057C54.8832 57.0874 54.1637 57.0129 53.4535 56.8827C53.1248 56.8369 52.7362 56.8708 52.4588 56.4196C53.5193 56.2167 54.5483 56.912 55.4915 56.337C55.2993 55.4261 54.9327 54.9122 53.8829 54.907C53.0638 54.9601 52.2422 54.854 51.4644 54.5947ZM37.8107 67.1426C36.939 66.8265 36.2288 67.1698 35.5766 66.8886C35.4439 66.8313 35.254 66.7831 35.279 66.5742C35.3049 66.3576 35.4841 66.3414 35.6354 66.384C36.4655 66.5128 37.3041 66.5806 38.1442 66.5869C38.5017 66.6342 38.8754 66.7928 39.1956 66.6066C39.7346 66.3319 40.3493 66.2378 40.9472 66.3383C41.2462 66.3672 41.5476 66.3198 41.8228 66.2008C42.0979 66.0817 42.3375 65.8949 42.5187 65.6582C42.753 65.3615 43.046 65.1149 43.3798 64.9335C43.7136 64.752 44.0813 64.6395 44.4605 64.6028C44.9407 64.5418 45.3904 64.3369 45.7491 64.0157C46.3497 63.6067 46.8615 63.0832 47.2544 62.476C47.6472 61.8689 47.9132 61.1902 48.0368 60.48C48.3844 58.1695 47.671 55.8123 48.4558 53.5494C48.497 53.2738 48.4669 52.9923 48.3681 52.7312C48.2932 52.4637 48.2536 52.1877 48.2502 51.9101C48.2829 50.6116 48.4757 49.3262 48.5255 48.0259C48.5827 47.6986 48.5585 47.3625 48.455 47.0465C48.3514 46.7305 48.1716 46.4441 47.931 46.212C47.4109 45.7747 47.3593 44.8137 46.383 44.8712C46.3119 44.8824 46.239 44.8771 46.1703 44.8556C46.1016 44.8341 46.0389 44.797 45.9873 44.7473C45.9356 44.6976 45.8965 44.6367 45.8729 44.5694C45.8494 44.5021 45.842 44.4303 45.8516 44.3597C45.9106 43.5819 45.2361 43.5919 44.7344 43.3683C45.5116 44.4221 46.0729 45.6157 46.3865 46.8821C46.4707 47.152 46.6923 47.2172 46.9531 47.2344C47.1667 47.2485 47.4349 47.139 47.5605 47.4392C47.4836 47.5557 47.3784 47.6514 47.2545 47.7175C47.1306 47.7836 46.9919 47.8179 46.8511 47.8175C46.2333 47.9025 46.3721 48.3323 46.441 48.7264C46.5249 49.2065 46.8414 49.0978 47.1712 49.0348C47.3012 48.9773 47.4442 48.9548 47.5858 48.9694C47.7275 48.9841 47.8627 49.0354 47.9778 49.1182C47.8414 49.2352 47.6886 49.3322 47.5241 49.406C46.4316 49.6626 46.1367 50.3921 46.1629 51.4234C46.191 52.534 46.1393 52.5348 47.2423 52.8651C46.8882 53.2 46.4437 52.9966 46.0896 53.1295C45.5816 53.3202 45.5157 53.807 45.9657 54.1755C46.0725 54.2629 46.2981 54.2566 46.1756 54.4715C45.8145 54.8426 45.2269 54.5031 44.9439 54.7882C44.0035 55.6171 43.2067 56.5923 42.585 57.6752C43.0089 58.1899 43.6894 57.8182 44.3484 58.3688C43.4552 58.3536 42.8348 58.8324 42.2173 58.2921C42.0355 58.133 41.924 58.186 41.8307 58.3007C41.5474 58.6492 41.0591 58.8476 40.9663 59.3448C41.3589 59.5768 41.9189 59.2178 42.1567 59.7828C41.8589 59.9168 41.5361 59.988 41.2089 59.9917C40.8817 59.9953 40.5574 59.9315 40.2566 59.8043C40.11 59.7705 40.0181 59.7984 39.9614 59.8905C39.8028 60.1487 39.3745 60.179 39.3722 60.6093C39.8013 60.8356 40.3773 60.686 40.8726 61.1191C39.7289 61.4995 38.3608 61.0275 37.5482 62.2222C38.3704 62.5552 39.2197 62.3667 39.9285 62.8208C39.1503 62.9349 38.365 62.9947 37.5783 62.9996C37.2693 63.01 36.9034 62.8925 36.7084 63.245C35.893 64.719 34.6913 66.0224 34.6252 67.8302C35.7918 68.303 36.7074 67.782 37.8107 67.1426ZM58.8129 37.3326C57.6746 36.3174 56.1765 37.1857 55.0156 36.4875C54.9501 36.4481 54.7969 36.5833 54.6812 36.5901C53.2686 36.6732 51.8473 37.0291 50.5017 36.1555C50.2296 35.946 49.8971 35.8273 49.5522 35.8167C49.2073 35.806 48.8679 35.9039 48.5831 36.0962C48.4447 36.1777 48.2879 36.2239 48.1269 36.2306C47.9659 36.2373 47.8058 36.2043 47.661 36.1345C46.2617 35.6415 44.726 35.9074 43.3319 35.3518C43.0961 35.2915 42.8463 35.3144 42.6258 35.4166C41.904 35.6556 41.2568 36.0548 40.5318 36.2994C39.9604 36.4922 39.8406 37.4816 40.3218 37.6153C41.1328 37.8405 41.7257 38.5922 42.6421 38.5259C42.704 38.5227 42.7647 38.5425 42.8125 38.5814C42.8602 38.6204 42.8915 38.6755 42.9001 38.7361C42.9287 38.9321 42.8201 39.0098 42.6185 38.9809C41.8694 38.8735 42.0883 39.3056 42.3229 39.5988C42.7374 40.148 43.3473 40.5215 44.0297 40.6442C44.7544 40.7214 45.4648 40.898 46.1402 41.1689C45.7281 41.4509 45.2255 41.125 44.8372 41.5153C44.9911 41.9245 45.2874 42.2664 45.6729 42.4797C46.2363 42.7281 46.992 42.7242 47.0567 43.5815C48.129 44.5762 48.9808 45.7799 49.558 47.1163C49.6455 47.2963 49.706 47.5135 49.9552 47.4976C50.2 47.482 50.2123 47.2474 50.302 47.0767C50.7988 46.1307 51.0325 45.0061 52.105 44.4429C52.157 44.4133 52.2023 44.3736 52.2382 44.326C52.274 44.2785 52.2997 44.2243 52.3136 44.1666C52.4296 43.3322 53.1295 43.0655 53.7323 42.6936C54.2276 42.4388 54.6889 42.1242 55.1057 41.757C55.6355 41.2047 56.6192 41.0037 56.6564 40.0831C56.6741 39.647 56.8237 39.557 57.1687 39.4698C57.8566 39.2373 58.4274 38.752 58.7625 38.1146C58.2108 37.8528 57.5652 38.308 57.1511 37.738C57.6978 37.473 58.3324 37.7689 58.8129 37.3326ZM68.4167 84.0625C68.2293 84.0292 68.0403 84.0061 67.8504 83.9932C66.8462 83.9935 66.8354 83.9991 66.8202 84.9709C66.8015 86.1621 66.807 87.354 66.7811 88.5449C66.7709 89.0191 66.8822 89.2551 67.4468 89.2496C69.6875 89.2281 71.9061 88.9389 74.1379 88.8142C74.8964 88.7718 75.099 88.4893 75.0752 87.7436C75.0512 86.9898 75.0434 86.2345 74.9834 85.483C74.904 84.489 74.9342 84.4495 76.026 84.7463C75.7515 84.4409 75.4116 84.1995 75.0311 84.0398C74.6505 83.8801 74.2387 83.806 73.8256 83.8228C72.4222 83.7694 71.0149 83.8014 69.6107 83.8395C68.8229 83.8609 68.719 83.9631 68.7567 84.772C68.8142 86.0052 68.4839 87.2082 68.5224 88.4435C68.316 86.9921 68.2806 85.522 68.4167 84.0625ZM29.611 31.7046C29.5501 30.7053 29.5569 29.7031 29.6315 28.7048C29.9823 25.7483 29.9533 22.7598 29.5452 19.8105C29.572 19.4427 29.5181 19.0736 29.3872 18.7282C29.2562 18.3829 29.0513 18.0696 28.7864 17.8098C28.4767 19.7954 28.8461 21.6955 28.5589 23.557C28.553 23.595 28.6609 23.6512 28.8013 23.7734L28.9903 21.9263C29.295 23.1176 29.4238 24.3461 29.3729 25.5738C29.1762 26.9085 29.3854 28.2414 29.3135 29.5748C29.192 30.2981 29.2958 31.0408 29.611 31.7046ZM65.3942 68.7279C65.3225 68.2191 65.1737 67.7238 64.9528 67.2588C64.896 67.1022 64.7953 66.9633 64.6197 66.9616C63.8084 66.8103 62.9825 66.7488 62.1573 66.7785C62.6913 68.3697 64.2292 68.0526 65.3942 68.7279ZM69.9234 83.2906C70.9068 83.3195 70.8856 83.3166 71.0455 82.0944C71.0911 81.9444 71.0929 81.7848 71.0508 81.6338C71.0086 81.4828 70.9243 81.3467 70.8074 81.2409C70.3576 81.2031 69.9092 81.3285 69.5463 81.5937C69.3055 81.9112 69.1983 82.3083 69.2468 82.7021C69.3268 83.1158 69.4807 83.3698 69.9234 83.2906ZM29.5233 81.9004C28.8523 81.9721 28.8226 82.4638 28.914 82.9304C29.0109 83.4257 29.4789 83.2523 29.8122 83.276C30.0524 83.2871 30.2932 83.2791 30.5323 83.2522C30.8329 83.2259 31.2524 83.422 31.3963 83.0713C31.5434 82.7129 31.2348 82.4106 30.985 82.1478C30.7675 81.919 30.5854 81.64 30.2275 81.602C29.9113 81.9402 30.1019 82.5038 29.7164 82.829C29.4341 82.53 29.7777 82.1635 29.5233 81.9004ZM71.8837 82.174C71.9702 82.1148 72.0366 82.1246 72.0806 82.2046C72.2596 82.5293 71.9338 82.8945 72.1733 83.2458L73.395 83.0317C73.2235 82.635 73.073 82.3124 72.9441 81.9818C72.8661 81.8203 72.7476 81.6813 72.5997 81.5779C72.4519 81.4746 72.2797 81.4105 72.0996 81.3916C71.8287 81.3249 71.449 81.3913 71.4532 81.7298C71.4588 82.1718 71.1468 82.6333 71.472 83.1126C71.8594 82.8654 71.5597 82.3869 71.8837 82.174ZM27.6711 15.1531C27.4269 15.168 27.1464 15.1776 26.8676 15.2044C26.6545 15.225 26.4805 15.315 26.4846 15.5614C26.4832 15.6613 26.5098 15.7596 26.5615 15.8454C26.6131 15.9312 26.6879 16.0012 26.7774 16.0476C26.8972 16.1219 27.0356 16.1617 27.1771 16.1624C27.3185 16.163 27.4574 16.1246 27.5779 16.0514C27.6497 15.9912 27.7404 15.9574 27.8346 15.9559C27.9288 15.9544 28.0206 15.9853 28.0943 16.0433C28.5368 16.3027 28.7484 16.1634 28.7088 15.7019C28.6499 15.0191 28.1148 15.2074 27.6711 15.1531ZM60.3768 37.7716C60.8732 37.3414 61.298 36.8366 61.6354 36.2758C60.8924 36.1465 60.1317 36.1532 59.3911 36.2955C59.9289 36.7765 60.3835 37.1058 60.3768 37.7716ZM53.0931 44.6813C53.5825 44.7268 53.9801 44.7738 54.379 44.798C54.5607 44.8037 54.7391 44.7487 54.8854 44.6421C55.0318 44.5354 55.1375 44.3832 55.1857 44.21C55.2588 44.0476 55.2353 43.8656 55.0413 43.8407C54.611 43.7579 54.1714 43.7329 53.7344 43.7664C53.3366 43.8243 53.2741 44.2589 53.0931 44.6813ZM38.9931 38.0991C38.6805 37.6433 39.468 37.1904 39.2057 36.8027C38.8665 36.3016 38.2666 36.8266 37.7815 36.738C37.7442 36.7312 37.6884 36.8279 37.5979 36.9212L38.9931 38.0991ZM29.4779 56.936C29.6427 55.6367 29.5659 54.3186 29.2512 53.0466C29.0827 54.3458 29.1596 55.6645 29.4779 56.936ZM28.3796 82.5702C28.3788 82.3845 28.5989 82.0665 28.3062 81.9736C27.9451 81.8589 27.8643 82.1921 27.8173 82.4826C27.7687 82.7824 27.6002 82.894 27.2806 82.9848C26.9497 83.0788 27.0955 83.3684 27.3572 83.4793C28.0009 83.7521 28.3255 83.4652 28.3796 82.5702ZM75.6231 87.801C76.0762 87.1916 76.266 86.4295 76.151 85.682C76.1467 85.6324 76.1325 85.5841 76.1092 85.5399C76.0859 85.4957 76.0539 85.4566 76.0152 85.4247C75.9765 85.3927 75.9317 85.3687 75.8835 85.354C75.8354 85.3393 75.7847 85.3341 75.7345 85.3389C75.6947 85.3418 75.6561 85.3533 75.6213 85.3726C75.5865 85.3919 75.5564 85.4185 75.5332 85.4506C75.51 85.4826 75.4942 85.5193 75.4869 85.558C75.4796 85.5968 75.4811 85.6366 75.4911 85.6748C75.4683 86.386 75.5125 87.0979 75.6231 87.801ZM41.236 40.0314C41.295 38.7262 41.0863 38.5709 39.9278 39.1529C40.4314 39.405 40.7098 39.8578 41.236 40.0314ZM49.3375 52.3313C49.5104 52.0707 49.6048 51.767 49.6099 51.4554C49.6149 51.1439 49.5303 50.8374 49.366 50.5714C49.1454 51.1361 49.1353 51.7599 49.3375 52.3313ZM72.908 16.4276C72.9158 16.2069 72.8345 16.0532 72.5857 16.0427C72.2711 16.0295 71.9213 15.9688 71.915 16.4501C71.9118 16.6917 71.9182 16.9432 72.2472 16.9553C72.326 16.9654 72.406 16.9597 72.4825 16.9383C72.5589 16.917 72.6302 16.8806 72.692 16.8312C72.7538 16.7819 72.8048 16.7207 72.8419 16.6513C72.879 16.5819 72.9015 16.5058 72.908 16.4276ZM29.5189 16.481C29.6668 16.4247 29.7913 16.3212 29.8728 16.187C29.9542 16.0527 29.9879 15.8955 29.9685 15.7401C29.9335 15.5153 29.7546 15.3613 29.5455 15.4366C29.1964 15.5624 29.1513 15.8878 29.192 16.2133C29.193 16.2531 29.2026 16.2921 29.2201 16.3279C29.2377 16.3637 29.2628 16.3953 29.2938 16.4207C29.3248 16.4461 29.3609 16.4646 29.3997 16.475C29.4386 16.4854 29.4792 16.4875 29.5189 16.481ZM55.8574 42.3036C55.3425 42.5359 54.9093 42.5775 54.7999 43.0779C54.7916 43.1159 54.8941 43.2232 54.9424 43.222C55.4073 43.2095 55.7657 43.0498 55.8574 42.3036ZM69.3481 16.8896C69.5514 16.1276 69.5444 16.0703 69.2788 15.9005C69.2468 15.877 69.21 15.8609 69.171 15.8531C69.132 15.8453 69.0917 15.8462 69.053 15.8555C69.0144 15.8649 68.9783 15.8826 68.9474 15.9074C68.9164 15.9321 68.8914 15.9633 68.8741 15.9987C68.6758 16.3989 68.9799 16.6408 69.2321 16.8854C69.2524 16.9051 69.3086 16.8886 69.3481 16.8896ZM49.6034 49.6224C49.8721 49.0352 50.1047 48.6756 49.5628 48.2096C49.4189 48.6722 49.4332 49.1687 49.6034 49.6224ZM71.1531 15.9957C71.0577 16.0202 70.974 16.077 70.9168 16.1563C70.8595 16.2355 70.8323 16.3321 70.8399 16.4292C70.8326 16.6336 70.9917 16.7086 71.1485 16.7067C71.4015 16.7035 71.454 16.5138 71.4431 16.3C71.4449 16.2218 71.4155 16.146 71.3613 16.0891C71.307 16.0321 71.2322 15.9986 71.1531 15.9957ZM69.9964 15.9946C69.7772 15.9774 69.709 16.1179 69.6974 16.2776C69.6809 16.507 69.6661 16.7672 69.9568 16.8506C70.1924 16.9183 70.1982 16.6958 70.2112 16.5623C70.2321 16.3478 70.3166 16.0852 69.9964 15.9946ZM43.3987 41.9263C43.4074 42.0666 43.3965 42.113 43.4145 42.1423C43.5195 42.3141 43.638 42.4812 43.8637 42.4919C43.9182 42.4944 44.0294 42.4081 44.0235 42.3885C43.9611 42.1805 43.7664 42.099 43.5998 41.9927C43.5347 41.965 43.4675 41.9428 43.3987 41.9263Z" fill="#FF9500"/>
<path id="Vector_2" d="M58 22.5636C59.3134 22.3592 60.4574 22.1793 61.6017 22.0049C61.8016 21.9744 61.987 22.0811 61.9996 22.4999C62.0098 22.8411 61.8427 22.9801 61.6828 22.9365C60.5549 22.6284 59.4344 23.1332 58.3091 22.9646C58.2614 22.9574 58.2176 22.8509 58 22.5636Z" fill="#FF9500"/>
<path id="Vector_3" d="M40 19.37C39.4879 19.6694 38.9548 19.8698 38.4124 19.9667C38.2457 20.0164 37.9961 20.0775 38 19.6039C38.003 19.2424 38.1717 19.2775 38.3479 19.2957C38.7237 19.2942 39.0976 19.2134 39.4598 19.0554C39.6371 18.9986 39.8308 18.8783 40 19.37Z" fill="#FF9500"/>
<path id="Vector_4" d="M60 19C58.9969 18.0957 57.998 18.4815 57 18.354C58.2778 17.731 59.4992 17.9205 60 19Z" fill="#FF9500"/>
<path id="Vector_5" d="M58 29.8057C58.9129 29.0726 59.9753 28.8294 61 29.1189C60.5633 29.5382 60.0693 29.8166 59.5517 29.9351C59.034 30.0536 58.5048 30.0095 58 29.8057Z" fill="#FF9500"/>
<path id="Vector_6" d="M57 17.4483C57.3199 17.0773 57.6805 16.9316 58.0363 17.0298C58.3922 17.1279 58.7274 17.4655 59 18L57 17.4483Z" fill="#FF9500"/>
<path id="Vector_7" d="M59 54.357C61.2662 53.7646 62.0379 53.8737 63 54.9543C62.3356 55.0767 61.6642 54.9524 61.0277 54.589C60.4033 54.4773 59.7592 55.4913 59 54.357Z" fill="#FF9500"/>
<path id="Vector_8" d="M42.4877 59.0003C42.5836 59.0201 42.7554 59.0361 42.7639 59.0608C42.8632 59.3478 42.9481 59.6359 42.9999 59.9246C43.0042 59.9484 42.7356 60.0041 42.6018 59.9998C42.4545 59.985 42.3243 59.9502 42.2329 59.9013C42.5108 59.6259 42.0159 59.3906 42.0001 59.1351C41.9939 59.0347 42.2387 58.996 42.4877 59.0003Z" fill="#FF9500"/>
<path id="Vector_9" d="M61 55.8628C61.2074 55.1911 61.3946 54.7682 61.8347 55.1362C61.9377 55.2223 62.0413 55.3623 61.9833 55.5567C61.7745 56.2552 61.4154 55.9383 61 55.8628Z" fill="#FF9500"/>
<path id="Vector_10" d="M52.9993 52.5591C52.9881 52.6305 52.9648 52.6984 52.9307 52.7589C52.8967 52.8194 52.8526 52.8712 52.8012 52.9111C52.7498 52.951 52.692 52.9783 52.6315 52.9913C52.5709 53.0043 52.5087 53.0027 52.4487 52.9867C52.3863 52.9868 52.3246 52.9716 52.2676 52.942C52.2105 52.9124 52.1593 52.8691 52.1172 52.8149C52.0752 52.7606 52.0432 52.6966 52.0233 52.6269C52.0035 52.5573 51.9962 52.4835 52.0019 52.4103C52.0082 51.9952 52.303 51.9992 52.5373 52.0002C52.5995 51.9981 52.6614 52.0113 52.719 52.0388C52.7767 52.0664 52.8289 52.1077 52.8723 52.1602C52.9157 52.2127 52.9494 52.2753 52.9713 52.344C52.9931 52.4126 53.0027 52.4859 52.9993 52.5591Z" fill="#FF9500"/>
<path id="Vector_11" d="M56 52C55.8097 52.334 55.5594 52.5999 55.2719 52.7734C54.9844 52.947 54.6687 53.0228 54.3535 52.994C54.3091 52.9984 54.2644 52.9906 54.2223 52.9714C54.1802 52.9521 54.1415 52.9217 54.1086 52.8819C54.0756 52.8422 54.0491 52.794 54.0307 52.7403C54.0123 52.6866 54.0024 52.6284 54.0015 52.5694C53.9973 52.5117 54.002 52.4535 54.0153 52.3982C54.0287 52.343 54.0503 52.2919 54.079 52.248C54.1076 52.2042 54.1427 52.1685 54.182 52.1431C54.2214 52.1177 54.2643 52.1031 54.308 52.1003C54.7742 52.0494 55.2433 52.0411 56 52Z" fill="#FF9500"/>
<path id="Vector_12" d="M53.9977 59.6269C54.0041 59.6759 53.9972 59.7254 53.9775 59.772C53.9577 59.8186 53.9256 59.8611 53.8833 59.8966C53.8411 59.932 53.7898 59.9595 53.733 59.9771C53.6762 59.9947 53.6154 60.002 53.5547 59.9985C53.1086 60.022 52.9998 59.7615 53 59.4582C53.0001 59.2578 53.0257 59.0236 53.3185 59.0026C53.8584 58.9639 53.8439 59.369 53.9977 59.6269Z" fill="#FF9500"/>
<path id="Vector_13" d="M47 54.5287C47.0008 54.4558 47.0131 54.3839 47.0361 54.3174C47.0592 54.2509 47.0926 54.1911 47.1341 54.1418C47.1757 54.0924 47.2247 54.0545 47.278 54.0303C47.3314 54.0062 47.388 53.9963 47.4444 54.0013C47.7151 53.9887 47.9907 54.0841 47.9999 54.5377C48.006 54.8413 47.8088 54.9129 47.6191 54.9631C47.5564 54.9926 47.4896 55.0047 47.4231 54.9984C47.3566 54.992 47.2918 54.9675 47.2333 54.9264C47.1747 54.8853 47.1236 54.8286 47.0833 54.76C47.0431 54.6914 47.0147 54.6125 47 54.5287Z" fill="#FF9500"/>
<path id="Vector_14" d="M41.1186 54C40.9099 53.5378 40.9336 53.2128 41.5426 53.0062C41.6041 52.9853 41.7619 53.0211 41.8336 53.0583C42.1344 53.2142 42.0994 53.2596 41.1186 54Z" fill="#FF9500"/>
<path id="Vector_15" d="M46 57.5051C45.9998 57.6328 45.957 57.7555 45.8806 57.8477C45.8042 57.9398 45.7001 57.9943 45.5899 57.9998C45.2547 58.0074 44.9953 57.8234 45.0001 57.381C45.0037 57.048 45.2391 57.0131 45.4587 57.004C45.5228 56.9951 45.5877 57.0011 45.6497 57.0216C45.7118 57.042 45.7696 57.0766 45.82 57.1232C45.8704 57.1699 45.9123 57.2276 45.9432 57.2932C45.9741 57.3588 45.9934 57.4308 46 57.5051Z" fill="#FF9500"/>
<path id="Vector_16" d="M47.3875 51C47.6961 51.0161 47.9696 51.1611 47.999 51.6193C48.0149 51.8678 47.843 51.9963 47.6529 51.9998C47.3099 52.0061 47.0352 51.8384 47.0013 51.3907C46.983 51.1507 47.1616 51.04 47.3875 51Z" fill="#FF9500"/>
<path id="Vector_17" d="M47.368 63C47.1148 62.9833 46.9673 62.8057 47.0062 62.6121C47.0386 62.4404 47.1304 62.2853 47.2656 62.1736C47.4008 62.062 47.571 62.0008 47.7468 62.0006C47.9186 61.9887 47.9953 62.1721 47.9996 62.3171C48.0121 62.7424 47.7442 62.9306 47.368 63Z" fill="#FF9500"/>
<path id="Vector_18" d="M46 55.4875C45.9918 55.5632 45.9689 55.6366 45.9325 55.7032C45.8962 55.7699 45.8471 55.8286 45.7882 55.8759C45.7292 55.9231 45.6616 55.9581 45.5893 55.9786C45.5169 55.9992 45.4412 56.005 45.3666 55.9957C45.2776 55.9707 45.1972 55.9212 45.1342 55.8527C45.0713 55.7842 45.0282 55.6993 45.0099 55.6076C44.9916 55.5158 44.9987 55.4207 45.0305 55.3328C45.0622 55.2449 45.1173 55.1676 45.1898 55.1095C45.2622 55.0514 45.3491 55.0147 45.4408 55.0036C45.5325 54.9925 45.6254 55.0073 45.7093 55.0464C45.7932 55.0856 45.8648 55.1475 45.9161 55.2254C45.9674 55.3032 45.9964 55.3939 46 55.4875Z" fill="#FF9500"/>
<path id="Vector_19" d="M56.3895 58C56.1845 57.9764 55.9466 57.8582 56.0106 57.5253C56.1031 57.0443 56.4189 56.9874 56.7105 57.0019C56.8532 57.0091 57.0033 57.0623 56.9999 57.3441C56.9921 58.0049 56.6263 57.8675 56.3895 58Z" fill="#FF9500"/>
<path id="Vector_20" d="M56.1302 67C55.8236 66.3248 56.0608 65.6346 56.8176 65C57.2081 65.6744 56.9682 66.3725 56.1302 67Z" fill="#FF9500"/>
<path id="Vector_21" d="M59 65C59.6549 65.3035 60 65.6486 60 66C60 66.3514 59.6549 66.6965 59 67V65Z" fill="#FF9500"/>
<path id="Vector_22" d="M57 49.6232C57.4604 49.0696 57.9539 49.3558 58.4383 49.3631C58.8608 49.3695 59.2834 49.6828 59.6509 49.0812C59.7476 48.923 59.91 49.0044 59.962 49.252C60.015 49.5043 60.0426 49.8151 59.835 49.8976C59.6102 49.9876 59.3774 50.0186 59.1461 49.9893C58.4296 49.8899 57.7152 49.7484 57 49.6232Z" fill="#FF9500"/>
<path id="Vector_23" d="M41 50.2064L39 51C39.2299 50.5488 39.5505 50.2265 39.9121 50.083C40.2737 49.9395 40.6561 49.9829 41 50.2064Z" fill="#FF9500"/>
<path id="Vector_24" d="M47.9972 41.3933C48.0235 41.7732 47.8579 41.8634 47.7014 41.9262C47.4334 42.0337 47.1494 42.1009 47.0205 41.5561C46.9327 41.1848 47.146 41.0978 47.2888 41.0423C47.4151 40.984 47.549 40.986 47.6746 41.0482C47.8002 41.1104 47.9122 41.2302 47.9972 41.3933Z" fill="#FF9500"/>
<path id="Vector_25" d="M52 32.1498C51.7398 32.3745 51.5735 32.6502 51.5215 32.9433C51.4961 33.0361 51.275 32.9973 51.1425 32.9517C51.0305 32.9131 50.9633 32.7981 51.0213 32.7645C51.3469 32.576 51.3766 32.2897 51.5177 32.0389C51.5387 32.0015 51.7078 31.9955 51.8049 32.0026C51.8557 32.0063 51.899 32.0703 52 32.1498Z" fill="#FF9500"/>
<path id="Vector_26" d="M47 31.4987C46.97 31.8107 46.8611 31.9898 46.5985 31.9993C46.1628 32.0151 46.0071 31.7501 46.0002 31.4241C45.9959 31.2258 46.0785 31.0082 46.3625 31.0003C46.8091 30.9879 46.851 31.3383 47 31.4987Z" fill="#FF9500"/>
<path id="Vector_27" d="M49.4192 36C49.2034 35.9111 48.9606 35.8421 49.0054 35.5164C49.0708 35.0408 49.3683 34.9462 49.6831 35.0246C49.888 35.0756 50.0488 35.2574 49.9864 35.5717C49.9068 35.9725 49.6361 35.9631 49.4192 36Z" fill="#FF9500"/>
<path id="Vector_28" d="M52.5829 33.9995C52.2735 34.0087 52.0103 33.8963 52.0016 33.4968C51.9966 33.4323 52.0035 33.3674 52.022 33.3063C52.0405 33.2453 52.0702 33.1895 52.1089 33.1428C52.1476 33.0961 52.1946 33.0595 52.2466 33.0355C52.2986 33.0115 52.3545 33.0006 52.4104 33.0036C52.5503 32.986 52.6905 33.033 52.8005 33.1344C52.9104 33.2359 52.9811 33.3835 52.9971 33.545C53.0253 33.8336 52.8449 33.9979 52.5829 33.9995Z" fill="#FF9500"/>
<path id="Vector_29" d="M68.6973 44C68.3684 43.9219 68.288 43.9138 68.2692 43.8967C68.0686 43.7568 67.9771 43.5991 68.0049 43.4412C68.0327 43.2833 68.1787 43.1313 68.4267 43.0021C68.4862 42.9984 68.5471 42.9996 68.6051 43.0057C68.6631 43.0117 68.7167 43.0225 68.7621 43.0371C69.24 43.3478 68.8805 43.6422 68.6973 44Z" fill="#FF9500"/>
<path id="Vector_30" d="M69 41.6638C68.7094 41.7639 68.35 42.1565 68.1605 41.9315C68.0783 41.8507 68.0252 41.7533 68.007 41.65C67.9888 41.5466 68.0062 41.4413 68.0574 41.3453C68.1085 41.2494 68.1915 41.1665 68.2971 41.1058C68.4028 41.0451 68.5271 41.0088 68.6567 41.0008C69.0028 40.9769 68.8265 41.4796 68.9272 41.734L69 41.6638Z" fill="#FF9500"/>
<path id="Vector_31" d="M71 15.9035L70.1807 16C69.589 15.3507 70.661 14.7885 70.4141 14C70.9745 14.3291 70.6652 14.5274 70.6669 14.7059C70.6134 14.8889 70.5788 15.0731 70.5634 15.2579C70.6149 15.4826 70.1161 15.8032 70.9802 15.9111C70.9875 15.909 70.9941 15.9064 71 15.9035Z" fill="#FF9500"/>
<path id="Vector_32" d="M70.3747 67C70.2496 66.2591 70.1118 65.5186 70.0082 64.7769C69.982 64.5887 70.0189 64.3996 70.1174 64.2177C70.1379 64.1554 70.2022 64.0991 70.2983 64.0591C70.3943 64.0191 70.5157 63.9982 70.6398 64.0001C70.7022 64.0022 70.7626 64.012 70.8159 64.0286C70.8692 64.0451 70.9138 64.0681 70.9457 64.0953C70.9777 64.1226 70.9961 64.1534 70.9995 64.1851C71.0028 64.2169 70.9908 64.2485 70.9647 64.2773C70.4211 65.1658 70.7817 66.0844 70.3747 67Z" fill="#FF9500"/>
</g>
</svg>
