<svg width="100" height="100" viewBox="0 0 100 100" fill="none" xmlns="http://www.w3.org/2000/svg">
<g id="noun-mortarboard-3004566 1">
<path id="Vector" d="M9.74598 39.1598C9.74598 40.7691 9.75924 42.1034 9.73952 43.4372C9.73392 43.6625 9.80177 43.8833 9.93272 44.0662C10.0637 44.2491 10.2506 44.3839 10.4649 44.4501C11.011 44.7356 11.4756 45.1566 11.8145 45.673C12.0536 45.9171 12.194 46.2417 12.2085 46.5839C12.2231 46.9261 12.1107 47.2615 11.8931 47.5252C11.6619 47.7962 11.515 48.1293 11.4706 48.4834C11.4262 48.8375 11.4862 49.1969 11.6431 49.517C11.9432 50.5212 11.8983 51.6239 12.1098 52.662C12.273 53.8803 12.648 55.0603 13.2178 56.1481C13.3746 56.3843 13.4821 56.65 13.534 56.9291C13.5858 57.2083 13.5808 57.495 13.5194 57.7722C13.4579 58.0493 13.3412 58.3111 13.1764 58.5417C13.0115 58.7724 12.8019 58.9671 12.5601 59.1141C10.5615 60.6391 8.35718 60.3298 6.17129 59.7146C5.76848 59.4944 5.44249 59.1555 5.23725 58.7435C5.032 58.3315 4.95736 57.8661 5.02336 57.4102C5.33363 54.9651 5.94397 52.5679 6.84046 50.2735C7.25942 49.4947 7.36691 48.5846 7.141 47.7289C6.99642 47.093 7.04074 46.4285 7.26846 45.8177C7.49618 45.2069 7.89729 44.6767 8.42208 44.2928C8.6466 44.0975 8.82276 43.8523 8.9366 43.5767C9.05044 43.3012 9.09882 43.0027 9.07792 42.7051C8.96153 41.1464 8.94002 39.5821 9.01352 38.0209C9.03564 37.7279 9.12455 37.4439 9.27336 37.191C9.42218 36.9381 9.62692 36.7229 9.87173 36.5623C11.485 35.3308 13.4104 34.6696 15.0956 33.5804C19.688 30.6123 24.6066 28.177 29.016 24.9055C31.2593 23.2412 33.8319 22.0971 36.1407 20.5158C38.1164 19.1625 40.0237 17.7053 42.1068 16.5014C42.9844 15.9942 43.9207 15.6492 44.8063 15.1805C45.6573 14.7299 46.4348 15.2381 47.2192 15.4596C50.2165 16.3057 53.034 17.6587 55.992 18.6203C59.0131 19.6025 62.027 20.6071 65.0336 21.6342C68.355 22.7697 71.6607 23.9517 74.9787 25.0974C78.8712 26.4415 82.7791 27.7412 86.6616 29.1134C88.7604 29.8552 90.804 30.7518 92.9453 31.3798C93.4181 31.5185 93.8351 31.8459 94.3741 31.5772C94.4238 31.5509 94.4786 31.5355 94.5347 31.532C94.5909 31.5285 94.6471 31.5371 94.6997 31.5571C94.7523 31.5771 94.8 31.6081 94.8398 31.6481C94.8796 31.688 94.9104 31.736 94.9304 31.7889C94.9915 31.8847 95.0135 32.0005 94.9919 32.1122C94.9703 32.224 94.9067 32.3231 94.8143 32.3889C94.5881 32.5014 94.4042 32.6845 94.2903 32.9109C94.1763 33.1372 94.1385 33.3945 94.1824 33.6443C94.2085 34.0587 93.8701 34.1978 93.6061 34.3955C92.6276 35.1283 91.679 35.9051 90.6686 36.5902C89.6173 37.3226 88.6131 38.121 87.6618 38.9805C85.9019 40.5289 83.9499 41.8377 82.1752 43.3764C80.8288 44.5438 79.2313 45.3822 77.8508 46.5347C77.3688 46.8584 76.9663 47.288 76.6738 47.791C76.3814 48.294 76.2065 48.8572 76.1625 49.4381C76.0854 50.0489 75.9577 50.6522 75.7807 51.2417C75.7097 51.5694 75.4996 51.9636 75.6081 52.2176C75.9991 53.5772 75.8429 55.0367 75.1731 56.2816C74.7955 57.3431 74.6523 58.4744 74.7536 59.597C74.8713 62.9038 74.3911 66.2045 73.3364 69.339C72.6909 71.4227 72.18 73.546 71.8068 75.6958C71.7202 76.4194 71.4756 76.9886 70.6106 77.0445C70.3946 77.1024 70.2004 77.2231 70.0525 77.3915C67.8095 79.3972 64.935 80.2665 62.3733 81.6975C61.4876 82.2764 60.5687 82.8024 59.6215 83.2728C58.6732 83.7589 57.6222 84.0082 56.5577 83.9998C54.3379 83.7835 52.1168 84.0741 49.8955 83.7805C47.4887 83.4624 45.3039 82.4155 42.9668 81.8951C42.7514 81.8471 42.5534 81.6975 42.3386 81.6733C37.9659 80.9989 33.8835 79.0584 30.5911 76.0894C29.1773 75.0947 27.838 73.9971 26.5841 72.8054C25.8614 72.0334 25.2576 71.1573 24.7925 70.2061C23.5802 67.5575 22.946 64.6788 22.9324 61.7635C22.9535 60.9805 23.0537 60.2017 23.2314 59.4391C23.6609 56.9379 23.2894 54.3975 23.5954 51.8971C23.8142 50.11 23.7035 48.3116 23.9103 46.5315C23.9768 46.1502 23.9143 45.7576 23.7326 45.4163C23.551 45.0749 23.2607 44.8046 22.9082 44.6484C21.7435 43.9906 20.5269 43.4304 19.2706 42.9734C16.2331 41.7379 13.1831 40.5334 9.74598 39.1598ZM59.9342 51.5779C61.6511 52.5854 62.641 51.4677 63.6844 50.3458C61.9685 49.3608 60.8843 49.7532 59.9819 51.6317C59.8877 51.6807 59.7874 51.7167 59.6836 51.7388C59.081 51.783 58.5992 52.0492 58.5723 52.678C58.5544 53.0975 59.6751 53.3736 60.2737 53.1093C60.5541 52.9855 60.8539 52.8308 60.8534 52.4728C60.6776 52.0031 59.9811 52.1377 59.9342 51.5779ZM59.8827 69.013C60.4892 68.4646 61.1749 67.9443 60.5986 66.9762C58.8852 67.2281 58.7827 67.3074 58.7222 68.0309C58.6416 68.994 59.4246 68.789 59.9188 68.9819C59.648 69.4919 58.7087 69.3009 58.7568 70.1934C58.8165 71.3005 58.7408 72.4143 58.7646 73.5244C58.7795 74.2175 59.2064 74.3348 59.7916 74.1452C60.0661 74.0972 60.3131 73.9485 60.4846 73.728C60.6562 73.5074 60.7401 73.2306 60.72 72.9514C60.6877 71.842 60.6888 70.7315 60.6844 69.6214C60.6822 69.0449 60.2337 69.0989 59.8827 69.013ZM71.5345 46.4402C71.0623 46.2822 70.5536 46.2705 70.0747 46.4068C69.5958 46.5431 69.1687 46.821 68.8491 47.2044C67.608 48.3477 66.2928 49.407 64.912 50.3752C63.5951 51.6352 62.1372 52.7376 60.5676 53.6603C61.3803 53.9846 61.986 54.8063 62.9756 54.0033C65.7389 51.7612 68.5438 49.5705 71.3549 47.3891C71.7992 47.0443 71.6113 46.7428 71.4848 46.3829C71.9348 46.1073 72.456 46.5823 72.9217 46.2077C74.0101 45.3322 75.1319 44.4987 76.2308 43.6363C76.4666 43.4513 76.5833 43.2029 76.3295 42.9288C76.0252 42.6663 75.6419 42.5142 75.2412 42.497C74.8404 42.4797 74.4456 42.5984 74.12 42.8337C73.7857 43.1285 73.3275 43.366 73.1521 43.7375C73.0794 43.9848 72.9379 44.2061 72.7444 44.3755C72.5509 44.5448 72.3133 44.6551 72.0595 44.6935C71.0234 44.9193 70.9298 45.5142 71.5345 46.4402ZM30.262 71.9278L30.5993 72.3363C30.7105 72.5205 30.8276 72.8905 30.538 72.7886C29.9787 72.5505 29.4564 72.2325 28.9875 71.8446C28.1211 71.209 27.2821 70.5357 26.4315 69.8783C28.6948 73.6959 32.2619 76.0182 35.7211 78.4586C35.9706 78.5821 36.2268 78.6915 36.4884 78.7865C39.3835 80.0906 42.4673 80.9215 45.6233 81.248C47.1495 81.5271 48.7003 81.6968 50.2351 81.9846C52.4611 82.4689 54.7583 82.5255 57.0053 82.1515C58.3397 81.7859 59.6479 81.3295 60.9206 80.7853C64.0903 79.706 66.9843 77.9381 69.3966 75.6072C69.793 75.2993 70.1214 74.9119 70.3608 74.4697C70.6003 74.0274 70.7457 73.54 70.7877 73.0383C70.8021 72.6103 70.8872 72.2769 71.3755 72.2087L71.3737 72.2063C71.2152 72.2929 71.225 72.3531 71.4039 72.3592C71.4357 72.3603 71.4708 72.2762 71.5035 72.2306C72.0748 71.4359 71.7469 70.4848 71.9373 69.615C72.2108 68.366 72.2742 67.0705 72.4273 65.7947C71.9871 66.7071 71.7 67.6864 71.5777 68.6928C71.3413 66.3099 72.0798 63.9793 71.9662 61.5928C70.9223 61.6754 70.452 62.1892 70.4599 63.1229C70.4028 64.1921 70.2089 65.2495 69.8829 66.269C69.6518 64.8543 70.4614 63.7454 69.9693 62.5611C69.7378 62.5898 69.5246 62.7025 69.3699 62.8779C69.2152 63.0534 69.1295 63.2795 69.129 63.5139C69.003 64.7373 68.86 65.9592 68.713 67.1803C68.4753 69.73 68.0768 72.262 67.5201 74.761C67.9784 70.9795 68.3863 67.1982 68.5777 63.344C66.3147 64.1387 66.0307 64.5792 66.3794 66.6024C66.4968 67.2836 66.7443 67.3793 67.3721 66.9221C67.531 66.8064 67.5753 66.527 68.0202 66.9349C67.2293 67.4778 65.7984 67.7285 66.2615 69.0154C66.59 69.9281 65.1782 71.2837 67.3086 71.8341C65.9496 72.1708 65.9116 73.0951 65.7582 73.9767C65.6672 74.5001 65.9093 75.1261 65.3386 75.52L65.3786 75.5595C65.4951 74.6757 65.4671 73.7787 65.2958 72.9039C65.0037 72.9731 64.7889 73.0145 64.5798 73.0754C63.9426 73.2611 63.3387 73.5393 62.6999 73.7334C62.0389 73.9343 61.1193 73.8441 60.7889 74.5868C60.3122 75.6579 59.9031 73.9389 59.4079 74.6331C59.2087 74.9124 58.845 74.977 58.8523 75.4939C58.8241 76.4068 58.7462 77.3175 58.6189 78.2218C58.3875 76.0473 58.2818 73.8612 58.3025 71.6744C58.291 71.1096 58.5281 70.5196 58.0068 69.9519C57.49 69.3892 58.6409 69.0452 58.4164 68.3943C58.3324 68.1512 58.4963 67.7949 58.2389 67.6198C57.9387 67.4157 57.7587 67.6285 57.6185 67.9128C57.4412 68.2724 57.0503 68.1953 56.7418 68.2906C55.743 68.599 55.5507 68.8142 55.7457 69.8355C56.0417 72.1094 56.1083 74.4074 55.9446 76.6947C56.0226 77.5963 55.7913 78.4975 55.289 79.2487C55.4348 78.2222 54.2485 77.0871 55.6183 76.1848C55.7766 74.7999 55.7523 73.4 55.5459 72.0214C55.4616 71.5864 55.0302 71.4351 54.7283 72.0075C54.6723 72.1134 54.5856 72.5962 54.4756 72.2797C54.0982 71.194 53.2263 71.8773 52.6279 71.6628C51.9559 71.4219 51.1516 71.7549 50.1717 71.307C51.3091 71.1569 52.4588 71.1246 53.6027 71.2105C54.1752 71.2225 54.49 71.0007 54.3956 70.4448C54.1196 68.8211 54.6136 67.1855 54.2645 65.5584C54.1299 64.9306 54.6276 65.2801 54.8953 65.2853C55.4775 65.6483 56.1739 65.7791 56.8473 65.6521C57.5207 65.525 58.1223 65.1493 58.5338 64.5988L54.8451 65.3265C55.3063 64.6725 56.283 64.8811 56.8649 64.1434C54.8612 64.1168 52.8609 63.9696 50.8747 63.7028C51.1283 63.5422 51.4113 63.4343 51.7071 63.3855C52.0029 63.3368 52.3054 63.3481 52.5968 63.4188C54.9328 63.5951 57.2661 63.4096 59.6001 63.4244C60.2061 63.4283 60.898 63.0093 61.3806 63.3935C61.9321 63.8325 61.3435 64.4967 61.3535 65.0662C61.3617 65.5324 61.4841 65.8182 62.0566 65.6425C63.2361 65.2803 64.2379 64.5198 65.4254 64.1726C65.9183 64.0285 65.862 63.5149 65.7843 63.1714C65.6358 62.1601 65.7144 61.1282 66.0144 60.1513C66.0424 60.074 66.0393 59.9887 66.0058 59.9136C65.9723 59.8384 65.911 59.7794 65.8348 59.7489C65.4463 59.6012 65.2156 60.241 64.689 59.8989C65.711 58.98 66.8762 58.236 68.1382 57.6966C68.1396 58.1781 67.7379 58.36 67.4223 58.5111C67.2171 58.5892 67.0309 58.7104 66.876 58.8666C66.7211 59.0227 66.6012 59.2103 66.5241 59.4167C66.447 59.6231 66.4147 59.8437 66.4291 60.0637C66.4436 60.2836 66.5046 60.498 66.608 60.6924C69.0178 59.8865 69.266 59.5701 69.1542 57.4787C68.7522 57.3911 68.509 57.9353 68.083 57.7523C68.5426 56.8818 69.434 56.5467 70.1882 56.0434C70.5681 55.8795 70.8766 55.5837 71.0572 55.21C71.2379 54.8364 71.2786 54.4099 71.1719 54.0085L70.1327 54.4345L70.0539 54.3436C70.5599 53.6071 71.2559 53.0229 72.0673 52.6538C73.1817 52.1302 73.314 51.2816 73.289 49.8544C71.7423 51.4365 70.0342 52.8508 68.193 54.0739C65.7496 55.8296 63.3582 57.6637 61.0167 59.5546C60.1105 60.4765 58.8851 61.0114 57.596 61.0476C58.6978 59.8964 57.6931 59.8409 57.0012 59.6237C54.1837 58.7395 51.3588 57.8786 48.5482 56.9729C48.1444 56.8428 47.52 56.8796 47.395 56.4087C47.1746 55.5785 46.4867 55.5001 45.8958 55.257C40.6397 53.0945 35.4206 50.8507 30.3182 48.3366C28.6852 47.532 26.9892 46.8566 25.331 46.126C25.1513 46.5127 25.0966 46.9462 25.1746 47.3658C25.2309 49.149 25.3639 50.9269 25.273 52.7177C25.275 54.3404 25.1644 55.9613 24.942 57.5686C24.8211 58.2021 25.0259 58.6478 25.8606 58.4633C26.4527 55.1615 27.1195 51.8514 27.416 48.3312C28.1768 48.8817 27.9992 49.4521 27.9489 49.9908C27.6557 52.6594 27.2275 55.3113 26.6661 57.9362C26.503 58.3548 26.4939 58.8182 26.6404 59.2429C26.787 59.6677 27.0795 60.026 27.4655 60.2534C27.6686 60.3332 27.8427 60.4732 27.9648 60.6548C28.0869 60.8364 28.1512 61.0509 28.1491 61.2701C27.4456 61.2881 27.2267 60.4605 26.5222 60.4783C26.0178 61.4072 26.8499 62.5327 26.2017 63.521C25.0636 62.1331 26.1443 60.2996 24.9285 58.6864C24.772 60.316 24.7702 61.957 24.9232 63.587C25.0589 64.2465 25.3877 64.8503 25.8674 65.3207C25.9883 65.4874 26.2347 65.687 26.4029 65.3992C26.6485 64.9792 26.9102 64.8467 26.8888 65.445C26.9015 65.8634 27.0119 66.273 27.211 66.6407C27.4101 67.0085 27.6924 67.3241 28.0352 67.5621C28.3252 67.8379 28.9017 67.9188 28.8041 68.6556C27.1431 68.1416 26.3373 66.6034 24.8758 65.3402C25.2883 67.2143 25.0136 68.9595 27.0348 69.591C27.4811 69.7304 27.8061 70.2269 28.2223 70.5058C28.8275 71.0798 29.5151 71.5591 30.262 71.9278ZM77.5943 35.4189C78.1201 35.599 78.6508 35.7662 79.171 35.9617C80.729 36.5472 80.7854 36.5301 81.7402 34.9977C80.7619 34.5923 79.8194 34.1049 78.9224 33.5405C78.6829 33.3599 78.5067 33.1468 78.661 32.8373C78.7136 32.7384 78.7997 32.6618 78.9038 32.6213C79.0078 32.5807 79.1228 32.579 79.228 32.6165C80.4992 32.8754 81.7712 33.1303 83.3809 33.4548C82.2545 33.8902 81.3879 33.0944 80.6264 33.7308C82.3679 34.6955 82.3678 34.6953 83.8924 33.7266C84.5518 33.3076 85.2071 32.8818 85.874 32.4751C86.1417 32.3118 86.4074 32.0165 86.8491 32.3943C86.0021 33.4239 84.8904 34.2006 83.6348 34.6397C83.669 35.0234 83.8985 35.0691 84.0962 35.1683C84.2778 35.2595 84.7348 35.1278 84.4592 35.7187C84.1911 35.555 83.8908 35.4518 83.5791 35.4162C83.2674 35.3806 82.9517 35.4135 82.6539 35.5126C82.3561 35.6117 82.0833 35.7747 81.8544 35.9902C81.6254 36.2057 81.4458 36.4686 81.328 36.7607C83.2419 37.7865 83.2345 37.779 84.7204 36.3228C85.3248 35.7305 85.9689 35.179 86.5949 34.609C86.1795 36.0281 84.8109 36.6155 84.1303 37.7553C84.2552 37.9487 84.4236 38.1101 84.6217 38.2263C84.8199 38.3425 85.0425 38.4105 85.2715 38.4246C85.5006 38.4388 85.7298 38.3989 85.9407 38.3079C86.1516 38.217 86.3383 38.0777 86.4859 37.9011C87.637 36.9295 88.8618 36.0459 90.013 35.0743C91.0906 34.2841 92.0726 33.37 92.9391 32.3507C90.4174 31.5695 87.9897 30.94 85.6532 30.0649C82.1083 28.7373 78.5094 27.5694 74.9809 26.1824C69.8017 24.1464 64.4932 22.4418 59.1536 20.8524C54.3902 19.543 49.7181 17.919 45.1677 15.9908C45.1792 16.3857 45.045 16.7709 44.791 17.0725C44.537 17.374 44.1811 17.5706 43.7916 17.6245C43.3121 17.7736 42.8688 18.0213 42.4899 18.352C41.5076 19.2348 40.4412 20.0184 39.3063 20.6916C39.0889 20.7572 38.9009 20.8966 38.7745 21.0861C38.6481 21.2755 38.5911 21.5032 38.6133 21.7302L38.6519 21.6912C38.3758 21.6871 38.1016 21.7382 37.8453 21.8417C37.5891 21.9451 37.3559 22.0988 37.1593 22.2937C30.9124 26.8932 24.6576 31.4823 18.1287 35.6775C17.8521 35.8032 17.6071 35.9896 17.4117 36.223C17.2162 36.4563 17.0753 36.7307 16.9993 37.026C18.1683 37.2026 18.2016 37.2422 18.8653 36.6793C19.9641 35.8178 21.1237 35.0374 22.3349 34.3445C22.9738 33.8816 23.7473 33.6445 24.5345 33.6703C22.3713 35.2212 19.9081 35.9302 18.696 38.3422C17.806 38.0488 16.8489 37.7684 15.9227 37.4079C15.6196 37.29 15.3396 36.7893 15.7817 36.6552C16.7033 36.3756 17.1755 35.5667 17.9286 35.103C21.9734 32.6129 25.6825 29.6286 29.6493 27.022C30.1319 26.7598 30.5166 26.3473 30.7457 25.8465C29.2237 26.4912 27.7447 27.2339 26.318 28.07C25.6013 28.411 25.1652 29.1125 24.5428 29.5792C24.0536 29.9461 23.677 30.482 23.0688 30.6679C21.9693 31.0812 20.9555 31.6956 20.0787 32.48C19.7108 32.8252 19.2817 33.0979 18.8136 33.2841C16.7168 33.9137 15.3184 35.6421 13.4942 36.7035C12.947 37.0219 13.0432 37.4051 13.592 37.6909C15.1171 38.5083 16.7261 39.1567 18.3906 39.6246C18.6898 39.7051 19.0915 39.6782 19.0954 40.1611C18.7776 40.3968 18.4482 40.2592 18.1349 40.1692C16.2456 39.6929 14.4167 39.0007 12.6842 38.1063C12.1252 37.7945 11.8394 37.96 11.6 38.3778C11.3139 38.8772 11.7547 39.069 12.0931 39.2401C12.3977 39.3786 12.711 39.4967 13.0311 39.5937C14.5044 40.106 15.9782 40.6166 17.4527 41.1255C21.2102 42.692 25.0689 44.0011 29.0025 45.0438C29.2076 45.0849 29.5647 45.2971 29.5506 45.3533C29.464 45.6971 28.9938 46.0384 29.7017 46.279C30.1186 46.4384 30.5244 46.6258 30.9164 46.8398C33.9559 48.3564 37.0204 49.8255 40.025 51.4092C43.4231 53.2216 46.9737 54.7296 50.6354 55.9157C53.1741 56.7297 55.6473 57.7372 58.0333 58.9294C58.3928 59.1483 58.8138 59.2426 59.2317 59.1979C59.6496 59.1532 60.0415 58.9721 60.3471 58.6822C61.5646 57.616 62.9009 56.6862 64.1112 55.6125C67.0784 52.9801 70.2636 50.6315 73.4101 48.2295C74.4681 47.6055 75.3797 46.7597 76.083 45.7497C76.1453 45.6048 76.2477 45.4809 76.378 45.3929C79.02 44.141 81.017 41.9969 83.345 40.3118C83.8756 39.8836 84.3835 39.4277 84.8666 38.9461C84.0097 38.3005 83.3685 38.2317 82.6072 38.9615C81.4789 40.043 80.229 40.9956 79.0809 42.0576C78.7245 42.3873 78.1419 42.5332 78.2123 43.3365C78.2519 43.7889 77.3775 43.4264 76.9036 43.8067C73.4215 46.6009 69.8519 49.2846 66.3415 52.0439C64.542 53.4584 62.8171 54.9684 61.0378 56.4094C60.5662 56.8005 60.0468 57.1295 59.4922 57.3883C59.1554 57.5397 58.6401 57.524 58.5583 56.9977C58.4978 56.6089 58.846 56.4547 59.208 56.4141C60.1685 56.2407 61.0252 55.7014 61.5996 54.9087C60.4315 54.3328 59.3665 53.8548 58.351 53.2873C57.8364 52.9996 57.5144 53.3169 57.1199 53.4689L56.9605 53.3075C57.0757 52.758 56.6909 52.5868 56.3149 52.3366C55.7832 51.9829 55.0503 51.9994 54.6593 51.4069L54.7435 51.3141C54.9645 51.3278 55.1834 51.366 55.3961 51.428C55.966 51.6537 56.5243 51.908 57.0688 52.1901C57.69 52.5224 58.0603 52.1644 58.2884 51.7088C58.5543 51.1777 58.0201 51.0852 57.6922 50.9317C57.3391 50.7665 56.9639 50.6495 56.6087 50.4883C55.251 49.8718 53.8976 49.2459 52.2454 48.4871C52.4944 48.4183 52.7548 48.4019 53.0104 48.4389C53.266 48.4758 53.5112 48.5655 53.7308 48.7021C55.2657 49.3641 56.7938 50.0424 58.3215 50.7209C58.6707 50.876 59.0143 51.1827 59.3939 50.8478C60.0974 50.3985 60.7173 49.8291 61.2257 49.1654C60.0859 48.6969 59.0041 48.097 58.002 47.3778L58.0791 47.2884C58.9058 47.2532 59.5276 47.8247 60.2687 48.0499C60.5752 48.1429 60.8721 47.5438 61.079 48.0264C61.6017 49.2458 62.2127 48.6549 62.8596 48.177C65.0567 46.4732 67.3756 44.9341 69.7976 43.5723C69.801 44.273 69.1828 44.443 68.7605 44.7591C68.2732 45.1239 67.732 45.415 67.2308 45.7622C67.104 45.8214 67.0057 45.9286 66.9574 46.0604C66.9091 46.1922 66.9147 46.3379 66.9731 46.4655C67.025 46.5944 67.1086 46.708 67.2162 46.7954C67.3238 46.8829 67.4518 46.9414 67.5881 46.9655C67.7803 47.0125 67.9824 46.9967 68.165 46.9202C68.3476 46.8438 68.5011 46.7108 68.6032 46.5405C69.0963 45.579 70.0579 45.2801 70.8633 44.7542C71.0882 44.6074 71.322 44.4446 71.2822 44.1142C70.8472 43.761 70.2943 43.5883 69.7368 43.6315C68.7767 42.9746 67.7214 42.4706 66.6082 42.1373C66.0752 41.895 65.4097 41.8715 65.1061 41.24L65.078 41.2763C65.6358 41.2412 66.1926 41.3603 66.6878 41.6208C68.1795 42.2212 69.6637 42.8412 71.1452 43.4668C71.5607 43.6423 71.9826 43.8888 72.3856 43.527C73.0029 43.084 73.5229 42.518 73.9132 41.8644C74.1541 41.3798 75.2317 41.2967 75.6775 40.6401C75.7592 40.4983 75.8031 40.3377 75.8048 40.1738C75.8213 39.8736 75.9719 39.8036 76.2319 39.864C76.7921 39.9943 77.0755 39.5404 77.297 39.2139C77.6928 38.658 78.2055 38.1964 78.7986 37.8617C79.1483 37.6466 79.5806 37.4332 79.6668 36.8997C79.233 36.4322 78.5958 36.367 78.068 36.0904C77.8088 35.9545 77.3813 35.8594 77.6275 35.38L77.5943 35.4189ZM7.76929 55.9727C7.49385 56.2312 7.37313 56.344 7.2529 56.4573C6.21212 57.4385 6.27073 58.1161 7.44482 58.7559C7.83673 58.9706 8.27229 59.0924 8.71822 59.1121C9.16416 59.1318 9.60867 59.0488 10.0178 58.8695C10.2149 58.7377 10.4397 58.6536 10.6745 58.6238C10.9094 58.594 11.148 58.6194 11.3714 58.6979C12.1132 58.9879 12.8562 58.005 12.5428 57.2163C11.6542 54.98 11.2625 52.5999 10.4894 50.3329C10.3711 49.9862 10.4914 49.5102 9.98564 49.3703C9.24559 49.4587 8.5273 49.6797 7.86482 50.0227C7.74044 50.5652 7.62764 51.1126 7.55561 51.6641C7.48384 52.2133 7.20921 52.7945 7.6021 53.3751C8.57526 53.0114 7.75019 51.8203 8.85394 51.363C8.23653 53.5742 8.77263 55.7462 7.65648 57.6778L7.76929 55.9727ZM82.6585 38.0395C82.1175 37.7928 81.7498 37.6605 81.4184 37.4659C81.2151 37.3199 80.9643 37.2568 80.7165 37.2892C80.4687 37.3216 80.2423 37.4471 80.0829 37.6405C78.6929 38.9306 77.3315 40.2545 75.848 41.4403C75.7316 41.5079 75.6405 41.6121 75.589 41.7369C75.5374 41.8616 75.5281 42 75.5626 42.1305C76.1934 42.2477 76.7897 43.0618 77.5724 42.4405C79.4147 41.1541 81.1192 39.6792 82.6585 38.0395ZM75.7058 48.2753C74.1806 49.1669 74.1076 49.413 73.8363 51.0511C73.4521 53.3708 73.4804 55.7219 73.2362 58.053C72.9848 59.6466 72.9143 61.2638 73.0259 62.8734C73.6652 58.0739 74.6599 53.344 75.7058 48.2753ZM72.9918 52.8099C72.3138 52.844 72.2142 53.2502 72.1167 53.7011C71.8866 54.7657 71.5462 55.8128 71.4034 56.8876C71.3676 57.9433 71.1705 58.9872 70.8189 59.9828C70.8012 60.036 70.7967 60.0927 70.8057 60.1481C70.8306 60.4544 70.7078 60.8901 71.2288 60.846C71.567 60.8175 72.0531 61.0068 72.1594 60.419C72.1989 60.2011 72.2806 59.9891 72.3027 59.7702C72.5352 57.4701 72.7595 55.169 72.9918 52.8099ZM55.005 67.5461C56.4743 67.5449 57.9314 67.2779 59.3065 66.7578C59.7433 66.6625 60.1562 66.4788 60.52 66.2179C60.7077 66.0543 60.8313 65.8289 60.8685 65.5821C60.9057 65.3353 60.8541 65.0832 60.723 64.8711C60.4791 64.4762 59.9447 64.7755 59.7206 65.042C58.9934 65.7255 58.0468 66.1252 57.052 66.1687C56.6271 66.2956 56.1934 66.3906 55.7545 66.4528C54.7745 66.5049 54.9587 67.121 55.005 67.5461ZM63.5881 69.6039C63.5881 69.4379 63.5863 69.2718 63.5884 69.1058C63.5974 68.3767 63.3361 68.0487 62.5805 68.3898C62.3715 68.4553 62.1591 68.5094 61.9442 68.552C61.557 68.8272 61.2754 69.2275 61.1466 69.6862C61.0178 70.1449 61.0495 70.6341 61.2365 71.072C61.3144 71.1442 61.4121 71.1911 61.5169 71.2069C61.76 71.2582 62.0114 71.2559 62.2535 71.2003C62.4957 71.1446 62.7231 71.0369 62.9199 70.8846C63.1167 70.7323 63.2783 70.5389 63.3937 70.3178C63.509 70.0967 63.5754 69.8531 63.5881 69.6039ZM62.9074 49.0932C63.0627 49.2871 63.2601 49.4427 63.4844 49.5481C63.7088 49.6536 63.9541 49.7062 64.2017 49.7019C64.4494 49.6975 64.6928 49.6364 64.9133 49.5231C65.1338 49.4098 65.3257 49.2474 65.4742 49.0482C65.8096 48.7565 66.1692 48.4941 66.5491 48.2639C67.067 47.8844 66.9234 47.5401 66.4889 47.2096C66.3339 47.0445 66.1209 46.9464 65.8952 46.9362C65.6695 46.926 65.4486 47.0043 65.2794 47.1547C64.4253 47.7183 63.6305 48.3678 62.9074 49.0932ZM8.88158 45.3841C8.21842 46.2021 8.55124 47.1624 8.54308 48.0667C8.54199 48.187 8.71195 48.3473 8.84112 48.4224C9.19092 48.4259 9.53771 48.3571 9.85998 48.2204C10.1822 48.0837 10.4731 47.8819 10.7146 47.6276C10.7843 47.491 10.8263 47.3419 10.8382 47.1889C10.8502 47.0359 10.8318 46.8821 10.7841 46.7363C10.7365 46.5905 10.6605 46.4557 10.5607 46.3396C10.4608 46.2235 10.339 46.1284 10.2023 46.06C9.75424 45.8657 9.44414 45.4152 8.88158 45.3841ZM66.5733 63.421C68.9475 62.6183 69.0599 62.3607 68.6884 60.5465C66.425 61.0249 66.151 61.3973 66.5733 63.421ZM61.1112 73.5199C61.7707 73.4377 62.4116 73.2439 63.0067 72.9467C63.6475 72.6906 63.4209 72.1295 63.427 71.664C63.4298 71.4467 63.3474 71.1778 63.0619 71.2271C62.4675 71.2953 61.8832 71.4337 61.321 71.6395C60.8378 71.8502 61.0292 72.4122 61.014 72.8351C61.0265 73.0658 61.059 73.2949 61.1112 73.5199ZM64.1825 70.3276C65.9938 69.7109 66.0113 69.6745 65.5555 67.6776C63.8656 68.0809 63.8656 68.0809 64.1825 70.3276ZM63.4881 65.7881C61.2223 66.4866 61.2223 66.4866 61.5449 68.1018C63.7035 67.5555 63.7035 67.5555 63.4881 65.7881ZM65.6243 64.8461C64.7609 65.043 63.9785 65.1809 64.128 66.2811C64.181 66.6714 63.9103 67.2223 64.6448 67.2665C65.427 67.3136 65.7594 67.0568 65.7934 66.271C65.867 65.7894 65.8085 65.2968 65.6243 64.8461ZM65.1728 70.4891C64.9904 70.5684 64.743 70.6773 64.4946 70.7835C64.2369 70.8871 64.0247 71.0799 63.8964 71.3272C63.768 71.5744 63.7322 71.8597 63.7952 72.1313C63.8137 72.3111 63.9091 72.4758 64.073 72.4845C64.3462 72.5066 64.6208 72.4644 64.875 72.3612C65.1292 72.258 65.3559 72.0966 65.5371 71.8899C65.899 71.4727 65.6755 70.5434 65.1728 70.4891ZM70.2547 59.2563C69.7808 59.8367 69.4849 60.5429 69.4029 61.2891C69.3729 61.5186 69.4127 61.8079 69.6238 61.8601C69.7602 61.8976 69.9057 61.8814 70.0307 61.8148C70.1556 61.7482 70.2505 61.6362 70.2962 61.5017C70.5594 60.7739 70.5446 59.9738 70.2547 59.2563ZM55.0995 68.5665C54.8151 68.9293 54.6651 69.3802 54.6752 69.8419C54.6853 70.3037 54.8549 70.7475 55.155 71.0974C55.3175 70.6939 55.3964 70.2614 55.3868 69.8262C55.3773 69.391 55.2795 68.9624 55.0995 68.5665ZM70.211 58.7038C71.0114 58.0437 70.8443 57.3346 70.6755 56.3947C70.4275 56.7183 70.2566 57.0947 70.1761 57.495C70.0956 57.8954 70.1075 58.3089 70.211 58.7038Z" fill="#FF9500"/>
<path id="Vector_2" d="M31.0008 71.6832C31.0534 71.4358 30.8701 70.8589 31.2354 71.0318C31.9562 71.3883 32.5763 72.08 33 73C32.2391 72.9379 31.882 71.9567 31.2724 72.1594L31.0008 71.6832Z" fill="#FF9500"/>
<path id="Vector_3" d="M52 54C53.3842 54.2099 54.7278 54.5457 56 54.9997C54.5515 55.0116 53.1407 54.659 52 54Z" fill="#FF9500"/>
<path id="Vector_4" d="M58.8938 47C57.4336 46.8614 56.0825 46.5144 55 46C56.4758 46.1255 57.8575 46.4495 59 46.9381L58.8938 47Z" fill="#FF9500"/>
<path id="Vector_5" d="M78 34.7329C77.1734 35.4537 76.6463 34.5466 76.0529 34L76 34.082C76.7368 33.8543 77.3126 34.5076 77.9584 34.8018L78 34.7329Z" fill="#FF9500"/>
<path id="Vector_6" d="M38 21.0664C38.8786 21.1039 39.3961 21.6249 40 23C38.8297 22.3592 38.0651 22.1494 38.0608 21L38 21.0664Z" fill="#FF9500"/>
<path id="Vector_7" d="M53.9296 51.9924C53.541 52.0636 53.3087 51.6258 53 51.0385C53.1894 50.9628 53.3863 50.9992 53.5648 51.143C53.7433 51.2867 53.895 51.531 54 51.8439L53.9296 51.9924Z" fill="#FF9500"/>
<path id="Vector_8" d="M54.1772 80.4818C52.701 81.2821 51.481 80.6512 50.0574 80.7253C51.9292 81.4594 54.0112 81.6336 56 81.2224C55.5236 82.0061 55.5236 82.0009 55.0766 81.9999C51.8135 81.8878 48.5932 81.2896 45.5454 80.2293C45.2098 80.1681 44.9141 79.9904 44.7216 79.7342C44.5659 79.5195 44.3441 79.3508 44.0834 79.2491C43.8228 79.1473 43.5349 79.117 43.2554 79.1618C42.0643 79.0857 40.9278 78.6801 40 78C42.6788 78.1137 44.6857 79.2305 46.9183 79.5714C49.2101 79.9215 51.5016 80.2663 54.1772 80.4818Z" fill="#FF9500"/>
<path id="Vector_9" d="M45 76C42.494 75.8008 41.2255 74.4221 40 73C41.8632 73.8039 42.9259 75.3909 45 76Z" fill="#FF9500"/>
<path id="Vector_10" d="M60 78.9937C61.5261 78.5743 62.9217 77.5298 64 76C63.9239 77.9125 62.2756 79.0973 60 78.9937Z" fill="#FF9500"/>
<path id="Vector_11" d="M61 80.1174C60.0962 80.7879 59.0473 81.0886 58 80.9774C59.1986 80.4397 59.9899 79.7133 61 80.1174Z" fill="#FF9500"/>
<path id="Vector_12" d="M70 54.0985C69.8962 54.341 69.752 54.5484 69.5786 54.7047C69.4053 54.861 69.2073 54.962 69 55C69.0748 54.7369 69.2011 54.5053 69.3657 54.3294C69.5302 54.1536 69.7271 54.0398 69.9359 54L70 54.0985Z" fill="#FF9500"/>
<path id="Vector_13" d="M9.89626 53C10.3751 53.5705 10.7089 54.2197 10.8763 54.9063C11.0438 55.5928 11.0412 56.3015 10.8687 56.9871C10.2251 56.4242 10.6029 55.5798 9.9854 54.9867C9.35385 55.5554 10.0014 56.4058 9.40961 57C8.74601 55.9025 8.87518 54.8224 9.89626 53Z" fill="#FF9500"/>
</g>
</svg>
