<svg width="60" height="60" viewBox="0 0 60 60" fill="none" xmlns="http://www.w3.org/2000/svg">
<path fill-rule="evenodd" clip-rule="evenodd" d="M11.25 9.375H3.75C2.715 9.375 1.875 10.215 1.875 11.25V18.75C1.875 24.4481 6.11063 29.1563 11.6044 29.8988C12.9375 36.6544 17.8988 42.1069 24.375 44.1413V48.75C21.2681 48.75 18.75 51.2681 18.75 54.375V56.2519C18.75 57.2869 19.59 58.1269 20.625 58.1269H39.375C40.41 58.1269 41.25 57.2869 41.25 56.2519V54.375C41.25 51.2681 38.7319 48.75 35.625 48.75V44.1413C42.1012 42.1069 47.0644 36.6544 48.3956 29.8988C53.8894 29.1563 58.125 24.4481 58.125 18.75C58.125 14.865 58.125 11.25 58.125 11.25C58.125 10.215 57.285 9.375 56.25 9.375H48.75V5.625C48.75 4.63125 48.3544 3.67687 47.6512 2.97375C46.9481 2.27062 45.9938 1.875 45 1.875C39.0919 1.875 20.9081 1.875 15 1.875C14.0063 1.875 13.0519 2.27062 12.3488 2.97375C11.6456 3.67687 11.25 4.63125 11.25 5.625V9.375ZM28.125 44.9081V48.75H31.875V44.9081C31.2581 44.9681 30.6319 45 30 45C29.3681 45 28.7419 44.9681 28.125 44.9081ZM27.8663 16.4363L26.385 20.0288L22.7119 20.3906C21.8025 20.4806 21.0131 21.105 20.73 22.0163C20.4619 22.8825 20.7244 23.8313 21.3769 24.4331L24.2044 27.045L23.3756 30.9263C23.1844 31.8188 23.535 32.7413 24.2419 33.2794C25.0069 33.8625 26.0306 33.9094 26.8463 33.405L30 31.4475L33.1537 33.405C33.9694 33.9094 34.9931 33.8625 35.7581 33.2794C36.465 32.7413 36.8156 31.8188 36.6244 30.9263L35.7956 27.045L38.6231 24.4331C39.2756 23.8313 39.5381 22.8825 39.27 22.0163C38.9869 21.105 38.1975 20.4806 37.2881 20.3906L33.615 20.0288L32.1338 16.4363C31.7681 15.5513 30.9206 15 30 15C29.0794 15 28.2319 15.5513 27.8663 16.4363ZM11.25 13.125H5.625V18.75C5.625 22.245 8.01562 25.1813 11.25 26.0138V13.125ZM48.75 13.125V26.0138C51.9844 25.1813 54.375 22.245 54.375 18.75V13.125H48.75ZM15 7.5V5.625H45V7.5H15Z" fill="white"/>
</svg>
