<svg width="124" height="35" viewBox="0 0 124 35" fill="none" xmlns="http://www.w3.org/2000/svg">
<g clip-path="url(#clip0_213_87)">
<path d="M39.5664 14.0673V14.0008C39.5664 8.00572 44.2314 3.08252 50.6822 3.08252C57.133 3.08252 61.7322 7.93921 61.7322 13.9343V14.0008C61.7322 19.9959 57.0673 24.9191 50.6165 24.9191C44.1657 24.9191 39.5664 20.0624 39.5664 14.0673ZM56.9359 14.0673V14.0008C56.9359 10.3839 54.3217 7.36892 50.6165 7.36892C46.9112 7.36892 44.3639 10.3163 44.3639 13.9332V13.9997C44.3639 17.6166 46.978 20.6316 50.6832 20.6316C54.3885 20.6316 56.9359 17.6842 56.9359 14.0673Z" fill="white"/>
<path d="M65.8047 3.4502H70.4029V12.6609L78.8722 3.4502H84.3977L75.895 12.3927L84.7618 24.5507H79.2362L72.8177 15.5745L70.4029 18.1195V24.5834H65.8047V3.4502Z" fill="white"/>
<path d="M87.5392 3.4502H96.0419C101.004 3.4502 104.015 6.43138 104.015 10.7516V10.8181C104.015 15.7086 100.276 18.2198 95.5777 18.2198H92.104V24.5496H87.5059V3.4502H87.5392ZM95.777 14.1013C98.0594 14.1013 99.4165 12.7285 99.4165 10.9195V10.853C99.4165 8.77685 97.9937 7.67117 95.7113 7.67117H92.1708V14.1351L95.777 14.1013Z" fill="white"/>
<path d="M116.787 19.9949H106.597L105.869 16.7128L117.317 3.28223H121.188V16.2101H124V19.9949H121.188V24.5496H116.821V19.9949H116.788H116.787ZM116.787 16.2439V9.67967L111.261 16.2439H116.787Z" fill="white"/>
<path d="M47.5417 20.4637L40.0644 27.9996L36.8223 24.7174L61.2382 0L64.4803 3.28214L53.7943 14.1001L47.5417 20.4637Z" fill="white"/>
<path d="M12.3738 26.8611L0 14.1676L12.5063 1.6748L15.4177 4.6549L13.7633 6.29706L12.5063 4.99074L3.27549 14.2004L12.3738 23.5452L13.564 22.373L15.1862 24.0478L12.3738 26.8611Z" fill="white"/>
<path d="M21.4712 19.091L19.8491 17.4161L22.9264 14.3346L19.75 11.0524L21.371 9.41138L26.2019 14.3684L21.4712 19.091Z" fill="#CECECE"/>
<path d="M21.2721 26.7271L8.93164 14.0663L18.3283 4.68879L21.438 1.57349L33.7784 14.267L21.2721 26.726V26.7271ZM12.2071 14.1001L21.3055 23.4449L30.5029 14.2342L21.4046 4.89051L12.2071 14.1012V14.1001Z" fill="white"/>
<path d="M40.3971 34.8321C40.2313 34.7318 40.0998 34.5977 39.9997 34.4298C39.8995 34.2618 39.8672 34.0612 39.8672 33.8606V32.9228C39.8672 32.7222 39.9006 32.5205 39.9997 32.3536C40.0988 32.1857 40.2313 32.0527 40.3971 31.9513C40.563 31.8509 40.7612 31.8171 40.9928 31.8171C41.2243 31.8171 41.4225 31.8509 41.5884 31.9513C41.7543 32.0516 41.8857 32.1857 41.9859 32.3536C42.085 32.5215 42.1183 32.7222 42.1183 32.9228V33.8606C42.1183 34.095 42.085 34.2629 41.9859 34.4298C41.8868 34.5977 41.7543 34.7307 41.5884 34.8321C41.4225 34.9324 41.2243 34.9662 40.9928 34.9662C40.7612 34.9662 40.563 34.9324 40.3971 34.8321ZM41.3891 34.2967C41.4882 34.1964 41.5216 34.0623 41.5216 33.8944V32.9228C41.5216 32.7549 41.4882 32.6219 41.3891 32.5205C41.29 32.4201 41.1576 32.3525 40.9917 32.3525C40.8258 32.3525 40.6944 32.419 40.6276 32.5205C40.5608 32.6219 40.4951 32.7549 40.4951 32.9228V33.8944C40.4951 34.0623 40.5285 34.1953 40.6276 34.2967C40.7267 34.397 40.8592 34.4647 40.9917 34.4647C41.1242 34.4647 41.289 34.3981 41.3891 34.2967Z" fill="white"/>
<path d="M45.0291 31.9863C45.1616 32.0528 45.2941 32.1869 45.3598 32.321C45.4255 32.4552 45.4923 32.622 45.4923 32.8237C45.4923 33.0254 45.4589 33.1585 45.3598 33.2926C45.2607 33.4267 45.1616 33.527 45.0291 33.6274C44.8966 33.7277 44.6985 33.7277 44.5326 33.7277H43.9035C43.9035 33.7277 43.8702 33.7277 43.8702 33.7615V34.8999L43.8368 34.9337H43.3402C43.3402 34.9337 43.3068 34.9337 43.3068 34.8999L43.2734 34.8661V31.9187C43.2734 31.9187 43.2734 31.8849 43.3068 31.8849C43.3402 31.8849 43.3402 31.8511 43.3402 31.8511H44.5638C44.7297 31.8849 44.8945 31.9176 45.027 31.9852L45.0291 31.9863ZM44.7642 33.1247C44.8299 33.0582 44.8966 32.9567 44.8966 32.8237C44.8966 32.6907 44.8632 32.5893 44.7642 32.5228C44.6985 32.4563 44.566 32.4224 44.4335 32.4224H43.9046C43.9046 32.4224 43.8712 32.4224 43.8712 32.4563V33.2599C43.8712 33.2599 43.8712 33.2937 43.9046 33.2937H44.4335C44.566 33.2599 44.6651 33.2272 44.7642 33.1258V33.1247Z" fill="white"/>
<path d="M48.6349 32.3874H47.1797C47.1797 32.3874 47.1463 32.3874 47.1463 32.4212V33.0907C47.1463 33.0907 47.1463 33.1245 47.1797 33.1245H48.1394V33.6271L48.106 33.661H47.1797C47.1797 33.661 47.1463 33.661 47.1463 33.6948V34.3981C47.1463 34.3981 47.1463 34.4319 47.1797 34.4319H48.6026C48.6026 34.4319 48.6359 34.4319 48.6359 34.4657C48.6359 34.4995 48.6693 34.4995 48.6693 34.4995V34.9346C48.6693 34.9346 48.6693 34.9684 48.6359 34.9684C48.6026 34.9684 48.6026 35.0022 48.6026 35.0022H46.6174C46.6174 35.0022 46.584 35.0022 46.584 34.9684L46.5507 34.9346V31.9872C46.5507 31.9872 46.5507 31.9534 46.584 31.9534H48.6349L48.6683 31.9872V32.4222C48.6349 32.3557 48.6349 32.3884 48.6349 32.3884V32.3874Z" fill="white"/>
<path d="M51.4815 31.8849H52.0438V34.8988L52.0104 34.9326H51.5139C51.4916 34.9326 51.4697 34.9213 51.4482 34.8988L50.3237 33.0233H50.2903V34.8988C50.2903 34.8988 50.2903 34.9326 50.2569 34.9326C50.2235 34.9326 50.2235 34.9664 50.2235 34.9664H49.7269C49.7269 34.9664 49.6935 34.9664 49.6935 34.9326L49.6602 34.8988V31.9514C49.6602 31.9514 49.6602 31.9176 49.6935 31.9176H50.2224C50.2447 31.9176 50.2666 31.9289 50.2881 31.9514L51.4126 33.7931H51.446V31.9176C51.4794 31.9514 51.4794 31.9176 51.4794 31.8838L51.4815 31.8849Z" fill="white"/>
<path d="M54.8889 34.8997L54.8555 34.8659V31.9186C54.8555 31.9186 54.8555 31.8848 54.8889 31.8848H55.4511L55.4845 31.9186V33.1246H55.5179L56.5099 31.8859C56.5322 31.8633 56.5541 31.8521 56.5756 31.8521H57.1379C57.1601 31.8521 57.1713 31.8633 57.1713 31.8859V31.9197L56.2115 33.1584V33.1922L57.237 34.8332V34.867C57.237 34.8896 57.2258 34.9008 57.2036 34.9008H56.6079C56.5857 34.9008 56.5638 34.8896 56.5422 34.867L55.7818 33.6283H55.7484L55.4834 33.9631V34.867C55.4834 34.867 55.4834 34.9008 55.45 34.9008C55.4166 34.9008 55.4166 34.9346 55.4166 34.9346H54.9201C54.9201 34.9346 54.8867 34.9346 54.8867 34.9008L54.8889 34.8997Z" fill="white"/>
<path d="M59.9833 31.8846H60.5455V34.8985L60.5121 34.9323H60.0156C59.9933 34.9323 59.9714 34.9211 59.9499 34.8985L58.8254 33.023H58.792V34.8985C58.792 34.8985 58.792 34.9323 58.7586 34.9323C58.7252 34.9323 58.7252 34.9661 58.7252 34.9661H58.2287C58.2287 34.9661 58.1953 34.9661 58.1953 34.9323L58.1619 34.8985V31.9511C58.1619 31.9511 58.1619 31.9173 58.1953 31.9173H58.7241C58.7464 31.9173 58.7683 31.9286 58.7898 31.9511L59.9143 33.7929H59.9477V31.9173C59.9811 31.9512 59.9811 31.9173 59.9811 31.8835L59.9833 31.8846Z" fill="white"/>
<path d="M62.2643 34.8321C62.0984 34.7318 61.967 34.5977 61.8669 34.4298C61.7678 34.2618 61.7344 34.0612 61.7344 33.8606V32.9228C61.7344 32.7222 61.7678 32.5205 61.8669 32.3536C61.966 32.1868 62.0984 32.0527 62.2643 31.9513C62.4302 31.8509 62.6284 31.8171 62.8599 31.8171C63.0915 31.8171 63.2897 31.8509 63.4556 31.9513C63.6215 32.0516 63.7529 32.1857 63.853 32.3536C63.9521 32.5215 63.9855 32.7222 63.9855 32.9228V33.8606C63.9855 34.095 63.9521 34.2629 63.853 34.4298C63.754 34.5977 63.6215 34.7307 63.4556 34.8321C63.2897 34.9324 63.0915 34.9662 62.8599 34.9662C62.6284 34.9662 62.4302 34.9324 62.2643 34.8321ZM63.2563 34.2967C63.3554 34.1964 63.3888 34.0623 63.3888 33.8944V32.9228C63.3888 32.7549 63.3554 32.6219 63.2563 32.5205C63.1572 32.4201 63.0248 32.3525 62.8589 32.3525C62.693 32.3525 62.5616 32.419 62.4948 32.5205C62.428 32.6219 62.3623 32.7549 62.3623 32.9228V33.8944C62.3623 34.0623 62.3957 34.1953 62.4948 34.2967C62.5939 34.397 62.7264 34.4647 62.8589 34.4647C62.9914 34.4647 63.1562 34.3981 63.2563 34.2967Z" fill="white"/>
<path d="M65.706 34.8998L64.9456 31.9524V31.9186C64.9456 31.896 64.9567 31.8848 64.9789 31.8848H65.5078C65.5301 31.8848 65.552 31.896 65.5735 31.9186L65.971 33.6938L66.3684 31.9186C66.3684 31.8848 66.4018 31.8848 66.4341 31.8848H66.963C66.9964 31.8848 67.0287 31.8848 67.0287 31.9186L67.4585 33.6938L67.8559 31.9186C67.8559 31.8848 67.8893 31.8848 67.9216 31.8848H68.4182C68.4515 31.8848 68.4839 31.9186 68.4515 31.9513L67.7568 34.8987C67.7568 34.9325 67.7234 34.9325 67.6911 34.9325H67.1622C67.14 34.9325 67.1181 34.9212 67.0965 34.8987L66.6668 33.0232L66.2693 34.8987C66.2693 34.9325 66.2359 34.9325 66.2036 34.9325H65.7405L65.7071 34.8987L65.706 34.8998Z" fill="white"/>
<path d="M69.5764 34.8998L69.543 34.8659V31.9186C69.543 31.9186 69.543 31.8848 69.5764 31.8848H70.1386L70.172 31.9186V34.3633C70.172 34.3633 70.172 34.3971 70.2054 34.3971H71.5949C71.5949 34.3971 71.6282 34.3971 71.6282 34.4309V34.9336L71.5949 34.9674H69.6097C69.6097 34.9336 69.5764 34.9336 69.5764 34.9008V34.8998Z" fill="white"/>
<path d="M74.7717 32.3874H73.3165C73.3165 32.3874 73.2831 32.3874 73.2831 32.4212V33.0907C73.2831 33.0907 73.2831 33.1245 73.3165 33.1245H74.2762V33.6271L74.2428 33.661H73.3165C73.3165 33.661 73.2831 33.661 73.2831 33.6948V34.3981C73.2831 34.3981 73.2831 34.4319 73.3165 34.4319H74.7394C74.7394 34.4319 74.7728 34.4319 74.7728 34.4657C74.7728 34.4995 74.8062 34.4995 74.8062 34.4995V34.9346C74.8062 34.9346 74.8062 34.9684 74.7728 34.9684C74.7394 34.9684 74.7394 35.0022 74.7394 35.0022H72.7543C72.7543 35.0022 72.7209 35.0022 72.7209 34.9684L72.6875 34.9346V31.9872C72.6875 31.9872 72.6875 31.9534 72.7209 31.9534H74.7717L74.8051 31.9872V32.4222C74.8051 32.3557 74.8051 32.3884 74.7717 32.3884V32.3874Z" fill="white"/>
<path d="M75.9299 34.8998L75.8965 34.8659V31.9186C75.8965 31.9186 75.8965 31.8848 75.9299 31.8848H77.0221C77.2203 31.8848 77.4195 31.9186 77.5843 31.9851C77.7502 32.0516 77.8816 32.1857 77.9484 32.3198C78.0152 32.454 78.0809 32.6208 78.0809 32.7887V33.9947C78.0809 34.1953 78.0475 34.3295 77.9484 34.4636C77.8493 34.5977 77.7502 34.698 77.5843 34.7983C77.4184 34.8987 77.2203 34.8987 77.0221 34.8987H75.9633C75.9633 34.9325 75.9299 34.9325 75.9299 34.8987V34.8998ZM76.5255 34.3971H77.0544C77.1869 34.3971 77.286 34.3633 77.385 34.263C77.4841 34.1626 77.5175 34.0623 77.5175 33.8944V32.8901C77.5175 32.756 77.4841 32.6219 77.385 32.5216C77.286 32.4212 77.1869 32.3874 77.0544 32.3874H76.5255C76.5255 32.3874 76.4921 32.3874 76.4921 32.4212L76.5255 34.3971C76.5255 34.3971 76.5255 34.3633 76.5255 34.3971Z" fill="white"/>
<path d="M79.735 34.8323C79.5691 34.7319 79.4377 34.6316 79.3376 34.4637C79.2374 34.2958 79.2051 34.1289 79.2051 33.8945V32.9229C79.2051 32.7223 79.2385 32.5206 79.3376 32.3538C79.4367 32.1869 79.5691 32.0528 79.735 31.9852C79.9009 31.8849 80.0991 31.8511 80.3307 31.8511C80.5622 31.8511 80.7281 31.8849 80.9263 31.9852C81.1245 32.0855 81.2236 32.1858 81.3237 32.3538C81.4228 32.5217 81.4562 32.6547 81.4562 32.8564V32.9229L81.4228 32.9567H80.9263C80.9263 32.9567 80.8929 32.9567 80.8929 32.9229C80.8929 32.8891 80.8595 32.8891 80.8595 32.8891C80.8595 32.755 80.8261 32.6547 80.727 32.5544C80.6279 32.4541 80.5288 32.4203 80.363 32.4203C80.1971 32.4203 80.098 32.4868 79.9989 32.5544C79.8998 32.6209 79.8664 32.7888 79.8664 32.9229V33.9272C79.8664 34.0951 79.8998 34.1955 80.0323 34.2958C80.1314 34.3961 80.2639 34.4299 80.4298 34.4299C80.5956 34.4299 80.6947 34.3961 80.7938 34.2958C80.8929 34.1955 80.9263 34.0951 80.9263 33.961V33.7604C80.9263 33.7604 80.9263 33.7266 80.8929 33.7266H80.3964C80.3964 33.7266 80.363 33.7266 80.363 33.6928V33.2239H81.4875V33.8269C81.4875 34.0613 81.4541 34.2293 81.355 34.3961C81.2559 34.564 81.1234 34.697 80.9575 34.7647C80.7917 34.865 80.5935 34.8988 80.3619 34.8988C80.1303 34.8988 79.8987 34.9326 79.7329 34.8323H79.735Z" fill="white"/>
<path d="M84.6641 32.3875H83.2089C83.2089 32.3875 83.1755 32.3875 83.1755 32.4213V33.0908C83.1755 33.0908 83.1755 33.1246 83.2089 33.1246H84.1686V33.6273L84.1352 33.6611H83.2089C83.2089 33.6611 83.1755 33.6611 83.1755 33.6949V34.3982C83.1755 34.3982 83.1755 34.432 83.2089 34.432H84.6318C84.6318 34.432 84.6652 34.432 84.6652 34.4658V34.9685L84.6318 35.0023H82.6467C82.6467 35.0023 82.6133 35.0023 82.6133 34.9685V31.9546H84.6641V32.4235C84.6641 32.357 84.6641 32.3897 84.6641 32.3897V32.3875Z" fill="white"/>
<path d="M89.0984 31.9862C89.2308 32.0527 89.3633 32.1868 89.429 32.3209C89.4947 32.455 89.5615 32.6219 89.5615 32.8236C89.5615 33.0253 89.5281 33.1584 89.429 33.2925C89.3299 33.4266 89.2308 33.5269 89.0984 33.6272C88.9659 33.7276 88.7677 33.7276 88.6018 33.7276H87.9728C87.9728 33.7276 87.9394 33.7276 87.9394 33.7614V34.8997L87.906 34.9336H87.3771C87.3771 34.9336 87.3438 34.9336 87.3438 34.8997V31.8859L87.3771 31.8521H88.6007C88.7666 31.8859 88.9314 31.9186 89.0973 31.9862H89.0984ZM88.8011 33.1246C88.8668 33.058 88.9336 32.9566 88.9336 32.8236C88.9336 32.6906 88.9002 32.5892 88.8011 32.5227C88.7354 32.4561 88.6029 32.4223 88.4704 32.4223H87.9415C87.9415 32.4223 87.9082 32.4223 87.9082 32.4561V33.2598C87.9082 33.2598 87.9082 33.2936 87.9415 33.2936H88.4704C88.6363 33.2598 88.7354 33.2271 88.8011 33.1257V33.1246Z" fill="white"/>
<path d="M92.2068 34.8996L91.678 33.6936C91.678 33.6936 91.678 33.6598 91.6446 33.6598H91.2471C91.2471 33.6598 91.2137 33.6598 91.2137 33.6936V34.9324L91.1803 34.9662H90.6838C90.6838 34.9662 90.6504 34.9662 90.6504 34.9324V31.9185H91.9074C92.0733 31.9185 92.2381 31.9523 92.4039 32.0188C92.5364 32.0853 92.6689 32.2194 92.7346 32.3535C92.8003 32.4877 92.8337 32.6545 92.8337 32.8224C92.8337 33.023 92.8003 33.191 92.7012 33.3251C92.6021 33.4592 92.4696 33.5595 92.3038 33.626C92.3038 33.626 92.2704 33.6598 92.3038 33.6598L92.8994 34.8985V34.9324C92.8994 34.9549 92.8883 34.9662 92.866 34.9662H92.3371C92.2047 34.9324 92.2047 34.8996 92.2047 34.8996H92.2068ZM91.2148 32.4211V33.1583C91.2148 33.1583 91.2148 33.1921 91.2482 33.1921H91.8104C91.9429 33.1921 92.042 33.1583 92.1077 33.0917C92.1734 33.0252 92.2068 32.9238 92.2068 32.8235C92.2068 32.7232 92.1734 32.6229 92.1077 32.5553C92.042 32.4887 91.9418 32.4549 91.8104 32.4549L91.2148 32.4211Z" fill="white"/>
<path d="M94.4245 34.8321C94.2586 34.7318 94.1272 34.5977 94.027 34.4298C93.9268 34.2618 93.8945 34.0612 93.8945 33.8606V32.9228C93.8945 32.7222 93.9279 32.5205 94.027 32.3536C94.1261 32.1857 94.2586 32.0527 94.4245 31.9513C94.5903 31.8509 94.7885 31.8171 95.0201 31.8171C95.2517 31.8171 95.4499 31.8509 95.6157 31.9513C95.7816 32.0516 95.913 32.1857 96.0132 32.3536C96.1123 32.5215 96.1457 32.7222 96.1457 32.9228V33.8606C96.1457 34.095 96.1123 34.2629 96.0132 34.4298C95.9141 34.5977 95.7816 34.7307 95.6157 34.8321C95.4499 34.9324 95.2517 34.9662 95.0201 34.9662C94.7885 34.9662 94.5903 34.9324 94.4245 34.8321ZM95.3842 34.2967C95.4833 34.1964 95.5167 34.0623 95.5167 33.8944V32.9228C95.5167 32.7549 95.4833 32.6219 95.3842 32.5205C95.2851 32.419 95.1526 32.3525 94.9867 32.3525C94.8208 32.3525 94.6894 32.419 94.6227 32.5205C94.5559 32.6219 94.4902 32.7549 94.4902 32.9228V33.8944C94.4902 34.0623 94.5236 34.1953 94.6227 34.2967C94.7217 34.397 94.8542 34.4647 94.9867 34.4647C95.1192 34.4647 95.284 34.3981 95.3842 34.2967Z" fill="white"/>
<path d="M99.3857 31.8848V32.3874L99.3523 32.4212H98.5919C98.5919 32.4212 98.5585 32.4212 98.5585 32.4551V34.9336L98.5251 34.9674H98.0286C98.0286 34.9674 97.9952 34.9674 97.9952 34.9336V32.4551C97.9952 32.4551 97.9952 32.4212 97.9618 32.4212H97.2014C97.2014 32.4212 97.168 32.4212 97.168 32.3874V31.8848H99.3847H99.3857Z" fill="white"/>
<path d="M100.842 34.8321C100.676 34.7318 100.545 34.5977 100.445 34.4298C100.346 34.2618 100.312 34.0612 100.312 33.8606V32.9228C100.312 32.7222 100.346 32.5205 100.445 32.3536C100.544 32.1857 100.676 32.0527 100.842 31.9513C101.008 31.8509 101.206 31.8171 101.438 31.8171C101.67 31.8171 101.868 31.8509 102.034 31.9513C102.199 32.0516 102.331 32.1857 102.431 32.3536C102.53 32.5215 102.564 32.7222 102.564 32.9228V33.8606C102.564 34.095 102.53 34.2629 102.431 34.4298C102.332 34.5966 102.199 34.7307 102.034 34.8321C101.868 34.9324 101.67 34.9662 101.438 34.9662C101.206 34.9662 101.008 34.9324 100.842 34.8321ZM101.802 34.2967C101.901 34.1964 101.935 34.0623 101.935 33.8944V32.9228C101.935 32.7549 101.901 32.6219 101.802 32.5205C101.703 32.419 101.57 32.3525 101.405 32.3525C101.239 32.3525 101.107 32.419 101.041 32.5205C100.974 32.6219 100.908 32.7549 100.908 32.9228V33.8944C100.908 34.0623 100.941 34.1953 101.041 34.2967C101.14 34.397 101.272 34.4647 101.405 34.4647C101.537 34.4647 101.702 34.3981 101.802 34.2967Z" fill="white"/>
<path d="M104.182 34.8323C104.016 34.7319 103.885 34.6316 103.785 34.4637C103.685 34.2958 103.652 34.1289 103.652 33.8945V32.8902C103.652 32.6896 103.686 32.4879 103.785 32.321C103.884 32.1542 104.016 32.0528 104.182 31.9525C104.348 31.8522 104.546 31.8184 104.778 31.8184C105.01 31.8184 105.175 31.8522 105.374 31.9525C105.572 32.0528 105.671 32.1531 105.771 32.321C105.87 32.489 105.903 32.6558 105.903 32.8564C105.903 32.879 105.882 32.8902 105.838 32.8902L105.341 32.924C105.308 32.924 105.308 32.8902 105.308 32.8902C105.308 32.7223 105.274 32.622 105.175 32.5217C105.076 32.4214 104.977 32.3876 104.811 32.3876C104.645 32.3876 104.546 32.4214 104.447 32.5217C104.348 32.622 104.315 32.7561 104.315 32.8902V33.9283C104.315 34.0624 104.348 34.1965 104.447 34.2969C104.546 34.3972 104.679 34.431 104.811 34.431C104.944 34.431 105.076 34.3972 105.175 34.2969C105.274 34.1965 105.308 34.0962 105.308 33.9283C105.308 33.9058 105.33 33.8945 105.374 33.8945L105.87 33.9283H105.903V33.9621C105.903 34.1627 105.87 34.3307 105.771 34.4975C105.672 34.6643 105.539 34.7657 105.374 34.8661C105.208 34.9326 105.01 35.0002 104.778 35.0002C104.546 35.0002 104.348 34.9337 104.182 34.8323Z" fill="white"/>
<path d="M107.491 34.8321C107.325 34.7318 107.194 34.5977 107.093 34.4298C106.994 34.2618 106.961 34.0612 106.961 33.8606V32.9228C106.961 32.7222 106.994 32.5205 107.093 32.3536C107.193 32.1857 107.325 32.0527 107.491 31.9513C107.657 31.8509 107.855 31.8171 108.087 31.8171C108.318 31.8171 108.516 31.8509 108.682 31.9513C108.848 32.0516 108.979 32.1857 109.08 32.3536C109.179 32.5215 109.212 32.7222 109.212 32.9228V33.8606C109.212 34.095 109.179 34.2629 109.08 34.4298C108.981 34.5966 108.848 34.7307 108.682 34.8321C108.516 34.9324 108.318 34.9662 108.087 34.9662C107.855 34.9662 107.689 34.9324 107.491 34.8321ZM108.483 34.2967C108.582 34.1964 108.615 34.0623 108.615 33.8944V32.9228C108.615 32.7549 108.582 32.6219 108.483 32.5205C108.384 32.419 108.251 32.3525 108.085 32.3525C107.92 32.3525 107.788 32.419 107.721 32.5205C107.655 32.6219 107.589 32.7549 107.589 32.9228V33.8944C107.589 34.0623 107.622 34.1953 107.721 34.2967C107.82 34.397 107.953 34.4647 108.085 34.4647C108.218 34.4647 108.383 34.3981 108.483 34.2967Z" fill="white"/>
<path d="M110.402 34.8996V31.8857H110.965V34.3642C110.965 34.3642 110.965 34.398 110.998 34.398H112.387C112.387 34.398 112.421 34.398 112.421 34.4318V34.9345L112.387 34.9683H110.402C110.436 34.9345 110.402 34.9345 110.402 34.9018V34.8996Z" fill="white"/>
<path d="M117.152 32.3875H115.73C115.73 32.3875 115.696 32.3875 115.696 32.4213V33.0908C115.696 33.0908 115.696 33.1246 115.73 33.1246H116.689V33.6273L116.656 33.6611H115.73C115.73 33.6611 115.696 33.6611 115.696 33.6949V34.9336L115.663 34.9674H115.166C115.166 34.9674 115.133 34.9674 115.133 34.9336V31.9197H117.184V32.3886C117.184 32.3548 117.184 32.3886 117.15 32.3886L117.152 32.3875Z" fill="white"/>
<path d="M118.674 34.8321C118.509 34.7318 118.377 34.5977 118.277 34.4298C118.178 34.2618 118.145 34.0612 118.145 33.8606V32.9228C118.145 32.7222 118.178 32.5205 118.277 32.3536C118.376 32.1857 118.509 32.0527 118.674 31.9513C118.84 31.8509 119.039 31.8171 119.27 31.8171C119.502 31.8171 119.7 31.8509 119.866 31.9513C120.032 32.0516 120.163 32.1857 120.263 32.3536C120.362 32.5215 120.396 32.7222 120.396 32.9228V33.8606C120.396 34.095 120.362 34.2629 120.263 34.4298C120.164 34.5966 120.032 34.7307 119.866 34.8321C119.7 34.9324 119.502 34.9662 119.27 34.9662C119.039 34.9662 118.84 34.9324 118.674 34.8321ZM119.634 34.2967C119.733 34.1964 119.767 34.0623 119.767 33.8944V32.9228C119.767 32.7549 119.733 32.6219 119.634 32.5205C119.535 32.419 119.403 32.3525 119.237 32.3525C119.071 32.3525 118.939 32.419 118.873 32.5205C118.807 32.6208 118.74 32.7549 118.74 32.9228V33.8944C118.74 34.0623 118.774 34.1953 118.873 34.2967C118.972 34.397 119.104 34.4647 119.237 34.4647C119.369 34.4647 119.534 34.3981 119.634 34.2967Z" fill="white"/>
<path d="M123.141 34.8996L122.612 33.6936C122.612 33.6936 122.612 33.6598 122.578 33.6598H122.181C122.181 33.6598 122.148 33.6598 122.148 33.6936V34.9324L122.114 34.9662H121.618C121.618 34.9662 121.584 34.9662 121.584 34.9324V31.9185H122.841C123.007 31.9185 123.172 31.9523 123.338 32.0188C123.47 32.0853 123.603 32.2194 123.668 32.3535C123.734 32.4877 123.768 32.6545 123.768 32.8224C123.768 33.023 123.734 33.191 123.635 33.3251C123.536 33.4592 123.403 33.5595 123.238 33.626C123.238 33.626 123.204 33.6598 123.238 33.6598L123.833 34.8985V34.9324C123.833 34.9549 123.822 34.9662 123.8 34.9662H123.271C123.172 34.9324 123.138 34.8996 123.138 34.8996H123.141ZM122.149 32.4211V33.1583C122.149 33.1583 122.149 33.1921 122.182 33.1921H122.744C122.877 33.1921 122.976 33.1583 123.042 33.0917C123.107 33.0252 123.141 32.9238 123.141 32.8235C123.141 32.7232 123.107 32.6229 123.042 32.5553C122.976 32.4887 122.876 32.4549 122.744 32.4549L122.149 32.4211C122.149 32.4211 122.182 32.4211 122.149 32.4211Z" fill="white"/>
</g>
<defs>
<clipPath id="clip0_213_87">
<rect width="124" height="35" fill="white"/>
</clipPath>
</defs>
</svg>
