<svg width="75" height="75" viewBox="0 0 75 75" fill="none" xmlns="http://www.w3.org/2000/svg">
<path d="M75 37.5C75 47.4456 71.0491 56.9839 64.0165 64.0165C56.9839 71.0491 47.4456 75 37.5 75C27.5544 75 18.0161 71.0491 10.9835 64.0165C3.95088 56.9839 0 47.4456 0 37.5C0 27.5544 3.95088 18.0161 10.9835 10.9835C18.0161 3.95088 27.5544 0 37.5 0C47.4456 0 56.9839 3.95088 64.0165 10.9835C71.0491 18.0161 75 27.5544 75 37.5ZM31.8281 23.8734C31.4777 23.6239 31.0653 23.4757 30.6362 23.4449C30.2071 23.4142 29.7778 23.5022 29.3953 23.6992C29.0129 23.8962 28.6921 24.1947 28.468 24.562C28.2439 24.9292 28.1253 25.351 28.125 25.7812V49.2188C28.1253 49.649 28.2439 50.0708 28.468 50.438C28.6921 50.8053 29.0129 51.1038 29.3953 51.3008C29.7778 51.4978 30.2071 51.5858 30.6362 51.5551C31.0653 51.5243 31.4777 51.3761 31.8281 51.1266L48.2344 39.4078C48.5382 39.191 48.7858 38.9048 48.9567 38.5729C49.1276 38.2411 49.2167 37.8732 49.2167 37.5C49.2167 37.1268 49.1276 36.7589 48.9567 36.4271C48.7858 36.0952 48.5382 35.809 48.2344 35.5922L31.8281 23.8734Z" fill="white"/>
</svg>
