<svg width="23" height="31" viewBox="0 0 23 31" fill="none" xmlns="http://www.w3.org/2000/svg">
<path d="M10.1269 18.4687C9.93185 19.0906 9.07032 19.1023 8.8586 18.4858L7.61709 14.8675C7.34383 14.0721 6.89181 13.3521 6.29685 12.7647C5.70188 12.1772 4.98034 11.7385 4.18939 11.4832L0.593832 10.3212C-0.0190487 10.1231 -0.0308487 9.24869 0.576462 9.03406L4.14121 7.7755C4.92482 7.49849 5.63402 7.04002 6.21259 6.43643C6.79116 5.83283 7.22319 5.10071 7.47445 4.29808L8.61789 0.649405C8.6599 0.513228 8.74323 0.394013 8.85597 0.30877C8.96872 0.223526 9.10512 0.176608 9.24573 0.174711C9.38633 0.172813 9.52395 0.216032 9.63896 0.298203C9.75396 0.380373 9.84047 0.497296 9.88615 0.632289L11.1277 4.25065C11.4007 5.04586 11.8525 5.76568 12.4471 6.3531C13.0417 6.94052 13.7629 7.37941 14.5535 7.63498L18.1509 8.79689C18.2851 8.83958 18.4026 8.9242 18.4866 9.03865C18.5707 9.15311 18.617 9.29157 18.6189 9.43427C18.6208 9.57697 18.5783 9.71663 18.4974 9.83332C18.4164 9.95 18.3013 10.0378 18.1683 10.0841L14.6035 11.3426C13.8201 11.6194 13.111 12.0776 12.5325 12.6809C11.9539 13.2841 11.5218 14.0159 11.2703 14.8182L10.1269 18.4687ZM17.3978 27.9397C17.3724 28.0214 17.3223 28.0928 17.2546 28.1438C17.1869 28.1948 17.105 28.2229 17.0207 28.2241C16.9364 28.2252 16.8538 28.1993 16.7848 28.1501C16.7157 28.1009 16.6637 28.0309 16.6361 27.95L15.8912 25.7794C15.5582 24.8118 14.7974 24.0601 13.8353 23.7484L11.6772 23.0513C11.5968 23.0254 11.5264 22.9746 11.4761 22.9058C11.4258 22.8371 11.3981 22.7541 11.3969 22.6685C11.3958 22.5829 11.4212 22.4991 11.4697 22.429C11.5181 22.359 11.5871 22.3062 11.6668 22.2782L13.8053 21.5231C14.2754 21.357 14.701 21.0821 15.0482 20.72C15.3954 20.358 15.6547 19.9189 15.8056 19.4374L16.4917 17.2474C16.5171 17.1658 16.5672 17.0944 16.6349 17.0434C16.7026 16.9923 16.7844 16.9643 16.8687 16.9631C16.9531 16.962 17.0356 16.9878 17.1047 17.037C17.1737 17.0862 17.2257 17.1562 17.2534 17.2371L17.9983 19.4078C18.1621 19.885 18.4332 20.317 18.79 20.6695C19.1469 21.0221 19.5797 21.2854 20.0541 21.4388L22.2122 22.1359C22.2926 22.1617 22.363 22.2126 22.4133 22.2813C22.4636 22.3501 22.4913 22.4331 22.4925 22.5187C22.4937 22.6043 22.4682 22.6881 22.4198 22.7581C22.3713 22.8282 22.3023 22.881 22.2226 22.909L20.0842 23.6641C19.614 23.8302 19.1885 24.1051 18.8413 24.4671C18.4941 24.8292 18.2347 25.2683 18.0838 25.7498L17.3978 27.9397ZM4.35537 30.0844C4.33783 30.1381 4.30426 30.1849 4.25931 30.2183C4.21436 30.2517 4.16027 30.27 4.10455 30.2708C4.04884 30.2715 3.99427 30.2546 3.94843 30.2225C3.9026 30.1903 3.86777 30.1444 3.8488 30.0912L3.35222 28.6454C3.13085 27.999 2.62297 27.4973 1.98038 27.2902L0.542896 26.8254C0.490004 26.8076 0.443888 26.7735 0.41096 26.7279C0.378033 26.6822 0.359928 26.6273 0.359165 26.5708C0.358401 26.5142 0.375018 26.4588 0.406702 26.4123C0.438386 26.3658 0.483566 26.3305 0.535958 26.3113L1.96038 25.8079C2.27418 25.6972 2.5582 25.5138 2.7899 25.2722C3.0216 25.0306 3.19459 24.7375 3.29514 24.4161L3.75253 22.9574C3.77006 22.9037 3.80363 22.857 3.84858 22.8236C3.89353 22.7902 3.94762 22.7718 4.00334 22.771C4.05906 22.7703 4.11362 22.7872 4.15946 22.8194C4.20529 22.8515 4.24012 22.8974 4.25909 22.9506L4.75568 24.3964C4.86486 24.7149 5.0457 25.0033 5.28383 25.2385C5.52197 25.4738 5.81084 25.6495 6.12751 25.7516L7.56315 26.2164C7.61604 26.2343 7.66215 26.2683 7.69508 26.314C7.72801 26.3596 7.74611 26.4145 7.74688 26.4711C7.74764 26.5276 7.73103 26.583 7.69934 26.6295C7.66766 26.676 7.62248 26.7113 7.57009 26.7306L6.14567 27.234C5.50891 27.4584 5.01475 27.9736 4.8109 28.6257L4.35534 30.0825L4.35537 30.0844Z" fill="#5979F1"/>
</svg>
