<svg width="22" height="22" viewBox="0 0 22 22" fill="none" xmlns="http://www.w3.org/2000/svg">
<mask id="mask0_3115_15049" style="mask-type:alpha" maskUnits="userSpaceOnUse" x="0" y="0" width="22" height="22">
<rect width="22" height="22" fill="#D9D9D9"/>
</mask>
<g mask="url(#mask0_3115_15049)">
<path d="M9.96883 17.6918L3.91883 11.6418C3.82716 11.5501 3.76223 11.4508 3.72404 11.3438C3.68585 11.2369 3.66675 11.1223 3.66675 11.0001C3.66675 10.8779 3.68585 10.7633 3.72404 10.6563C3.76223 10.5494 3.82716 10.4501 3.91883 10.3584L9.96883 4.30843C10.1369 4.14038 10.347 4.05253 10.599 4.04489C10.8511 4.03725 11.0688 4.1251 11.2522 4.30843C11.4355 4.47649 11.531 4.68656 11.5386 4.93864C11.5463 5.19073 11.4584 5.40843 11.2751 5.59177L6.78341 10.0834H17.0272C17.2869 10.0834 17.5046 10.1713 17.6803 10.347C17.856 10.5227 17.9438 10.7404 17.9438 11.0001C17.9438 11.2598 17.856 11.4775 17.6803 11.6532C17.5046 11.8289 17.2869 11.9168 17.0272 11.9168H6.78341L11.2751 16.4084C11.4431 16.5765 11.531 16.7904 11.5386 17.0501C11.5463 17.3098 11.4584 17.5237 11.2751 17.6918C11.107 17.8751 10.8931 17.9668 10.6334 17.9668C10.3737 17.9668 10.1522 17.8751 9.96883 17.6918Z" fill="white"/>
</g>
</svg>
