<svg width="142" height="184" viewBox="0 0 142 184" fill="none" xmlns="http://www.w3.org/2000/svg">
<path d="M71 141C109.66 141 141 109.66 141 71C141 32.3401 109.66 1 71 1C32.3401 1 1 32.3401 1 71C1 109.66 32.3401 141 71 141Z" fill="#2F3249" stroke="#E6EBFD" stroke-width="1.25" stroke-miterlimit="10"/>
<path d="M71.0001 111.617C93.4324 111.617 111.617 93.4323 111.617 71C111.617 48.5677 93.4324 30.3827 71.0001 30.3827C48.5678 30.3827 30.3828 48.5677 30.3828 71C30.3828 93.4323 48.5678 111.617 71.0001 111.617Z" fill="#1B1E36"/>
<path d="M71.1553 9.95056C63.5935 9.95056 57.4824 37.358 57.4824 71.1543C57.4824 104.951 63.5935 132.358 71.1553 132.358C78.717 132.358 84.8281 104.951 84.8281 71.1543C84.8281 37.358 78.717 9.95056 71.1553 9.95056ZM72.1121 128.901C71.2479 130.043 70.3837 129.179 70.3837 129.179C66.896 125.136 65.1676 117.667 65.1676 117.667C59.0874 98.0678 60.538 56.0308 60.538 56.0308C63.3775 22.6666 68.5935 14.7654 70.3528 13.0061C70.7232 12.6357 71.3096 12.6049 71.7417 12.8827C74.3034 14.7036 76.4639 22.3271 76.4639 22.3271C82.8219 45.9382 82.2355 68.1296 82.2355 68.1296C82.8219 87.4197 79.0565 109.025 79.0565 109.025C76.1553 125.444 72.1121 128.901 72.1121 128.901Z" fill="#707491"/>
<path d="M124.24 40.6914C120.474 34.1482 93.6534 42.4506 64.3324 59.2716C35.0114 76.0926 14.3015 95.0741 18.067 101.617C21.8324 108.161 48.6534 99.858 77.9744 83.037C107.295 66.2161 128.005 47.2654 124.24 40.6914ZM21.5238 100.722C20.0732 100.537 20.4127 99.3642 20.4127 99.3642C22.1719 94.3333 27.7892 89.1173 27.7892 89.1173C41.7707 74.0864 78.962 54.4259 78.962 54.4259C109.332 40.2901 118.777 40.8766 121.184 41.5556C121.678 41.7099 122.018 42.1728 121.956 42.6975C121.678 45.8457 116.123 51.4938 116.123 51.4938C98.8077 68.7778 79.3015 79.3025 79.3015 79.3025C62.8509 89.3951 42.2336 96.8951 42.2336 96.8951C26.5546 102.512 21.5238 100.722 21.5238 100.722Z" fill="#707491"/>
<path d="M124.118 101.833C127.914 95.2901 107.266 76.2469 78.0378 59.3024C48.8094 42.358 21.9884 33.9321 18.1921 40.4753C14.3958 47.0185 35.0439 66.0617 64.3032 83.0061C93.5624 99.9506 120.322 108.376 124.118 101.833ZM20.7229 43.0061C20.1674 41.679 21.3402 41.3703 21.3402 41.3703C26.5871 40.3827 33.9328 42.6358 33.9328 42.6358C53.9328 47.2037 89.581 69.5185 89.581 69.5185C117.05 88.716 121.248 97.2037 121.865 99.5802C121.988 100.074 121.741 100.63 121.279 100.846C118.408 102.142 110.754 100.197 110.754 100.197C87.1118 93.8703 68.2229 82.2654 68.2229 82.2654C51.2476 73.0987 34.4575 59.0246 34.4575 59.0246C21.6797 48.253 20.7229 43.037 20.7229 43.0061Z" fill="#707491"/>
<path d="M71 78.1914C74.9716 78.1914 78.1913 74.9718 78.1913 71.0001C78.1913 67.0284 74.9716 63.8087 71 63.8087C67.0283 63.8087 63.8086 67.0284 63.8086 71.0001C63.8086 74.9718 67.0283 78.1914 71 78.1914Z" fill="#B7B9C8"/>
<path d="M100.538 47.6975C102.839 47.6975 104.704 45.7629 104.704 43.3765C104.704 40.9901 102.839 39.0555 100.538 39.0555C98.2366 39.0555 96.3711 40.9901 96.3711 43.3765C96.3711 45.7629 98.2366 47.6975 100.538 47.6975Z" fill="#B7B9C8"/>
<path d="M31.987 62.358C34.2882 62.358 36.1536 60.4235 36.1536 58.0371C36.1536 55.6506 34.2882 53.7161 31.987 53.7161C29.6858 53.7161 27.8203 55.6506 27.8203 58.0371C27.8203 60.4235 29.6858 62.358 31.987 62.358Z" fill="#B7B9C8"/>
<path d="M62.5124 115.383C64.8136 115.383 66.679 113.448 66.679 111.062C66.679 108.675 64.8136 106.741 62.5124 106.741C60.2112 106.741 58.3457 108.675 58.3457 111.062C58.3457 113.448 60.2112 115.383 62.5124 115.383Z" fill="#B7B9C8"/>
<path fill-rule="evenodd" clip-rule="evenodd" d="M16.5585 176.438L14.6405 174.494C13.9123 175.176 13.1711 175.716 12.4299 176.113C11.6822 176.509 10.7915 176.711 9.75773 176.711C8.94502 176.711 8.19733 176.555 7.50815 176.236C6.81898 175.918 6.22083 175.488 5.7202 174.936C5.21957 174.383 4.82947 173.739 4.5564 173.005C4.28333 172.27 4.1403 171.477 4.1403 170.638C4.1403 169.793 4.27683 169.006 4.5564 168.278C4.82947 167.55 5.21957 166.913 5.7202 166.373C6.22083 165.833 6.81898 165.404 7.50815 165.086C8.19733 164.767 8.94502 164.611 9.75773 164.611C10.733 164.611 11.5977 164.806 12.3584 165.196C13.1191 165.586 13.8408 166.094 14.5234 166.724L16.4414 164.514C16.0383 164.124 15.6092 163.766 15.1541 163.441C14.699 163.116 14.2049 162.836 13.6717 162.602C13.1386 162.368 12.5469 162.186 11.9098 162.056C11.2726 161.926 10.5574 161.861 9.78373 161.861C8.4899 161.861 7.3066 162.095 6.23383 162.557C5.15456 163.012 4.23132 163.642 3.45762 164.442C2.67743 165.242 2.07927 166.178 1.64366 167.251C1.21455 168.317 1 169.461 1 170.677C1 171.906 1.22106 173.057 1.65667 174.13C2.09228 175.196 2.69693 176.126 3.47063 176.912C4.23782 177.699 5.15456 178.317 6.20782 178.772C7.26109 179.227 8.41188 179.454 9.6602 179.454C10.4534 179.454 11.1816 179.383 11.8383 179.246C12.4949 179.11 13.0996 178.908 13.6522 178.642C14.2049 178.375 14.7185 178.057 15.1931 177.692C15.6612 177.322 16.1163 176.906 16.5585 176.438Z" fill="#15233D"/>
<path fill-rule="evenodd" clip-rule="evenodd" d="M55.126 166.672C55.126 166.107 55.3666 165.626 55.8542 165.229C56.3353 164.832 57.0115 164.637 57.8827 164.637C58.6564 164.637 59.4236 164.787 60.1778 165.086C60.9385 165.385 61.6992 165.821 62.4729 166.386L64.0658 164.13C63.1946 163.435 62.2648 162.908 61.2766 162.544C60.2818 162.18 59.17 161.998 57.9282 161.998C57.0895 161.998 56.3158 162.115 55.6136 162.349C54.9049 162.583 54.3003 162.921 53.7997 163.357C53.299 163.792 52.9024 164.312 52.6099 164.923C52.3238 165.528 52.1807 166.204 52.1807 166.945C52.1807 167.739 52.3043 168.408 52.5578 168.961C52.8049 169.514 53.1755 169.982 53.6501 170.365C54.1247 170.755 54.7164 171.074 55.4186 171.334C56.1207 171.594 56.927 171.828 57.8307 172.036C58.6239 172.231 59.2611 172.413 59.7552 172.595C60.2493 172.771 60.6329 172.966 60.919 173.168C61.1985 173.369 61.3936 173.59 61.4976 173.837C61.6016 174.078 61.6537 174.357 61.6537 174.663C61.6537 175.326 61.3871 175.853 60.841 176.236C60.3013 176.626 59.5731 176.821 58.6499 176.821C57.5836 176.821 56.6344 176.633 55.7957 176.249C54.957 175.872 54.1247 175.326 53.3055 174.611L51.5176 176.743C52.5318 177.667 53.6371 178.349 54.8269 178.791C56.0167 179.234 57.2715 179.461 58.5719 179.461C59.4561 179.461 60.2753 179.351 61.0165 179.123C61.7512 178.895 62.3883 178.564 62.915 178.128C63.4416 177.693 63.8512 177.16 64.1503 176.529C64.4429 175.898 64.5924 175.177 64.5924 174.37C64.5924 173.662 64.4754 173.037 64.2413 172.517C64.0073 171.991 63.6627 171.529 63.2076 171.133C62.7589 170.736 62.1868 170.398 61.4976 170.125C60.8149 169.852 60.0217 169.598 59.1375 169.371C58.3248 169.176 57.6616 168.993 57.135 168.811C56.6084 168.636 56.1988 168.441 55.8997 168.226C55.6006 168.018 55.3991 167.791 55.282 167.55C55.1845 167.303 55.126 167.01 55.126 166.672Z" fill="#15233D"/>
<path fill-rule="evenodd" clip-rule="evenodd" d="M88.2192 166.913V179.038H91.1709V162.128H87.9981L82.8423 170.125L77.6865 162.128H74.5137V179.038H77.4654V166.958L82.7708 174.884H82.8683L88.2192 166.913Z" fill="#15233D"/>
<path fill-rule="evenodd" clip-rule="evenodd" d="M115.995 170.677C115.995 171.503 115.852 172.283 115.572 173.024C115.286 173.759 114.896 174.403 114.395 174.942C113.895 175.482 113.29 175.917 112.588 176.23C111.886 176.548 111.112 176.704 110.273 176.704C109.434 176.704 108.654 176.542 107.946 176.217C107.237 175.891 106.626 175.456 106.112 174.903C105.605 174.351 105.208 173.707 104.922 172.972C104.643 172.238 104.5 171.451 104.5 170.625C104.5 169.799 104.643 169.019 104.922 168.278C105.208 167.543 105.598 166.9 106.099 166.36C106.6 165.82 107.204 165.391 107.907 165.073C108.609 164.754 109.382 164.598 110.221 164.598C111.06 164.598 111.84 164.761 112.549 165.086C113.257 165.411 113.869 165.846 114.382 166.399C114.889 166.952 115.286 167.595 115.572 168.33C115.852 169.071 115.995 169.851 115.995 170.677ZM119.122 170.632C119.122 169.435 118.901 168.298 118.465 167.231C118.03 166.165 117.425 165.229 116.645 164.436C115.871 163.642 114.941 163.012 113.856 162.55C112.77 162.088 111.573 161.854 110.267 161.854C108.953 161.854 107.757 162.088 106.678 162.557C105.592 163.025 104.656 163.662 103.863 164.462C103.069 165.261 102.458 166.197 102.016 167.27C101.58 168.337 101.359 169.474 101.359 170.671C101.359 171.867 101.58 173.005 102.016 174.071C102.452 175.144 103.056 176.073 103.837 176.867C104.61 177.66 105.54 178.291 106.626 178.752C107.711 179.214 108.908 179.448 110.215 179.448C111.521 179.448 112.724 179.214 113.804 178.746C114.889 178.278 115.826 177.64 116.619 176.834C117.412 176.034 118.023 175.098 118.465 174.025C118.901 172.959 119.122 171.828 119.122 170.632Z" fill="#15233D"/>
<path fill-rule="evenodd" clip-rule="evenodd" d="M131.534 166.672C131.534 166.107 131.775 165.626 132.262 165.229C132.744 164.832 133.426 164.637 134.291 164.637C135.065 164.637 135.832 164.787 136.586 165.086C137.34 165.385 138.107 165.821 138.881 166.386L140.474 164.13C139.603 163.435 138.673 162.908 137.685 162.544C136.697 162.18 135.578 161.998 134.336 161.998C133.498 161.998 132.724 162.115 132.022 162.349C131.313 162.583 130.708 162.921 130.208 163.357C129.707 163.792 129.311 164.312 129.018 164.923C128.732 165.528 128.589 166.204 128.589 166.945C128.589 167.739 128.712 168.408 128.966 168.961C129.213 169.514 129.584 169.982 130.058 170.365C130.533 170.755 131.125 171.074 131.827 171.334C132.529 171.594 133.335 171.828 134.239 172.036C135.026 172.231 135.669 172.413 136.163 172.595C136.658 172.771 137.041 172.966 137.327 173.168C137.607 173.369 137.802 173.59 137.906 173.837C138.01 174.078 138.062 174.357 138.062 174.663C138.062 175.326 137.789 175.853 137.249 176.236C136.71 176.626 135.981 176.821 135.058 176.821C133.992 176.821 133.043 176.633 132.204 176.249C131.365 175.872 130.533 175.326 129.714 174.611L127.926 176.743C128.94 177.667 130.045 178.349 131.235 178.791C132.425 179.234 133.673 179.461 134.98 179.461C135.864 179.461 136.684 179.351 137.425 179.123C138.159 178.895 138.797 178.564 139.323 178.128C139.85 177.693 140.259 177.16 140.558 176.529C140.851 175.898 141.001 175.177 141.001 174.37C141.001 173.662 140.884 173.037 140.65 172.517C140.415 171.991 140.071 171.529 139.616 171.133C139.167 170.736 138.595 170.398 137.906 170.125C137.223 169.852 136.43 169.598 135.546 169.371C134.733 169.176 134.07 168.993 133.543 168.811C133.017 168.636 132.607 168.441 132.308 168.226C132.009 168.018 131.807 167.791 131.69 167.55C131.593 167.303 131.534 167.01 131.534 166.672Z" fill="#15233D"/>
<path fill-rule="evenodd" clip-rule="evenodd" d="M36.8182 165.515L28.7236 173.597C28.6196 173.395 28.5221 173.181 28.4376 172.966C28.158 172.231 28.015 171.451 28.015 170.632C28.015 169.806 28.158 169.032 28.4376 168.298C28.7236 167.563 29.1137 166.926 29.6144 166.386C30.115 165.847 30.7196 165.418 31.4218 165.105C32.124 164.793 32.8977 164.631 33.7364 164.631C34.5751 164.631 35.3553 164.793 36.064 165.118C36.3306 165.229 36.5841 165.366 36.8182 165.515ZM36.103 176.21C35.4008 176.522 34.6271 176.685 33.7884 176.685C32.9497 176.685 32.1695 176.522 31.4608 176.204C31.1943 176.087 30.9472 175.95 30.7131 175.794L38.8077 167.713C38.9117 167.914 39.0093 168.122 39.0938 168.343C39.3733 169.078 39.5164 169.858 39.5164 170.677C39.5164 171.503 39.3733 172.277 39.0938 173.011C38.8077 173.746 38.4176 174.383 37.917 174.923C37.4098 175.469 36.8117 175.898 36.103 176.21ZM37.3318 178.713C38.4176 178.245 39.3538 177.615 40.147 176.815C40.9402 176.015 41.5514 175.086 41.987 174.019C42.4226 172.953 42.6437 171.822 42.6437 170.632C42.6437 169.436 42.4226 168.304 41.987 167.245C41.7269 166.614 41.4084 166.029 41.0313 165.496L46.2976 160.236L44.2041 158.142L38.9247 163.415C38.4501 163.09 37.9365 162.81 37.3838 162.576C36.2981 162.115 35.1018 161.887 33.7949 161.887C32.4881 161.887 31.2918 162.121 30.206 162.589C29.1202 163.057 28.184 163.688 27.3908 164.488C26.5976 165.288 25.9864 166.217 25.5508 167.284C25.1152 168.35 24.8942 169.481 24.8942 170.671C24.8942 171.867 25.1152 172.992 25.5508 174.058C25.8109 174.689 26.1295 175.274 26.5066 175.807L21.2402 181.061L23.3338 183.148L28.6131 177.875C29.0877 178.2 29.6014 178.479 30.154 178.713C31.2398 179.175 32.4361 179.403 33.7429 179.403C35.0497 179.416 36.2461 179.182 37.3318 178.713Z" fill="#15233D"/>
</svg>
