<svg width="159" height="112" viewBox="0 0 159 112" fill="none" xmlns="http://www.w3.org/2000/svg">
<path d="M68.9809 57.2039L40.6973 28.5113L69.3356 0.239258L75.9697 6.98196L72.1994 10.7016L69.2831 7.7443L48.1984 28.5639L69.0335 49.6989L71.6871 47.0702L75.418 50.8555L68.9809 57.2039Z" fill="white"/>
<path d="M89.815 39.6309L86.0973 35.8455L93.1518 28.8794L85.8477 21.4795L89.6311 17.7467L100.653 28.932L89.815 39.6309Z" fill="white"/>
<path d="M68.6144 28.3274L89.4495 49.4625L110.547 28.6429L89.6991 7.50784L68.6144 28.3274ZM89.3969 56.9543L61.1133 28.2748L82.592 7.0741L89.7516 0.00280762L118.035 28.6954L89.3969 56.9543Z" fill="white"/>
<path d="M0 75.4606H9.0907V88.7751L20.3753 75.4606H31.1475L18.7332 89.5637L31.5679 108.267H20.6511L12.4143 96.083L9.0907 99.7895V108.267H0V75.4606Z" fill="white"/>
<path d="M34.2084 75.4606H42.6817L56.1733 92.7971V75.4606H65.172V108.267H57.2111L43.1941 90.2735V108.267H34.1953V75.4606H34.2084Z" fill="white"/>
<path d="M107.67 75.4605H117.273L122.987 94.44L129.306 75.3685H137.136L143.455 94.44L149.169 75.4605H158.588L147.632 108.504H139.711L133.103 89.6163L126.548 108.504H118.626L107.67 75.4605Z" fill="white"/>
<path d="M69.8887 91.9689V91.8769C69.8887 82.4529 77.4818 74.8164 87.5971 74.8164C97.7125 74.8164 105.214 82.3609 105.214 91.7849V91.8769C105.214 101.301 97.6206 108.937 87.5052 108.937C77.3898 108.937 69.8887 101.393 69.8887 91.9689ZM95.939 91.9689V91.8769C95.939 87.1452 92.5235 83.0181 87.5052 83.0181C82.5395 83.0181 79.2158 87.0532 79.2158 91.7849V91.8769C79.2158 96.6086 82.6314 100.736 87.5971 100.736C92.6154 100.736 95.939 96.7006 95.939 91.9689Z" fill="white"/>
<path d="M101.207 71.754L107.67 78.2207L73.9086 112L67.4453 105.533L101.207 71.754Z" fill="white"/>
</svg>
