<svg width="64" height="64" viewBox="0 0 64 64" fill="none" xmlns="http://www.w3.org/2000/svg">
<path d="M55.5919 16.5242L32.7675 5.98985C32.5364 5.88289 32.2848 5.82748 32.0301 5.82748C31.7755 5.82748 31.5239 5.88289 31.2927 5.98985L8.4684 16.5242C8.16364 16.6652 7.90572 16.8907 7.72523 17.1739C7.54474 17.457 7.44925 17.7861 7.45008 18.1219V47.9691C7.44925 48.3049 7.54474 48.6339 7.72523 48.9171C7.90572 49.2003 8.16364 49.4257 8.4684 49.5668L31.2927 60.1011C31.5239 60.2081 31.7755 60.2635 32.0301 60.2635C32.2848 60.2635 32.5364 60.2081 32.7675 60.1011L55.5919 49.5668C55.8966 49.4257 56.1546 49.2003 56.3351 48.9171C56.5155 48.6339 56.611 48.3049 56.6102 47.9691V18.1219C56.611 17.7861 56.5155 17.457 56.3351 17.1739C56.1546 16.8907 55.8966 16.6652 55.5919 16.5242ZM32.0301 26.7249L13.402 18.1219L32.0301 9.51884L50.6583 18.1219L32.0301 26.7249ZM53.0988 46.8454L33.7859 55.7645V29.7798L53.0988 20.8608V46.8454Z" fill="white"/>
<path d="M33.7824 55.8698V29.534L53.0953 20.7554V47.0912L33.7824 55.8698Z" fill="white" fill-opacity="0.4"/>
<path d="M50.4618 18.1219L32.0267 26.9004L13.5917 18.1219L32.0267 9.34326L50.4618 18.1219Z" fill="white" fill-opacity="0.4"/>
</svg>
