<svg width="31" height="32" viewBox="0 0 31 32" fill="none" xmlns="http://www.w3.org/2000/svg">
<path d="M15.5 31.4844C18.5594 31.4844 21.5502 30.5772 24.094 28.8774C26.6378 27.1777 28.6205 24.7618 29.7913 21.9353C30.9621 19.1087 31.2684 15.9985 30.6715 12.9978C30.0747 9.99718 28.6014 7.24092 26.4381 5.07757C24.2747 2.91423 21.5184 1.44097 18.5178 0.84411C15.5172 0.247244 12.4069 0.553577 9.58037 1.72437C6.75382 2.89516 4.33793 4.87783 2.6382 7.42166C0.938476 9.96548 0.03125 12.9562 0.03125 16.0156C0.03125 20.1182 1.66099 24.0527 4.56194 26.9537C7.4629 29.8546 11.3974 31.4844 15.5 31.4844ZM15.5 28.3906C14.5822 28.3906 13.685 28.1185 12.9218 27.6085C12.1587 27.0986 11.5639 26.3739 11.2126 25.5259C10.8614 24.6779 10.7695 23.7449 10.9485 22.8447C11.1276 21.9445 11.5696 21.1176 12.2186 20.4686C12.8676 19.8196 13.6945 19.3776 14.5947 19.1986C15.4949 19.0195 16.4279 19.1114 17.2759 19.4626C18.1239 19.8139 18.8486 20.4087 19.3585 21.1718C19.8685 21.935 20.1406 22.8322 20.1406 23.75C20.1406 24.9808 19.6517 26.1611 18.7814 27.0314C17.9111 27.9017 16.7308 28.3906 15.5 28.3906ZM23.75 10.8594C24.6678 10.8594 25.565 11.1315 26.3282 11.6415C27.0913 12.1514 27.6861 12.8762 28.0374 13.7241C28.3886 14.5721 28.4805 15.5052 28.3015 16.4053C28.1224 17.3055 27.6804 18.1324 27.0314 18.7814C26.3824 19.4304 25.5555 19.8724 24.6553 20.0515C23.7551 20.2305 22.8221 20.1386 21.9741 19.7874C21.1261 19.4361 20.4014 18.8413 19.8915 18.0782C19.3815 17.3151 19.1094 16.4178 19.1094 15.5C19.1094 14.2692 19.5983 13.0889 20.4686 12.2186C21.3389 11.3483 22.5192 10.8594 23.75 10.8594ZM15.5 2.60938C16.4178 2.60938 17.315 2.88155 18.0782 3.39147C18.8413 3.90139 19.4361 4.62615 19.7874 5.47412C20.1386 6.32208 20.2305 7.25516 20.0515 8.15535C19.8724 9.05554 19.4304 9.88242 18.7814 10.5314C18.1324 11.1804 17.3055 11.6224 16.4053 11.8015C15.5051 11.9805 14.5721 11.8886 13.7241 11.5374C12.8761 11.1861 12.1514 10.5913 11.6415 9.8282C11.1315 9.06505 10.8594 8.16784 10.8594 7.25001C10.8594 6.01924 11.3483 4.83888 12.2186 3.96859C13.0889 3.0983 14.2692 2.60938 15.5 2.60938ZM2.60938 15.5C2.60938 14.5822 2.88154 13.685 3.39146 12.9218C3.90138 12.1587 4.62615 11.5639 5.47411 11.2126C6.32207 10.8614 7.25515 10.7695 8.15534 10.9486C9.05553 11.1276 9.88241 11.5696 10.5314 12.2186C11.1804 12.8676 11.6224 13.6945 11.8015 14.5947C11.9805 15.4949 11.8886 16.4279 11.5374 17.2759C11.1861 18.1239 10.5913 18.8486 9.82819 19.3585C9.06505 19.8685 8.16783 20.1406 7.25 20.1406C6.01923 20.1406 4.83887 19.6517 3.96858 18.7814C3.0983 17.9111 2.60938 16.7308 2.60938 15.5Z" fill="white"/>
</svg>
