<svg width="33" height="33" viewBox="0 0 33 33" fill="none" xmlns="http://www.w3.org/2000/svg">
<g clip-path="url(#clip0_3115_21231)">
<path d="M16.4393 9.86378C18.5675 9.86378 20.2927 8.13855 20.2927 6.01038C20.2927 3.88221 18.5675 2.15698 16.4393 2.15698C14.3112 2.15698 12.5859 3.88221 12.5859 6.01038C12.5859 8.13855 14.3112 9.86378 16.4393 9.86378Z" fill="white"/>
<path d="M29.9286 16.6118L26.3372 15.8627C25.1136 15.6064 23.9056 16.1672 23.267 17.1642C22.6467 16.8455 21.9797 16.5708 21.2702 16.3428V14.2072C21.2716 12.5913 19.9488 11.27 18.3387 11.27H14.6666C13.0479 11.27 11.7309 12.5913 11.7309 14.2072V16.3541C11.0285 16.5778 10.3685 16.8526 9.74397 17.1726C9.1053 16.1714 7.89586 15.6064 6.67085 15.8627L3.07658 16.6118C1.49896 16.9418 0.475043 18.5067 0.805011 20.0899L1.70714 24.3994C2.03429 25.9784 3.60055 27.0023 5.17962 26.6723L6.31679 26.4344C6.88606 27.2756 7.67349 28.0474 8.68178 28.7073C10.7819 30.0839 13.5563 30.8429 16.5004 30.8429C21.0053 30.8429 24.8856 29.0317 26.6728 26.4301L27.8284 26.6723C29.406 27.0008 30.9723 25.9784 31.2995 24.3994L32.203 20.0899C32.5315 18.5067 31.5076 16.9418 29.9286 16.6118ZM16.499 29.3715C13.8394 29.3715 11.3469 28.7017 9.48753 27.4767C8.85024 27.0603 8.322 26.5973 7.89861 26.1016L8.76956 25.9189C10.35 25.5904 11.3739 24.0255 11.0439 22.445L10.2353 18.5704C10.7069 18.3169 11.2026 18.0945 11.7294 17.9048V18.6115C11.7294 20.2245 13.0492 21.5458 14.6651 21.5458H18.3372C19.9488 21.5458 21.2687 20.2231 21.2687 18.6115V17.8679C21.8054 18.0591 22.3096 18.2787 22.7769 18.5279L21.9569 22.4465C21.6298 24.0269 22.6523 25.5918 24.2327 25.9203L25.1121 26.1044C23.4723 28.046 20.2278 29.3715 16.499 29.3715Z" fill="white"/>
<path d="M29.1469 14.9294C31.275 14.9294 33.0003 13.2042 33.0003 11.0761C33.0003 8.94788 31.275 7.22266 29.1469 7.22266C27.0187 7.22266 25.2935 8.94788 25.2935 11.0761C25.2935 13.2042 27.0187 14.9294 29.1469 14.9294Z" fill="white"/>
<path d="M4.64403 14.8487C6.72862 14.4125 8.05985 12.369 7.6293 10.2858C7.19029 8.20401 5.15099 6.86714 3.06496 7.30333C0.983189 7.73808 -0.353689 9.7802 0.082505 11.8634C0.51732 13.948 2.55944 15.2835 4.64403 14.8487Z" fill="white"/>
</g>
<defs>
<clipPath id="clip0_3115_21231">
<rect width="33" height="33" fill="white"/>
</clipPath>
</defs>
</svg>
