<svg width="18" height="19" viewBox="0 0 18 19" fill="none" xmlns="http://www.w3.org/2000/svg">
<mask id="mask0_3669_12282" style="mask-type:alpha" maskUnits="userSpaceOnUse" x="0" y="0" width="18" height="19">
<rect y="0.5" width="18" height="18" fill="#D9D9D9"/>
</mask>
<g mask="url(#mask0_3669_12282)">
<path d="M9 13.25C9.2125 13.25 9.39063 13.1781 9.53438 13.0344C9.67813 12.8906 9.75 12.7125 9.75 12.5C9.75 12.2875 9.67813 12.1094 9.53438 11.9656C9.39063 11.8219 9.2125 11.75 9 11.75C8.7875 11.75 8.60938 11.8219 8.46563 11.9656C8.32188 12.1094 8.25 12.2875 8.25 12.5C8.25 12.7125 8.32188 12.8906 8.46563 13.0344C8.60938 13.1781 8.7875 13.25 9 13.25ZM9 17C7.9625 17 6.9875 16.8031 6.075 16.4094C5.1625 16.0156 4.36875 15.4813 3.69375 14.8063C3.01875 14.1313 2.48438 13.3375 2.09063 12.425C1.69687 11.5125 1.5 10.5375 1.5 9.5C1.5 8.4625 1.69687 7.4875 2.09063 6.575C2.48438 5.6625 3.01875 4.86875 3.69375 4.19375C4.36875 3.51875 5.1625 2.98438 6.075 2.59063C6.9875 2.19687 7.9625 2 9 2C10.0375 2 11.0125 2.19687 11.925 2.59063C12.8375 2.98438 13.6313 3.51875 14.3063 4.19375C14.9813 4.86875 15.5156 5.6625 15.9094 6.575C16.3031 7.4875 16.5 8.4625 16.5 9.5C16.5 10.5375 16.3031 11.5125 15.9094 12.425C15.5156 13.3375 14.9813 14.1313 14.3063 14.8063C13.6313 15.4813 12.8375 16.0156 11.925 16.4094C11.0125 16.8031 10.0375 17 9 17ZM9 10.25C9.2125 10.25 9.39063 10.1781 9.53438 10.0344C9.67813 9.89063 9.75 9.7125 9.75 9.5V6.5C9.75 6.2875 9.67813 6.10938 9.53438 5.96562C9.39063 5.82187 9.2125 5.75 9 5.75C8.7875 5.75 8.60938 5.82187 8.46563 5.96562C8.32188 6.10938 8.25 6.2875 8.25 6.5V9.5C8.25 9.7125 8.32188 9.89063 8.46563 10.0344C8.60938 10.1781 8.7875 10.25 9 10.25Z" fill="#FF3648"/>
</g>
</svg>
