<svg width="64" height="65" viewBox="0 0 64 65" fill="none" xmlns="http://www.w3.org/2000/svg">
<path fill-rule="evenodd" clip-rule="evenodd" d="M27.8884 18.6046V52.1247L55.2162 24.7969C55.7239 24.2892 55.7239 23.4661 55.2162 22.9584L40.2947 8.03687C39.787 7.52919 38.9639 7.52919 38.4562 8.03687L27.8884 18.6046Z" fill="white" fill-opacity="0.4"/>
<path d="M63.4458 45.6854V58.8533C63.4458 61.8029 61.1282 64.1205 58.1786 64.1205H25.3115L49.0137 40.4182H58.1786C61.1282 40.4182 63.4458 42.8411 63.4458 45.6854ZM0.239746 52.322V6.1816C0.239746 3.23198 2.5573 0.914429 5.50692 0.914429H18.6748C21.6245 0.914429 23.942 3.23198 23.942 6.1816V52.322C23.942 58.8533 18.6748 64.1205 12.1435 64.1205C5.61226 64.1205 0.239746 58.8533 0.239746 52.322ZM12.0382 57.5892C14.9878 57.5892 17.3054 55.2716 17.3054 52.322C17.3054 49.3724 14.9878 47.0548 12.0382 47.0548C9.08859 47.0548 6.77104 49.3724 6.77104 52.322C6.77104 55.2716 9.19393 57.5892 12.0382 57.5892Z" fill="white"/>
</svg>
