<svg width="18" height="19" viewBox="0 0 18 19" fill="none" xmlns="http://www.w3.org/2000/svg">
<mask id="mask0_3669_12302" style="mask-type:alpha" maskUnits="userSpaceOnUse" x="0" y="0" width="18" height="19">
<rect y="0.5" width="18" height="18" fill="#D9D9D9"/>
</mask>
<g mask="url(#mask0_3669_12302)">
<path d="M11.9625 16.6813C11.8625 16.6813 11.7688 16.6656 11.6812 16.6344C11.5938 16.6031 11.5125 16.55 11.4375 16.475L9.3 14.3375C9.1625 14.2 9.09375 14.025 9.09375 13.8125C9.09375 13.6 9.1625 13.425 9.3 13.2875C9.4375 13.15 9.6125 13.0813 9.825 13.0813C10.0375 13.0813 10.2125 13.15 10.35 13.2875L11.9625 14.9L15.675 11.1875C15.8125 11.05 15.9875 10.9813 16.2 10.9813C16.4125 10.9813 16.5875 11.05 16.725 11.1875C16.8625 11.325 16.9313 11.5 16.9313 11.7125C16.9313 11.925 16.8625 12.1 16.725 12.2375L12.4875 16.475C12.4125 16.55 12.3313 16.6031 12.2437 16.6344C12.1562 16.6656 12.0625 16.6813 11.9625 16.6813ZM8.60625 10.0063C8.73125 10.0813 8.8625 10.1187 9 10.1187C9.1375 10.1187 9.26875 10.0813 9.39375 10.0063L14.6437 6.725C14.7437 6.6625 14.8281 6.56563 14.8969 6.43438C14.9656 6.30313 15 6.175 15 6.05C15 5.8125 14.9 5.64062 14.7 5.53438C14.5 5.42813 14.3 5.4375 14.1 5.5625L9 8.75L3.9 5.5625C3.7 5.4375 3.5 5.43125 3.3 5.54375C3.1 5.65625 3 5.83125 3 6.06875C3 6.19375 3.03438 6.31875 3.10313 6.44375C3.17188 6.56875 3.25625 6.6625 3.35625 6.725L8.60625 10.0063ZM3 15.5C2.5875 15.5 2.23438 15.3531 1.94063 15.0594C1.64688 14.7656 1.5 14.4125 1.5 14V5C1.5 4.5875 1.64688 4.23438 1.94063 3.94063C2.23438 3.64688 2.5875 3.5 3 3.5H15C15.4125 3.5 15.7656 3.64688 16.0594 3.94063C16.3531 4.23438 16.5 4.5875 16.5 5V9.14375C16.2875 9.10625 16.0625 9.12188 15.825 9.19063C15.5875 9.25938 15.375 9.3875 15.1875 9.575L11.9813 12.7812L10.8938 11.6938C10.5938 11.3938 10.2375 11.2437 9.825 11.2437C9.4125 11.2437 9.05625 11.3938 8.75625 11.6938L7.725 12.725C7.425 13.025 7.275 13.3813 7.275 13.7938C7.275 14.2063 7.425 14.5625 7.725 14.8625L8.3625 15.5H3Z" fill="#00B6B7"/>
</g>
</svg>
