<svg width="64" height="64" viewBox="0 0 64 64" fill="none" xmlns="http://www.w3.org/2000/svg">
<g clip-path="url(#clip0_3130_26140)">
<path opacity="0.4" d="M32.0268 18.4836C24.4737 18.4836 18.3428 24.6145 18.3428 32.1676C18.3428 39.7207 24.4737 45.8517 32.0268 45.8517C39.5799 45.8517 45.7109 39.7207 45.7109 32.1676C45.7109 24.6145 39.5799 18.4836 32.0268 18.4836Z" fill="white"/>
<path d="M42.2978 3.12454C42.2978 4.23064 42.9931 5.21033 43.9728 5.65277C50.4198 8.56024 55.6343 13.7747 58.5417 20.2217C58.9842 21.233 59.9639 21.8967 61.07 21.8967C62.8713 21.8967 64.1355 20.1585 63.4086 18.5152C59.9639 10.5828 53.6117 4.23064 45.6794 0.754317C44.036 0.0274494 42.2978 1.32317 42.2978 3.09293V3.12454ZM18.3744 0.754317C20.0178 0.0274494 21.7559 1.32317 21.7559 3.09293C21.7559 4.19904 21.0607 5.17873 20.081 5.62117C13.634 8.52864 8.41949 13.7431 5.51202 20.1901C5.06958 21.2014 4.08989 21.8651 2.98379 21.8651C1.18242 21.8651 -0.081699 20.1269 0.645169 18.4836C4.08989 10.5828 10.4421 4.23064 18.3744 0.754317ZM42.2978 61.2107C42.2978 60.1046 42.9931 59.1249 43.9728 58.6825C50.4198 55.775 55.6343 50.5605 58.5417 44.1135C58.9842 43.1022 59.9639 42.4386 61.07 42.4386C62.8713 42.4386 64.1355 44.1768 63.4086 45.8201C59.9639 53.7524 53.5801 60.1362 45.6478 63.581C44.0044 64.3078 42.2662 63.0121 42.2662 61.2423L42.2978 61.2107ZM5.51202 44.1135C5.06958 43.1022 4.08989 42.4386 2.98379 42.4386C1.18242 42.4386 -0.081699 44.1768 0.645169 45.8201C4.08989 53.7524 10.4737 60.1362 18.406 63.581C20.0494 64.3078 21.7875 63.0121 21.7875 61.2423C21.7875 60.1362 21.0923 59.1565 20.1126 58.7141C13.6656 55.8066 8.45109 50.5921 5.54362 44.1451L5.51202 44.1135Z" fill="white"/>
<path d="M32.2797 13.3323C31.616 13.3323 30.9524 13.3639 30.3203 13.4271C28.8982 13.5851 27.6341 12.5422 27.5077 11.1517C27.3497 9.72954 28.3925 8.46542 29.7831 8.33901C30.6048 8.2442 31.4264 8.2126 32.2797 8.2126C43.6884 8.2126 53.2325 16.1765 55.6343 26.8583C55.9503 28.2489 55.097 29.6078 53.7065 29.9238C52.316 30.2398 50.957 29.3866 50.641 27.996C48.7448 19.6213 41.2233 13.3639 32.2797 13.3639V13.3323Z" fill="white"/>
<path d="M22.4512 13.0163C23.2413 14.1856 22.9253 15.7973 21.756 16.5874C16.7627 19.9689 13.476 25.689 13.476 32.1992C13.476 36.118 14.6769 39.7207 16.6995 42.7546C17.4896 43.9239 17.1735 45.5357 16.0042 46.3257C14.8349 47.1158 13.2232 46.7998 12.4331 45.6305C9.84165 41.8065 8.32471 37.1925 8.32471 32.1992C8.32471 23.9509 12.4963 16.6506 18.8801 12.3526C20.0494 11.5625 21.6611 11.8785 22.4512 13.0479V13.0163Z" fill="white"/>
<path d="M53.6117 35.2647C54.9706 35.644 55.7923 37.0345 55.4131 38.425C52.6636 48.6328 43.3407 56.1543 32.2797 56.1543C28.2661 56.1543 24.4738 55.1746 21.1555 53.4364C19.8914 52.7728 19.4173 51.2242 20.081 49.9601C20.7446 48.696 22.2932 48.2219 23.5573 48.8856C26.1804 50.2445 29.151 51.0346 32.2797 51.0346C40.9705 51.0346 48.3024 45.1248 50.4514 37.1293C50.8306 35.7704 52.2212 34.9487 53.6117 35.3279V35.2647Z" fill="white"/>
</g>
<defs>
<clipPath id="clip0_3130_26140">
<rect width="63.2059" height="63.2059" fill="white" transform="translate(0.42395 0.564697)"/>
</clipPath>
</defs>
</svg>
