<svg width="64" height="65" viewBox="0 0 64 65" fill="none" xmlns="http://www.w3.org/2000/svg">
<g clip-path="url(#clip0_3130_26053)">
<path d="M3.43303 23.7681H24.3713C24.9004 23.7681 25.329 23.3392 25.329 22.8104V1.87187C25.329 1.34304 24.9004 0.914185 24.3713 0.914185H3.43303C2.90381 0.914185 2.47534 1.34304 2.47534 1.87187V22.8104C2.47534 23.3394 2.90381 23.7681 3.43303 23.7681Z" fill="white"/>
<path d="M14.5793 37.5852C14.2056 37.2113 13.5988 37.2113 13.2251 37.5852L0.775184 50.0351C0.401111 50.4092 0.401111 51.0156 0.775184 51.3895L13.2251 63.8394C13.4121 64.0264 13.6572 64.1199 13.9022 64.1199C14.1472 64.1199 14.3925 64.0264 14.5793 63.8394L27.0292 51.3895C27.4033 51.0154 27.4033 50.409 27.0292 50.0351L14.5793 37.5852Z" fill="white"/>
<path d="M44.5159 23.7405H56.573C56.9151 23.7405 57.2312 23.5579 57.4024 23.2616L63.4307 12.8202C63.6017 12.5239 63.6017 12.1588 63.4307 11.8625L57.4024 1.4208C57.2313 1.12449 56.9151 0.941956 56.573 0.941956H44.5159C44.1737 0.941956 43.8574 1.12449 43.6866 1.4208L37.6583 11.8625C37.4873 12.1588 37.4873 12.5239 37.6583 12.8202L43.6866 23.2616C43.8578 23.5579 44.1737 23.7405 44.5159 23.7405Z" fill="white" fill-opacity="0.4"/>
<path d="M51.3847 38.5383C44.6715 38.5383 39.21 43.9996 39.21 50.7126C39.21 57.4256 44.6715 62.8873 51.3847 62.8873C58.0979 62.8873 63.5594 57.4258 63.5594 50.7126C63.5592 43.9996 58.0977 38.5383 51.3847 38.5383Z" fill="white"/>
<path d="M12.9446 25.1429C12.5743 25.1429 12.2742 25.4431 12.2742 25.8133V34.624C12.2742 34.9943 12.5743 35.2944 12.9446 35.2944H14.4769C14.8471 35.2944 15.1472 34.9943 15.1472 34.624V25.8133C15.1472 25.4431 14.8471 25.1429 14.4769 25.1429H12.9446Z" fill="white"/>
<path d="M50.427 25.4624C50.0567 25.4624 49.7566 25.7625 49.7566 26.1328V34.9435C49.7566 35.3138 50.0567 35.6139 50.427 35.6139H51.9593C52.3295 35.6139 52.6297 35.3138 52.6297 34.9435V26.1328C52.6297 25.7625 52.3295 25.4624 51.9593 25.4624H50.427Z" fill="white"/>
<path d="M35.1393 11.13H28.4511C28.0807 11.13 27.7808 11.4302 27.7808 11.8004V13.3327C27.7808 13.703 28.0807 14.0031 28.4511 14.0031H35.1393C35.5093 14.0031 35.8096 13.703 35.8096 13.3327V11.8004C35.8096 11.4302 35.5093 11.13 35.1393 11.13Z" fill="white"/>
</g>
<defs>
<clipPath id="clip0_3130_26053">
<rect width="63.2059" height="63.2059" fill="white" transform="translate(0.423828 0.914185)"/>
</clipPath>
</defs>
</svg>
